<svg version="1.1" id="Layer_1" xmlns="http://www.w3.org/2000/svg" xmlns:xlink="http://www.w3.org/1999/xlink" x="0px" y="0px"
	 width="100%" viewBox="0 0 1000 750" enable-background="new 0 0 1000 750" xml:space="preserve">
<path fill="#0080FF" opacity="1.000000" stroke="none" 
	d="
M552.000000,751.000000 
	C368.000000,751.000000 184.500000,751.000000 1.000000,751.000000 
	C1.000000,501.000000 1.000000,251.000000 1.000000,1.000000 
	C334.333344,1.000000 667.666687,1.000000 1001.000000,1.000000 
	C1001.000000,251.000000 1001.000000,501.000000 1001.000000,751.000000 
	C851.500000,751.000000 702.000000,751.000000 552.000000,751.000000 
M376.683899,497.953430 
	C376.258331,497.587128 375.836823,496.907227 375.406616,496.901672 
	C369.077026,496.820221 362.737946,496.655151 356.422821,496.959930 
	C355.141815,497.021820 353.305603,498.702850 352.821136,500.035736 
	C349.416687,509.402100 346.098297,518.810181 343.137238,528.324768 
	C338.693878,542.602295 339.138794,556.939270 344.005859,571.017822 
	C349.053436,585.618591 357.238129,598.537476 372.851990,602.471069 
	C395.062439,608.066467 417.674744,612.353271 440.324158,615.844421 
	C466.523438,619.882690 493.021637,620.704895 520.056335,619.268066 
	C520.056335,626.444214 520.026489,633.577881 520.062500,640.711243 
	C520.138733,655.810059 529.511902,665.620483 544.570374,665.703735 
	C575.557312,665.875000 606.546631,665.885071 637.533386,665.696045 
	C652.310852,665.605896 661.842529,655.775085 661.865540,641.019836 
	C661.931885,598.536499 661.951965,556.052795 661.779114,513.570007 
	C661.764099,509.874878 660.527588,506.067383 659.261475,502.525482 
	C657.812561,498.472198 654.987732,496.646820 650.126892,496.676361 
	C611.310120,496.912201 572.491272,496.807983 533.673096,496.808105 
	C525.278259,496.808136 522.959717,498.487427 520.973877,506.645203 
	C520.313538,509.357666 520.100098,512.237244 520.093140,515.041443 
	C520.029053,540.864502 520.055176,566.687805 520.055054,592.511047 
	C520.055054,594.255005 520.055054,595.998962 520.055054,597.783752 
	C473.036743,599.787781 427.533936,595.049255 382.696045,583.597595 
	C375.713501,581.814209 370.747559,577.900085 367.287598,571.913879 
	C362.128235,562.987366 359.185394,553.065979 361.830994,543.139832 
	C365.838684,528.102966 371.430756,513.488525 376.683899,497.953430 
M533.736694,327.141205 
	C532.990601,328.576172 532.244568,330.011108 531.167969,332.081726 
	C538.221680,332.081726 544.661926,331.889313 551.082336,332.162994 
	C554.286377,332.299561 555.764160,331.033630 557.061035,328.287750 
	C567.483521,306.220398 575.216064,283.282440 579.791626,259.298401 
	C584.166504,236.367020 581.387024,214.901627 566.866211,195.793137 
	C545.501892,167.679031 506.057892,156.018814 471.079590,167.539062 
	C435.630432,179.214417 413.407532,210.100540 416.285797,244.863632 
	C418.745087,274.566772 428.184967,302.404175 440.961334,329.168671 
	C441.516479,330.331635 442.871338,331.896790 443.894257,331.927612 
	C451.602844,332.159851 459.321594,332.054321 467.715485,332.054321 
	C466.845764,330.347656 466.443604,329.477234 465.972473,328.645935 
	C453.642273,306.889893 445.424988,283.619751 440.418640,259.172760 
	C437.399719,244.430649 436.190613,229.864502 443.510986,215.789215 
	C457.508728,188.874863 491.923706,176.718018 522.522949,188.039825 
	C549.150391,197.892075 563.777588,221.569733 559.692200,249.216919 
	C555.671814,276.424286 547.205688,302.254608 533.736694,327.141205 
M298.720581,447.287506 
	C312.946716,444.076141 321.926605,435.857788 323.435425,422.061737 
	C324.639709,411.049988 324.647034,399.703125 323.472321,388.687744 
	C322.046906,375.321045 313.676239,366.233887 300.534882,363.523804 
	C292.589813,361.885284 283.913849,361.797028 275.876892,363.032593 
	C261.281464,365.276428 252.198242,374.662567 250.586624,389.356018 
	C249.433060,399.873444 249.470749,410.716400 250.595230,421.241241 
	C252.123093,435.541534 260.883759,444.662567 275.131927,447.020508 
	C282.552399,448.248535 290.310669,447.435303 298.720581,447.287506 
M378.353058,372.589111 
	C378.353058,378.005219 378.353058,383.421326 378.353058,389.743683 
	C376.715057,388.693054 375.934235,388.203094 375.164246,387.696686 
	C359.325043,377.279083 339.467957,385.127075 336.248840,403.787109 
	C334.863770,411.815918 335.059265,420.436005 336.282227,428.523560 
	C338.258972,441.596588 348.463165,449.480255 361.454559,448.330933 
	C367.458069,447.799835 373.265472,445.051453 379.107697,443.324341 
	C378.988678,447.197235 382.375580,447.633911 386.446838,447.290039 
	C388.596252,447.108521 390.796326,447.057159 392.933777,447.298859 
	C397.742401,447.842621 399.274414,445.900269 399.230652,441.074493 
	C399.022217,418.096680 399.174957,395.115814 399.121399,372.136230 
	C399.095062,360.825989 400.738556,361.551697 388.292694,361.550934 
	C378.355225,361.550354 378.355225,361.551819 378.353058,372.589111 
M793.706604,435.828674 
	C796.156128,438.769958 798.499939,441.809723 801.106445,444.604614 
	C802.167480,445.742340 803.764648,447.007111 805.176575,447.080231 
	C810.820862,447.372528 816.494324,447.381012 822.144470,447.164795 
	C825.109192,447.051331 825.918884,445.207764 824.126526,442.741180 
	C822.564209,440.591003 820.782104,438.600342 819.092102,436.543274 
	C812.580017,428.616791 806.065857,420.691956 799.472900,412.669617 
	C805.500549,406.154816 811.233826,400.129700 816.746460,393.909119 
	C818.739136,391.660583 820.203552,388.943848 821.908997,386.440735 
	C818.839905,385.806183 815.780579,385.119171 812.699829,384.547150 
	C804.253723,382.978882 798.062866,386.167908 793.172791,393.134155 
	C790.422485,397.052124 786.723328,400.304108 782.529175,404.857574 
	C782.529175,401.462769 782.529419,399.647003 782.529114,397.831207 
	C782.527466,387.510284 782.435364,377.188171 782.570984,366.869049 
	C782.621033,363.064880 781.241760,361.312073 777.323914,361.506989 
	C773.836548,361.680542 770.332581,361.617279 766.838867,361.534058 
	C763.635132,361.457764 762.367249,363.007385 762.370605,366.095978 
	C762.398315,391.565308 762.399780,417.034698 762.364929,442.503998 
	C762.360413,445.780975 763.570190,447.482391 767.091431,447.298492 
	C770.245605,447.133759 773.436768,447.033539 776.573181,447.322083 
	C781.262146,447.753571 782.788879,445.713959 782.589233,441.236023 
	C782.336182,435.558807 782.528015,429.861816 782.528015,424.173340 
	C782.939575,424.086609 783.351074,423.999878 783.762634,423.913116 
	C786.921692,427.705841 790.080688,431.498566 793.706604,435.828674 
M650.116516,388.119537 
	C650.110168,405.776215 650.242981,423.434753 650.007141,441.088348 
	C649.941895,445.971313 651.656189,447.757843 656.403381,447.303925 
	C659.209473,447.035614 662.062256,447.267242 664.893921,447.252197 
	C671.064514,447.219391 671.221558,447.066711 671.234253,440.689178 
	C671.253418,431.028046 671.108032,421.364044 671.299072,411.706543 
	C671.456970,403.727509 675.330261,399.632324 682.185974,399.604767 
	C689.059631,399.577179 692.801575,403.430084 692.915833,411.151398 
	C693.068604,421.476685 693.053528,431.806915 692.922485,442.132629 
	C692.877502,445.676575 694.018738,447.435913 697.777527,447.287231 
	C701.769043,447.129333 705.772400,447.198669 709.769043,447.264221 
	C712.564819,447.310028 714.180908,446.351746 714.154602,443.256104 
	C714.048218,430.764771 714.518921,418.245026 713.830139,405.788116 
	C712.977112,390.358093 700.803772,380.988007 685.565552,383.913757 
	C680.262695,384.931915 675.340698,387.933868 670.309082,390.003357 
	C670.993469,385.589844 668.434692,384.137054 663.879639,384.505798 
	C660.735046,384.760406 657.518188,384.285858 654.404480,384.687225 
	C652.915710,384.879120 651.591614,386.348816 650.116516,388.119537 
M525.122498,437.307678 
	C534.907776,449.176727 547.831421,449.980743 561.516907,447.281830 
	C569.120361,445.782410 575.494812,441.902222 579.497742,434.979431 
	C582.037170,430.587708 581.042603,428.918182 576.096252,428.827118 
	C572.267822,428.756653 568.414673,428.568207 564.616699,428.915375 
	C562.658142,429.094421 560.370667,429.870178 558.972839,431.171967 
	C555.339050,434.555969 551.522461,436.215759 546.772156,434.061768 
	C542.619263,432.178711 540.687805,427.548187 541.539856,421.446594 
	C553.252075,421.446594 565.039185,421.332275 576.821838,421.509583 
	C580.857300,421.570312 582.399353,420.291077 582.399902,416.073853 
	C582.403870,385.845642 557.209290,378.710052 537.362732,385.729126 
	C530.233093,388.250610 524.931152,393.159210 522.372864,400.180298 
	C517.858032,412.571411 517.754456,424.927368 525.122498,437.307678 
M234.162201,428.818634 
	C229.999771,428.818085 225.821365,428.604828 221.682373,428.916046 
	C219.890594,429.050751 217.797531,429.859497 216.505966,431.070770 
	C212.918503,434.435242 209.082596,436.329590 204.343445,434.095886 
	C199.278351,431.708557 198.504578,427.011749 198.188538,421.449860 
	C200.350586,421.449860 202.138397,421.450012 203.926208,421.449829 
	C214.249008,421.448669 224.571899,421.424255 234.894562,421.461365 
	C237.709702,421.471466 239.812378,420.920319 239.885361,417.453430 
	C240.285812,398.430542 230.417130,386.059265 215.300232,383.900421 
	C194.652725,380.951782 180.384460,389.944580 177.491989,408.397980 
	C176.584473,414.187592 176.983505,420.409027 177.989929,426.224152 
	C180.052826,438.143677 188.464798,446.133698 200.464111,447.773926 
	C205.835602,448.508179 211.493164,448.544739 216.842255,447.727936 
	C225.327347,446.432312 232.663467,442.567322 237.045517,434.650940 
	C238.390854,432.220581 239.558807,429.470093 234.162201,428.818634 
M588.638733,386.441895 
	C588.494446,388.253998 588.237671,390.065369 588.225159,391.878357 
	C588.167969,400.173279 588.192688,400.160645 596.333435,400.265137 
	C597.772034,400.283569 599.208618,400.458282 600.997009,400.585815 
	C600.997009,409.302002 600.820312,417.616455 601.039856,425.920410 
	C601.344360,437.435486 607.526062,444.916138 618.774963,446.630646 
	C624.649597,447.526001 630.737793,447.243866 636.715027,447.048676 
	C637.868774,447.010986 639.751770,445.027740 639.947754,443.736938 
	C641.707764,432.145020 640.853943,431.227966 629.158325,430.869934 
	C628.825378,430.859741 628.492126,430.859985 628.158997,430.856018 
	C623.954102,430.805817 621.364624,428.477966 621.204712,424.512970 
	C620.885071,416.589996 621.109924,408.645111 621.109924,400.253021 
	C624.009338,400.253021 626.471008,400.263245 628.932495,400.251251 
	C640.361694,400.195557 638.946716,401.374725 639.175659,389.571655 
	C639.247070,385.886688 637.841492,384.414398 634.220276,384.529846 
	C629.948669,384.665955 625.669495,384.561768 620.960205,384.561768 
	C620.960205,381.172943 621.007202,378.372467 620.952393,375.573975 
	C620.636292,359.431091 623.802185,361.857117 606.511169,361.499176 
	C602.081299,361.407532 600.646729,363.142487 600.864563,367.421661 
	C601.148560,373.000793 600.934021,378.605316 600.934021,383.816986 
	C596.483582,384.529663 592.785767,385.121826 588.638733,386.441895 
M434.729950,403.698395 
	C433.901031,401.525818 433.051971,399.360657 432.246521,397.179413 
	C427.378387,383.996002 427.381683,383.994843 413.390106,384.554504 
	C413.223846,384.561157 413.057129,384.563019 412.890747,384.559357 
	C409.224884,384.478271 407.973389,386.131592 409.371155,389.568573 
	C416.693298,407.572754 423.988403,425.588348 431.452667,443.533478 
	C432.060822,444.995544 433.790070,446.873688 435.132904,446.988770 
	C439.920532,447.399017 444.777466,447.303619 449.581909,446.993500 
	C450.721436,446.919922 452.279724,445.480927 452.765472,444.306183 
	C460.383148,425.884521 467.850067,407.400604 475.369995,388.938446 
	C476.537231,386.072723 475.238495,384.760498 472.543884,384.625061 
	C469.222443,384.458130 465.869904,384.772705 462.562439,384.498352 
	C458.441162,384.156464 456.273376,385.680328 454.881470,389.720490 
	C451.055481,400.825745 446.778381,411.775574 442.234741,423.982452 
	C439.549103,416.762634 437.257263,410.601501 434.729950,403.698395 
M491.387085,469.061066 
	C501.965515,466.169006 507.328156,458.804260 507.552765,448.275726 
	C507.975281,428.467041 507.738037,408.644440 507.797913,388.827698 
	C507.806641,385.940002 506.500916,384.519745 503.570892,384.551849 
	C499.907562,384.591980 496.225372,384.781555 492.584045,384.493347 
	C487.876495,384.120758 486.616028,386.138855 486.669159,390.631531 
	C486.877960,408.282196 486.784973,425.936859 486.739136,443.589874 
	C486.715729,452.596771 485.500824,453.721619 476.572266,454.523590 
	C475.016205,454.663391 472.392395,455.807373 472.269867,456.748871 
	C471.781372,460.502869 471.885590,464.380035 472.260376,468.163116 
	C472.339203,468.958984 474.500854,470.150452 475.685028,470.130096 
	C480.653687,470.044586 485.615570,469.568115 491.387085,469.061066 
M727.929626,399.511902 
	C727.929626,410.656006 727.929626,421.800140 727.929626,432.944244 
	C727.929626,447.471832 727.929688,447.330780 742.447144,447.334045 
	C746.800964,447.335022 748.238159,445.915802 748.187866,441.556915 
	C747.991943,424.593506 747.937317,407.623749 748.213562,390.662567 
	C748.294922,385.672211 746.451111,384.444489 741.827087,384.481537 
	C727.930847,384.592896 727.929626,384.443146 727.929626,399.511902 
M507.897552,371.026917 
	C507.758240,358.139496 509.709839,358.449402 497.840912,358.561737 
	C485.361298,358.679840 486.609467,356.435577 486.591705,371.281586 
	C486.588104,374.280640 488.069519,375.466797 490.911743,375.441650 
	C495.075897,375.404785 499.278625,375.756500 503.386078,375.272766 
	C504.992859,375.083527 506.386169,373.081451 507.897552,371.026917 
M745.208862,358.666687 
	C743.383240,358.632904 741.557007,358.552032 739.731995,358.572784 
	C726.134766,358.727509 728.027527,356.707764 727.810974,371.023956 
	C727.761108,374.320465 729.293640,375.475769 732.328796,375.433655 
	C736.147644,375.380676 739.971497,375.513519 743.785339,375.365540 
	C745.023926,375.317474 746.549927,374.973389 747.400269,374.180786 
	C749.326843,372.385071 748.240601,361.260895 745.208862,358.666687 
z"/>
<path fill="#FAFDFF" opacity="1.000000" stroke="none" 
	d="
M376.516785,498.324036 
	C371.430756,513.488525 365.838684,528.102966 361.830994,543.139832 
	C359.185394,553.065979 362.128235,562.987366 367.287598,571.913879 
	C370.747559,577.900085 375.713501,581.814209 382.696045,583.597595 
	C427.533936,595.049255 473.036743,599.787781 520.055054,597.783752 
	C520.055054,595.998962 520.055054,594.255005 520.055054,592.511047 
	C520.055176,566.687805 520.029053,540.864502 520.093140,515.041443 
	C520.100098,512.237244 520.313538,509.357666 520.973877,506.645203 
	C522.959717,498.487427 525.278259,496.808136 533.673096,496.808105 
	C572.491272,496.807983 611.310120,496.912201 650.126892,496.676361 
	C654.987732,496.646820 657.812561,498.472198 659.261475,502.525482 
	C660.527588,506.067383 661.764099,509.874878 661.779114,513.570007 
	C661.951965,556.052795 661.931885,598.536499 661.865540,641.019836 
	C661.842529,655.775085 652.310852,665.605896 637.533386,665.696045 
	C606.546631,665.885071 575.557312,665.875000 544.570374,665.703735 
	C529.511902,665.620483 520.138733,655.810059 520.062500,640.711243 
	C520.026489,633.577881 520.056335,626.444214 520.056335,619.268066 
	C493.021637,620.704895 466.523438,619.882690 440.324158,615.844421 
	C417.674744,612.353271 395.062439,608.066467 372.851990,602.471069 
	C357.238129,598.537476 349.053436,585.618591 344.005859,571.017822 
	C339.138794,556.939270 338.693878,542.602295 343.137238,528.324768 
	C346.098297,518.810181 349.416687,509.402100 352.821136,500.035736 
	C353.305603,498.702850 355.141815,497.021820 356.422821,496.959930 
	C362.737946,496.655151 369.077026,496.820221 375.406616,496.901672 
	C375.836823,496.907227 376.258331,497.587128 376.516785,498.324036 
M647.381104,608.500244 
	C647.380188,577.191223 647.403076,545.882141 647.361572,514.573181 
	C647.351135,506.676727 644.270325,503.388031 636.637207,503.370331 
	C606.161072,503.299683 575.684509,503.298584 545.208374,503.371796 
	C537.825806,503.389557 534.529846,506.723022 534.520020,514.141907 
	C534.463989,556.442261 534.465332,598.742859 534.516357,641.043274 
	C534.525635,648.729370 537.865906,651.945312 545.524780,651.951477 
	C575.834534,651.975891 606.144348,651.976868 636.454102,651.950684 
	C644.115295,651.944092 647.306702,648.748230 647.360962,640.975708 
	C647.434204,630.484375 647.380432,619.992126 647.381104,608.500244 
z"/>
<path fill="#FCFDFF" opacity="1.000000" stroke="none" 
	d="
M533.894714,326.810822 
	C547.205688,302.254608 555.671814,276.424286 559.692200,249.216919 
	C563.777588,221.569733 549.150391,197.892075 522.522949,188.039825 
	C491.923706,176.718018 457.508728,188.874863 443.510986,215.789215 
	C436.190613,229.864502 437.399719,244.430649 440.418640,259.172760 
	C445.424988,283.619751 453.642273,306.889893 465.972473,328.645935 
	C466.443604,329.477234 466.845764,330.347656 467.715485,332.054321 
	C459.321594,332.054321 451.602844,332.159851 443.894257,331.927612 
	C442.871338,331.896790 441.516479,330.331635 440.961334,329.168671 
	C428.184967,302.404175 418.745087,274.566772 416.285797,244.863632 
	C413.407532,210.100540 435.630432,179.214417 471.079590,167.539062 
	C506.057892,156.018814 545.501892,167.679031 566.866211,195.793137 
	C581.387024,214.901627 584.166504,236.367020 579.791626,259.298401 
	C575.216064,283.282440 567.483521,306.220398 557.061035,328.287750 
	C555.764160,331.033630 554.286377,332.299561 551.082336,332.162994 
	C544.661926,331.889313 538.221680,332.081726 531.167969,332.081726 
	C532.244568,330.011108 532.990601,328.576172 533.894714,326.810822 
z"/>
<path fill="#FDFEFF" opacity="1.000000" stroke="none" 
	d="
M298.318481,447.415833 
	C290.310669,447.435303 282.552399,448.248535 275.131927,447.020508 
	C260.883759,444.662567 252.123093,435.541534 250.595230,421.241241 
	C249.470749,410.716400 249.433060,399.873444 250.586624,389.356018 
	C252.198242,374.662567 261.281464,365.276428 275.876892,363.032593 
	C283.913849,361.797028 292.589813,361.885284 300.534882,363.523804 
	C313.676239,366.233887 322.046906,375.321045 323.472321,388.687744 
	C324.647034,399.703125 324.639709,411.049988 323.435425,422.061737 
	C321.926605,435.857788 312.946716,444.076141 298.318481,447.415833 
M301.982239,408.455078 
	C301.684509,402.329529 301.878967,396.129211 300.962585,390.097656 
	C299.854126,382.802124 294.674194,379.045593 287.239136,378.998657 
	C279.847412,378.951996 273.821716,382.763336 273.260254,389.774292 
	C272.444092,399.966125 272.480286,410.323730 273.311951,420.516083 
	C273.876190,427.431061 279.943268,431.161194 287.439575,431.062286 
	C294.610046,430.967712 299.719604,427.113068 301.013702,420.325348 
	C301.692780,416.763641 301.671906,413.068420 301.982239,408.455078 
z"/>
<path fill="#FCFDFF" opacity="1.000000" stroke="none" 
	d="
M378.353088,372.106567 
	C378.355225,361.551819 378.355225,361.550354 388.292694,361.550934 
	C400.738556,361.551697 399.095062,360.825989 399.121399,372.136230 
	C399.174957,395.115814 399.022217,418.096680 399.230652,441.074493 
	C399.274414,445.900269 397.742401,447.842621 392.933777,447.298859 
	C390.796326,447.057159 388.596252,447.108521 386.446838,447.290039 
	C382.375580,447.633911 378.988678,447.197235 379.107697,443.324341 
	C373.265472,445.051453 367.458069,447.799835 361.454559,448.330933 
	C348.463165,449.480255 338.258972,441.596588 336.282227,428.523560 
	C335.059265,420.436005 334.863770,411.815918 336.248840,403.787109 
	C339.467957,385.127075 359.325043,377.279083 375.164246,387.696686 
	C375.934235,388.203094 376.715057,388.693054 378.353058,389.743683 
	C378.353058,383.421326 378.353058,378.005219 378.353088,372.106567 
M377.315582,425.325867 
	C377.530731,419.569519 378.299927,413.764771 377.802368,408.070679 
	C377.322540,402.579803 372.895752,399.578400 367.262482,399.581787 
	C361.616302,399.585236 357.944824,402.135651 357.146240,407.785034 
	C356.460083,412.639313 356.529755,417.666595 356.853638,422.578613 
	C357.170837,427.388123 359.420471,431.171173 364.745972,432.057526 
	C370.740295,433.055176 373.840668,431.528046 377.315582,425.325867 
z"/>
<path fill="#F8FCFF" opacity="1.000000" stroke="none" 
	d="
M793.473145,435.559967 
	C790.080688,431.498566 786.921692,427.705841 783.762634,423.913116 
	C783.351074,423.999878 782.939575,424.086609 782.528015,424.173340 
	C782.528015,429.861816 782.336182,435.558807 782.589233,441.236023 
	C782.788879,445.713959 781.262146,447.753571 776.573181,447.322083 
	C773.436768,447.033539 770.245605,447.133759 767.091431,447.298492 
	C763.570190,447.482391 762.360413,445.780975 762.364929,442.503998 
	C762.399780,417.034698 762.398315,391.565308 762.370605,366.095978 
	C762.367249,363.007385 763.635132,361.457764 766.838867,361.534058 
	C770.332581,361.617279 773.836548,361.680542 777.323914,361.506989 
	C781.241760,361.312073 782.621033,363.064880 782.570984,366.869049 
	C782.435364,377.188171 782.527466,387.510284 782.529114,397.831207 
	C782.529419,399.647003 782.529175,401.462769 782.529175,404.857574 
	C786.723328,400.304108 790.422485,397.052124 793.172791,393.134155 
	C798.062866,386.167908 804.253723,382.978882 812.699829,384.547150 
	C815.780579,385.119171 818.839905,385.806183 821.908997,386.440735 
	C820.203552,388.943848 818.739136,391.660583 816.746460,393.909119 
	C811.233826,400.129700 805.500549,406.154816 799.472900,412.669617 
	C806.065857,420.691956 812.580017,428.616791 819.092102,436.543274 
	C820.782104,438.600342 822.564209,440.591003 824.126526,442.741180 
	C825.918884,445.207764 825.109192,447.051331 822.144470,447.164795 
	C816.494324,447.381012 810.820862,447.372528 805.176575,447.080231 
	C803.764648,447.007111 802.167480,445.742340 801.106445,444.604614 
	C798.499939,441.809723 796.156128,438.769958 793.473145,435.559967 
z"/>
<path fill="#FDFEFF" opacity="1.000000" stroke="none" 
	d="
M650.154724,387.679688 
	C651.591614,386.348816 652.915710,384.879120 654.404480,384.687225 
	C657.518188,384.285858 660.735046,384.760406 663.879639,384.505798 
	C668.434692,384.137054 670.993469,385.589844 670.309082,390.003357 
	C675.340698,387.933868 680.262695,384.931915 685.565552,383.913757 
	C700.803772,380.988007 712.977112,390.358093 713.830139,405.788116 
	C714.518921,418.245026 714.048218,430.764771 714.154602,443.256104 
	C714.180908,446.351746 712.564819,447.310028 709.769043,447.264221 
	C705.772400,447.198669 701.769043,447.129333 697.777527,447.287231 
	C694.018738,447.435913 692.877502,445.676575 692.922485,442.132629 
	C693.053528,431.806915 693.068604,421.476685 692.915833,411.151398 
	C692.801575,403.430084 689.059631,399.577179 682.185974,399.604767 
	C675.330261,399.632324 671.456970,403.727509 671.299072,411.706543 
	C671.108032,421.364044 671.253418,431.028046 671.234253,440.689178 
	C671.221558,447.066711 671.064514,447.219391 664.893921,447.252197 
	C662.062256,447.267242 659.209473,447.035614 656.403381,447.303925 
	C651.656189,447.757843 649.941895,445.971313 650.007141,441.088348 
	C650.242981,423.434753 650.110168,405.776215 650.154724,387.679688 
z"/>
<path fill="#FCFDFF" opacity="1.000000" stroke="none" 
	d="
M524.922363,437.004333 
	C517.754456,424.927368 517.858032,412.571411 522.372864,400.180298 
	C524.931152,393.159210 530.233093,388.250610 537.362732,385.729126 
	C557.209290,378.710052 582.403870,385.845642 582.399902,416.073853 
	C582.399353,420.291077 580.857300,421.570312 576.821838,421.509583 
	C565.039185,421.332275 553.252075,421.446594 541.539856,421.446594 
	C540.687805,427.548187 542.619263,432.178711 546.772156,434.061768 
	C551.522461,436.215759 555.339050,434.555969 558.972839,431.171967 
	C560.370667,429.870178 562.658142,429.094421 564.616699,428.915375 
	C568.414673,428.568207 572.267822,428.756653 576.096252,428.827118 
	C581.042603,428.918182 582.037170,430.587708 579.497742,434.979431 
	C575.494812,441.902222 569.120361,445.782410 561.516907,447.281830 
	C547.831421,449.980743 534.907776,449.176727 524.922363,437.004333 
M551.476318,409.608582 
	C554.569641,409.608582 557.662964,409.608582 560.883423,409.608582 
	C561.155640,404.116150 560.175598,399.391235 555.403320,397.757416 
	C552.371887,396.719604 548.009644,397.074463 545.174927,398.569427 
	C541.386169,400.567566 540.228821,404.824097 541.368469,409.608490 
	C544.559021,409.608490 547.538086,409.608490 551.476318,409.608582 
z"/>
<path fill="#FCFDFF" opacity="1.000000" stroke="none" 
	d="
M234.619354,428.826965 
	C239.558807,429.470093 238.390854,432.220581 237.045517,434.650940 
	C232.663467,442.567322 225.327347,446.432312 216.842255,447.727936 
	C211.493164,448.544739 205.835602,448.508179 200.464111,447.773926 
	C188.464798,446.133698 180.052826,438.143677 177.989929,426.224152 
	C176.983505,420.409027 176.584473,414.187592 177.491989,408.397980 
	C180.384460,389.944580 194.652725,380.951782 215.300232,383.900421 
	C230.417130,386.059265 240.285812,398.430542 239.885361,417.453430 
	C239.812378,420.920319 237.709702,421.471466 234.894562,421.461365 
	C224.571899,421.424255 214.249008,421.448669 203.926208,421.449829 
	C202.138397,421.450012 200.350586,421.449860 198.188538,421.449860 
	C198.504578,427.011749 199.278351,431.708557 204.343445,434.095886 
	C209.082596,436.329590 212.918503,434.435242 216.505966,431.070770 
	C217.797531,429.859497 219.890594,429.050751 221.682373,428.916046 
	C225.821365,428.604828 229.999771,428.818085 234.619354,428.826965 
M214.701050,398.697815 
	C210.976395,395.945129 206.955414,395.589813 203.074341,397.995880 
	C199.003342,400.519653 198.126205,404.654602 198.172043,409.212097 
	C205.096817,409.212097 211.627609,409.212097 219.491165,409.212097 
	C217.851654,405.338013 216.553238,402.269897 214.701050,398.697815 
z"/>
<path fill="#FDFEFF" opacity="1.000000" stroke="none" 
	d="
M588.863342,386.077942 
	C592.785767,385.121826 596.483582,384.529663 600.934021,383.816986 
	C600.934021,378.605316 601.148560,373.000793 600.864563,367.421661 
	C600.646729,363.142487 602.081299,361.407532 606.511169,361.499176 
	C623.802185,361.857117 620.636292,359.431091 620.952393,375.573975 
	C621.007202,378.372467 620.960205,381.172943 620.960205,384.561768 
	C625.669495,384.561768 629.948669,384.665955 634.220276,384.529846 
	C637.841492,384.414398 639.247070,385.886688 639.175659,389.571655 
	C638.946716,401.374725 640.361694,400.195557 628.932495,400.251251 
	C626.471008,400.263245 624.009338,400.253021 621.109924,400.253021 
	C621.109924,408.645111 620.885071,416.589996 621.204712,424.512970 
	C621.364624,428.477966 623.954102,430.805817 628.158997,430.856018 
	C628.492126,430.859985 628.825378,430.859741 629.158325,430.869934 
	C640.853943,431.227966 641.707764,432.145020 639.947754,443.736938 
	C639.751770,445.027740 637.868774,447.010986 636.715027,447.048676 
	C630.737793,447.243866 624.649597,447.526001 618.774963,446.630646 
	C607.526062,444.916138 601.344360,437.435486 601.039856,425.920410 
	C600.820312,417.616455 600.997009,409.302002 600.997009,400.585815 
	C599.208618,400.458282 597.772034,400.283569 596.333435,400.265137 
	C588.192688,400.160645 588.167969,400.173279 588.225159,391.878357 
	C588.237671,390.065369 588.494446,388.253998 588.863342,386.077942 
z"/>
<path fill="#FCFDFF" opacity="1.000000" stroke="none" 
	d="
M434.847687,404.069397 
	C437.257263,410.601501 439.549103,416.762634 442.234741,423.982452 
	C446.778381,411.775574 451.055481,400.825745 454.881470,389.720490 
	C456.273376,385.680328 458.441162,384.156464 462.562439,384.498352 
	C465.869904,384.772705 469.222443,384.458130 472.543884,384.625061 
	C475.238495,384.760498 476.537231,386.072723 475.369995,388.938446 
	C467.850067,407.400604 460.383148,425.884521 452.765472,444.306183 
	C452.279724,445.480927 450.721436,446.919922 449.581909,446.993500 
	C444.777466,447.303619 439.920532,447.399017 435.132904,446.988770 
	C433.790070,446.873688 432.060822,444.995544 431.452667,443.533478 
	C423.988403,425.588348 416.693298,407.572754 409.371155,389.568573 
	C407.973389,386.131592 409.224884,384.478271 412.890747,384.559357 
	C413.057129,384.563019 413.223846,384.561157 413.390106,384.554504 
	C427.381683,383.994843 427.378387,383.996002 432.246521,397.179413 
	C433.051971,399.360657 433.901031,401.525818 434.847687,404.069397 
z"/>
<path fill="#FBFDFF" opacity="1.000000" stroke="none" 
	d="
M490.983521,469.147919 
	C485.615570,469.568115 480.653687,470.044586 475.685028,470.130096 
	C474.500854,470.150452 472.339203,468.958984 472.260376,468.163116 
	C471.885590,464.380035 471.781372,460.502869 472.269867,456.748871 
	C472.392395,455.807373 475.016205,454.663391 476.572266,454.523590 
	C485.500824,453.721619 486.715729,452.596771 486.739136,443.589874 
	C486.784973,425.936859 486.877960,408.282196 486.669159,390.631531 
	C486.616028,386.138855 487.876495,384.120758 492.584045,384.493347 
	C496.225372,384.781555 499.907562,384.591980 503.570892,384.551849 
	C506.500916,384.519745 507.806641,385.940002 507.797913,388.827698 
	C507.738037,408.644440 507.975281,428.467041 507.552765,448.275726 
	C507.328156,458.804260 501.965515,466.169006 490.983521,469.147919 
z"/>
<path fill="#FFFFFF" opacity="1.000000" stroke="none" 
	d="
M727.929626,399.014496 
	C727.929626,384.443146 727.930847,384.592896 741.827087,384.481537 
	C746.451111,384.444489 748.294922,385.672211 748.213562,390.662567 
	C747.937317,407.623749 747.991943,424.593506 748.187866,441.556915 
	C748.238159,445.915802 746.800964,447.335022 742.447144,447.334045 
	C727.929688,447.330780 727.929626,447.471832 727.929626,432.944244 
	C727.929626,421.800140 727.929626,410.656006 727.929626,399.014496 
z"/>
<path fill="#FCFDFF" opacity="1.000000" stroke="none" 
	d="
M507.887146,371.466003 
	C506.386169,373.081451 504.992859,375.083527 503.386078,375.272766 
	C499.278625,375.756500 495.075897,375.404785 490.911743,375.441650 
	C488.069519,375.466797 486.588104,374.280640 486.591705,371.281586 
	C486.609467,356.435577 485.361298,358.679840 497.840912,358.561737 
	C509.709839,358.449402 507.758240,358.139496 507.887146,371.466003 
z"/>
<path fill="#FFFFFF" opacity="1.000000" stroke="none" 
	d="
M745.672058,358.774170 
	C748.240601,361.260895 749.326843,372.385071 747.400269,374.180786 
	C746.549927,374.973389 745.023926,375.317474 743.785339,375.365540 
	C739.971497,375.513519 736.147644,375.380676 732.328796,375.433655 
	C729.293640,375.475769 727.761108,374.320465 727.810974,371.023956 
	C728.027527,356.707764 726.134766,358.727509 739.731995,358.572784 
	C741.557007,358.552032 743.383240,358.632904 745.672058,358.774170 
z"/>
<path fill="#0382FF" opacity="1.000000" stroke="none" 
	d="
M647.381104,609.000244 
	C647.380432,619.992126 647.434204,630.484375 647.360962,640.975708 
	C647.306702,648.748230 644.115295,651.944092 636.454102,651.950684 
	C606.144348,651.976868 575.834534,651.975891 545.524780,651.951477 
	C537.865906,651.945312 534.525635,648.729370 534.516357,641.043274 
	C534.465332,598.742859 534.463989,556.442261 534.520020,514.141907 
	C534.529846,506.723022 537.825806,503.389557 545.208374,503.371796 
	C575.684509,503.298584 606.161072,503.299683 636.637207,503.370331 
	C644.270325,503.388031 647.351135,506.676727 647.361572,514.573181 
	C647.403076,545.882141 647.380188,577.191223 647.381104,609.000244 
M628.483398,569.477966 
	C632.421814,568.242310 635.024414,565.915527 634.068237,561.449524 
	C633.177185,557.287781 629.784302,556.124268 626.091553,556.113831 
	C601.484802,556.044006 576.877563,556.036072 552.270752,556.105042 
	C547.001160,556.119812 543.403442,559.120789 543.449158,562.982178 
	C543.494446,566.815247 547.125854,569.835144 552.349426,569.840271 
	C577.452148,569.864868 602.555115,569.768066 628.483398,569.477966 
M584.499817,525.993164 
	C573.353088,525.993469 562.206116,525.959045 551.059631,526.010193 
	C546.206421,526.032471 543.484924,528.456421 543.400208,532.590332 
	C543.313416,536.828064 546.287476,539.657593 551.185059,539.733704 
	C557.339233,539.829346 563.496033,539.760193 569.651672,539.758972 
	C580.465698,539.756714 591.280884,539.846069 602.093140,539.704590 
	C606.765808,539.643433 609.289124,536.840698 608.999268,532.425537 
	C608.717102,528.128357 606.642639,525.776550 601.968506,525.946411 
	C596.485596,526.145508 590.989807,525.993103 584.499817,525.993164 
M574.499939,599.175659 
	C583.490173,599.174500 592.480835,599.223206 601.470520,599.152649 
	C606.538330,599.112915 608.938293,596.923157 609.020325,592.564148 
	C609.103333,588.151550 606.732483,585.652344 601.785950,585.623169 
	C584.804993,585.522949 567.822815,585.531860 550.841675,585.615967 
	C545.939392,585.640259 543.325134,588.226501 543.413818,592.417664 
	C543.499756,596.482300 546.349365,599.101868 551.024475,599.150635 
	C558.515503,599.228821 566.007996,599.174133 574.499939,599.175659 
z"/>
<path fill="#0482FF" opacity="1.000000" stroke="none" 
	d="
M301.974670,408.944275 
	C301.671906,413.068420 301.692780,416.763641 301.013702,420.325348 
	C299.719604,427.113068 294.610046,430.967712 287.439575,431.062286 
	C279.943268,431.161194 273.876190,427.431061 273.311951,420.516083 
	C272.480286,410.323730 272.444092,399.966125 273.260254,389.774292 
	C273.821716,382.763336 279.847412,378.951996 287.239136,378.998657 
	C294.674194,379.045593 299.854126,382.802124 300.962585,390.097656 
	C301.878967,396.129211 301.684509,402.329529 301.974670,408.944275 
z"/>
<path fill="#0382FF" opacity="1.000000" stroke="none" 
	d="
M377.179321,425.711304 
	C373.840668,431.528046 370.740295,433.055176 364.745972,432.057526 
	C359.420471,431.171173 357.170837,427.388123 356.853638,422.578613 
	C356.529755,417.666595 356.460083,412.639313 357.146240,407.785034 
	C357.944824,402.135651 361.616302,399.585236 367.262482,399.581787 
	C372.895752,399.578400 377.322540,402.579803 377.802368,408.070679 
	C378.299927,413.764771 377.530731,419.569519 377.179321,425.711304 
z"/>
<path fill="#0F87FF" opacity="1.000000" stroke="none" 
	d="
M550.996704,409.608521 
	C547.538086,409.608490 544.559021,409.608490 541.368469,409.608490 
	C540.228821,404.824097 541.386169,400.567566 545.174927,398.569427 
	C548.009644,397.074463 552.371887,396.719604 555.403320,397.757416 
	C560.175598,399.391235 561.155640,404.116150 560.883423,409.608582 
	C557.662964,409.608582 554.569641,409.608582 550.996704,409.608521 
z"/>
<path fill="#0F87FF" opacity="1.000000" stroke="none" 
	d="
M214.977936,398.949799 
	C216.553238,402.269897 217.851654,405.338013 219.491165,409.212097 
	C211.627609,409.212097 205.096817,409.212097 198.172043,409.212097 
	C198.126205,404.654602 199.003342,400.519653 203.074341,397.995880 
	C206.955414,395.589813 210.976395,395.945129 214.977936,398.949799 
z"/>
<path fill="#F9FCFF" opacity="1.000000" stroke="none" 
	d="
M628.070679,569.596130 
	C602.555115,569.768066 577.452148,569.864868 552.349426,569.840271 
	C547.125854,569.835144 543.494446,566.815247 543.449158,562.982178 
	C543.403442,559.120789 547.001160,556.119812 552.270752,556.105042 
	C576.877563,556.036072 601.484802,556.044006 626.091553,556.113831 
	C629.784302,556.124268 633.177185,557.287781 634.068237,561.449524 
	C635.024414,565.915527 632.421814,568.242310 628.070679,569.596130 
z"/>
<path fill="#F8FCFF" opacity="1.000000" stroke="none" 
	d="
M584.999756,525.993164 
	C590.989807,525.993103 596.485596,526.145508 601.968506,525.946411 
	C606.642639,525.776550 608.717102,528.128357 608.999268,532.425537 
	C609.289124,536.840698 606.765808,539.643433 602.093140,539.704590 
	C591.280884,539.846069 580.465698,539.756714 569.651672,539.758972 
	C563.496033,539.760193 557.339233,539.829346 551.185059,539.733704 
	C546.287476,539.657593 543.313416,536.828064 543.400208,532.590332 
	C543.484924,528.456421 546.206421,526.032471 551.059631,526.010193 
	C562.206116,525.959045 573.353088,525.993469 584.999756,525.993164 
z"/>
<path fill="#FEFEFF" opacity="1.000000" stroke="none" 
	d="
M573.999878,599.175659 
	C566.007996,599.174133 558.515503,599.228821 551.024475,599.150635 
	C546.349365,599.101868 543.499756,596.482300 543.413818,592.417664 
	C543.325134,588.226501 545.939392,585.640259 550.841675,585.615967 
	C567.822815,585.531860 584.804993,585.522949 601.785950,585.623169 
	C606.732483,585.652344 609.103333,588.151550 609.020325,592.564148 
	C608.938293,596.923157 606.538330,599.112915 601.470520,599.152649 
	C592.480835,599.223206 583.490173,599.174500 573.999878,599.175659 
z"/>
</svg>