<?xml version="1.0" standalone="no"?>
<!DOCTYPE svg PUBLIC "-//W3C//DTD SVG 20010904//EN"
 "http://www.w3.org/TR/2001/REC-SVG-20010904/DTD/svg10.dtd">
<svg version="1.0" xmlns="http://www.w3.org/2000/svg"
 width="2000.000000pt" height="1500.000000pt" viewBox="0 0 2000.000000 1500.000000"
 preserveAspectRatio="xMidYMid meet">

<g transform="translate(0.000000,1500.000000) scale(0.100000,-0.100000)"
fill="#000000" stroke="none">
<path d="M0 7500 l0 -7500 10000 0 10000 0 0 7500 0 7500 -10000 0 -10000 0 0
-7500z m10111 3640 c472 -48 882 -302 1107 -685 127 -217 181 -462 161 -733
-28 -369 -185 -913 -393 -1355 l-55 -117 -210 0 -210 0 79 153 c127 245 224
488 301 758 112 391 146 689 100 883 -128 537 -760 868 -1338 700 -400 -116
-685 -432 -722 -803 -26 -257 81 -746 261 -1191 51 -125 173 -377 223 -457
l26 -43 -224 0 -224 0 -38 78 c-249 508 -435 1225 -411 1580 16 237 81 427
212 624 248 373 693 603 1190 616 34 1 108 -3 165 -8z m-7 -3356 c13 -12 16
-39 16 -125 0 -61 -5 -119 -10 -130 -10 -18 -23 -19 -175 -19 -152 0 -165 1
-175 19 -5 11 -10 69 -10 130 0 86 3 113 16 125 23 23 315 23 338 0z m4118 -1
c15 -14 18 -32 18 -126 0 -153 7 -147 -186 -147 -141 0 -154 2 -164 19 -5 11
-10 69 -10 130 0 86 3 113 16 125 23 24 299 23 326 -1z m-7667 -57 c143 -38
266 -124 335 -233 17 -26 43 -84 58 -128 26 -79 26 -83 27 -360 0 -242 -3
-289 -18 -345 -57 -200 -188 -325 -402 -381 -103 -27 -304 -30 -415 -5 -172
37 -310 137 -375 270 -63 128 -69 171 -68 456 0 278 10 346 66 457 74 145 228
248 422 283 74 13 300 5 370 -14z m1687 7 c17 -15 18 -51 18 -718 0 -589 -2
-704 -14 -721 -13 -17 -29 -19 -143 -22 -158 -3 -176 3 -183 70 l-5 46 -33
-33 c-77 -76 -219 -114 -354 -95 -184 26 -307 143 -355 337 -21 87 -23 332 -4
418 32 144 115 261 223 316 151 76 354 57 477 -46 l31 -27 0 230 c0 196 2 233
16 246 23 24 299 23 326 -1z m3802 -5 c13 -18 16 -55 16 -195 l0 -173 133 0
c179 0 177 2 177 -137 0 -147 4 -143 -172 -143 l-138 0 0 -210 c0 -224 7 -267
48 -289 12 -6 68 -11 127 -11 99 0 107 -2 130 -25 23 -22 25 -31 25 -125 0
-94 -2 -103 -25 -125 -22 -23 -32 -25 -117 -25 -128 0 -257 16 -321 40 -66 25
-129 77 -163 136 -47 80 -54 129 -54 392 l0 242 -92 0 c-125 0 -128 3 -128
137 0 137 5 143 130 143 l90 0 0 185 c0 165 2 185 18 194 9 6 81 11 159 11
135 0 143 -1 157 -22z m2759 10 c15 -12 17 -49 19 -370 l3 -356 130 145 c72
79 145 158 163 174 l33 29 159 0 c170 0 190 -6 190 -53 -1 -14 -67 -93 -190
-226 -105 -112 -190 -206 -190 -210 0 -3 97 -123 215 -266 132 -160 214 -268
215 -282 0 -44 -33 -53 -186 -53 -77 0 -155 5 -173 11 -23 8 -77 66 -199 213
l-167 201 -5 -200 -5 -199 -25 -13 c-16 -8 -69 -13 -148 -13 -117 0 -124 1
-147 25 l-25 24 0 693 c0 612 2 696 16 716 14 21 22 22 158 22 98 0 147 -4
159 -12z m-9638 -381 c225 -62 364 -263 365 -529 0 -56 -4 -81 -16 -92 -13
-14 -60 -16 -355 -16 l-339 0 0 -31 c0 -55 23 -112 61 -150 67 -67 156 -60
239 17 l47 44 155 0 c106 0 158 -4 166 -12 36 -36 -13 -139 -100 -208 -106
-84 -228 -122 -393 -123 -283 -1 -465 123 -525 357 -25 99 -28 292 -5 381 50
197 188 330 383 370 79 17 241 13 317 -8z m5885 -6 c208 -65 326 -233 346
-494 6 -71 4 -90 -10 -112 l-16 -25 -346 0 -345 0 6 -37 c11 -68 36 -122 69
-151 68 -59 156 -50 231 24 l46 44 161 -2 c137 -3 162 -5 171 -20 33 -51 -72
-189 -191 -252 -93 -48 -184 -69 -312 -69 -118 0 -186 13 -277 53 -113 51
-194 144 -239 276 -24 70 -27 95 -28 214 -1 149 10 210 55 305 66 141 194 234
367 265 74 14 238 4 312 -19z m2342 2 c104 -41 185 -122 230 -233 22 -53 23
-67 26 -436 3 -349 2 -382 -14 -395 -12 -10 -55 -15 -160 -17 -142 -3 -144 -3
-169 22 l-25 25 0 324 c0 318 0 325 -23 367 -30 56 -74 80 -150 80 -75 0 -121
-22 -155 -73 l-27 -40 -5 -338 c-4 -259 -8 -341 -18 -351 -10 -10 -54 -13
-168 -13 -143 0 -157 2 -170 19 -12 17 -14 105 -14 527 l0 508 22 15 c18 13
51 16 153 16 158 0 175 -7 175 -76 l0 -45 43 34 c95 78 195 109 322 102 45 -2
102 -12 127 -22z m-4654 -10 c13 -12 62 -130 133 -323 61 -168 114 -310 118
-317 3 -7 58 128 121 300 69 188 124 321 137 334 21 22 30 23 153 23 72 0 140
-5 151 -10 11 -6 19 -21 19 -36 0 -30 -395 -1003 -416 -1024 -22 -23 -296 -22
-319 1 -9 8 -108 241 -221 518 -209 513 -213 527 -172 544 7 3 72 6 144 6 112
1 135 -2 152 -16z m1362 -3 c20 -20 20 -33 20 -554 0 -316 -4 -555 -10 -586
-41 -216 -199 -320 -484 -320 -124 0 -126 3 -126 141 0 133 4 139 98 139 81 0
111 14 134 60 16 32 18 81 18 568 0 519 1 533 20 552 18 18 33 20 165 20 132
0 147 -2 165 -20z m4116 6 c18 -14 19 -33 22 -520 l3 -506 -26 -26 c-25 -25
-27 -25 -166 -22 -126 3 -142 5 -155 22 -12 17 -14 105 -14 523 0 490 1 504
20 523 18 18 33 20 158 20 104 0 143 -4 158 -14z m-6363 -1983 c-54 -118 -119
-294 -159 -428 -19 -66 -45 -151 -57 -190 -32 -102 -31 -307 1 -420 46 -160
147 -302 246 -345 86 -39 526 -135 836 -184 425 -67 669 -86 1173 -93 l427 -6
0 734 c0 429 4 759 10 793 11 68 47 148 85 189 l26 27 1102 -2 1101 -3 36 -47
c19 -26 44 -69 55 -95 19 -47 20 -78 23 -1207 1 -757 -1 -1179 -8 -1215 -23
-130 -107 -239 -228 -298 l-57 -28 -907 -3 c-872 -2 -909 -2 -962 17 -112 39
-204 127 -247 238 -21 53 -23 79 -27 295 l-4 237 -212 -6 c-661 -18 -1484 79
-2175 258 -196 50 -286 95 -386 193 -177 175 -278 411 -300 711 -15 199 48
473 194 848 l43 107 203 0 204 0 -36 -77z"/>
<path d="M6283 7439 c-89 -17 -152 -74 -178 -161 -22 -76 -22 -487 1 -555 22
-66 48 -98 100 -129 97 -57 227 -42 305 36 67 67 74 104 73 385 0 248 -6 281
-59 351 -45 59 -150 91 -242 73z"/>
<path d="M7610 7068 c-45 -31 -67 -78 -81 -170 -8 -56 -8 -98 0 -158 19 -144
70 -200 181 -200 76 0 126 30 159 93 20 41 25 67 29 158 9 216 -46 299 -196
299 -45 0 -67 -5 -92 -22z"/>
<path d="M4951 7140 c-71 -16 -118 -74 -128 -159 l-6 -51 172 0 c194 0 185 -5
160 85 -27 96 -105 145 -198 125z"/>
<path d="M10835 7145 c-5 -2 -22 -6 -36 -9 -55 -12 -98 -76 -114 -168 l-6 -38
175 0 174 0 -5 43 c-7 62 -40 123 -76 145 -30 18 -90 33 -112 27z"/>
<path d="M10640 5284 c-64 -54 -60 30 -60 -1241 0 -1138 0 -1159 20 -1191 11
-18 34 -41 52 -52 32 -19 52 -20 888 -20 836 0 856 1 888 20 18 11 41 34 52
52 20 33 20 49 18 1206 l-3 1173 -42 40 -42 39 -870 0 -869 0 -32 -26z m1181
-382 c24 -27 29 -41 29 -85 0 -32 -6 -61 -16 -76 -35 -50 -49 -51 -546 -51
-522 0 -516 -1 -552 73 -32 66 1 147 67 166 18 5 237 9 510 8 l479 -2 29 -33z
m412 -506 c55 -38 71 -98 38 -152 -40 -66 -16 -64 -768 -64 -638 0 -680 1
-712 18 -69 37 -87 117 -38 170 48 53 31 52 767 49 654 -2 686 -3 713 -21z
m-461 -486 c53 -15 78 -51 78 -114 0 -31 -6 -61 -16 -75 -35 -50 -49 -51 -546
-51 -522 0 -516 -1 -552 73 -32 66 1 147 67 166 45 13 922 14 969 1z"/>
</g>
</svg>
