<?xml version="1.0" encoding="UTF-8"?>
<!DOCTYPE svg PUBLIC "-//W3C//DTD SVG 1.0//EN" "http://www.w3.org/TR/2001/REC-SVG-20010904/DTD/svg10.dtd">
<!-- Creator: CorelDRAW 2020 (64-Bit) -->
<svg xmlns="http://www.w3.org/2000/svg" xml:space="preserve" width="84.6666mm" height="84.6666mm" version="1.0" style="shape-rendering:geometricPrecision; text-rendering:geometricPrecision; image-rendering:optimizeQuality; fill-rule:evenodd; clip-rule:evenodd"
viewBox="0 0 8466.66 8466.66"
 xmlns:xlink="http://www.w3.org/1999/xlink"
 xmlns:xodm="http://www.corel.com/coreldraw/odm/2003">
 <defs>
  <style type="text/css">
   <![CDATA[
    .fil2 {fill:#4C4B4B}
    .fil3 {fill:#784448}
    .fil0 {fill:#C43534}
    .fil1 {fill:#FEFEFE}
   ]]>
  </style>
 </defs>
 <g id="Layer_x0020_1">
  <metadata id="CorelCorpID_0Corel-Layer"/>
  <g id="_1220144499520">
   <path class="fil0" d="M3199.89 6129.78l2.09 -1.99 2.35 -1.9 1.09 -1.85 -1.09 1.85 -2.35 1.9 -2.09 1.99c-7.34,8.91 -51.11,44.96 -62.36,54.22 -87.7,72.19 -184.81,134.91 -292.37,172.74 -29.49,10.36 -58.42,18.36 -90.71,26.3 -61.9,15.24 -136.15,27.59 -204.44,30.53 -323.23,13.89 -548.7,-50.49 -722.46,-206.83 -119.56,-107.57 -201.95,-293.41 -231.94,-466.24 -46.02,-265.22 -38.13,-565.46 81.08,-803.42 12.25,-24.45 27.29,-52.49 41.16,-75.27 11.01,-18.09 35.06,-57.88 47.45,-69.68 7.19,-13.62 15.39,-22.2 24.87,-33.76 9.36,-11.42 17.15,-19.82 26.49,-30.68 40.01,-46.56 147.68,-134.07 197.34,-151.9 18.76,-12.96 52.5,-27.76 75.95,-38.37 28.15,-12.73 55.55,-22.66 84.01,-32.19 59.73,-20.02 124.58,-32.92 191.88,-41 -14.57,-255.69 2.54,-519.31 41.73,-767.12 35.82,-226.45 105.53,-439.35 194.25,-624.82 29.66,-62.01 73.62,-138.35 110.58,-194.16 22.93,-34.62 61.75,-90.16 86.02,-119.36 7.16,-8.61 16,-18.92 22.86,-27.97l124.52 -131.59c13.17,-14.64 64.47,-57.57 81.36,-71.02 70.56,-56.18 99.51,-74.96 181.03,-125.84 65.47,-40.86 171.25,-90.85 242.02,-117.79 213.19,-81.13 436.72,-121.39 689.39,-127.63 252.21,-6.22 501.32,23.4 728.14,90.99 106.07,31.61 199.28,72.81 288.83,119.67 70.75,37.02 167.05,101.34 228.17,154.95 5.28,4.63 10.41,7.29 15.6,11.96l128.04 125.81 69.69 84.89c333.23,433.44 409.37,1090.98 380.74,1657.41 -18.92,374.49 -74.82,674.67 -224.04,1003.53 -52.06,114.71 -117.82,219.22 -194.04,318.11l-45.45 56.28c-16.9,20.83 -80.2,86.04 -100.76,104.54l-122.79 105.74c-202.28,150.37 -424.52,249.06 -700.12,299.08 -408.13,74.07 -865.02,61.05 -1254.51,-92.04 -24.43,-9.61 -47.15,-20.03 -70.93,-30.67 -12.38,-5.55 -22.73,-10.58 -34.22,-16.54l-25.65 -12.52c-10.17,-5.19 -6.41,0.34 -6.41,-8.34zm-2098.4 160.95c4.76,117.76 26.5,231.45 65.55,333.04 32.68,85.03 70.94,157.5 122.19,229.18l90.26 110.87c9.42,8.18 15.51,15.88 24.22,24.46 29.91,29.46 45.09,44.34 79.03,71.23 28.22,22.34 56.11,43.56 87,63.28 159.79,102.01 338.2,159.78 535.75,163.38 132.61,2.41 267.22,0.27 400.05,0.27l3600.44 -0.09c132.29,0 268.21,3.05 400.05,-0.42 251.34,-6.63 463.9,-98.35 647.7,-254.4l50.69 -48.77c23.16,-23.95 38.92,-39.87 59.43,-65.51 4.08,-5.11 8.04,-9.04 11.7,-13.65 36.21,-45.61 73.58,-97.55 100.18,-149.51 77.2,-150.79 123.31,-293.07 125.18,-473.94 1.38,-133.14 0.25,-266.84 0.25,-400.05l0 -3600.44c0,-132.3 1.76,-265.79 -0.4,-397.94 -2.61,-159.7 -52.75,-337.99 -129.72,-471.29 -31.16,-53.95 -43.73,-71.52 -78.87,-120.11 -7.43,-10.28 -15.67,-18.49 -22.54,-28.27 -7.22,-10.28 -16.23,-17.91 -23.4,-27.4l-47.76 -51.7c-186.9,-181.69 -431.06,-290.18 -703.01,-295.94 -132.37,-2.81 -267.4,-0.34 -400.06,-0.34l-3600.44 0c-132.35,0 -268.12,-2.95 -400.05,0.6 -196.18,5.28 -374.06,64.02 -532.28,167.89 -52.91,34.73 -80.19,56.73 -127.43,99.09l-62.72 62.16c-24.74,28.61 -41.94,46.82 -67.36,80.83 -124.35,166.35 -200.29,374.5 -203.74,595.04 -2.08,132.83 -0.27,267.09 -0.27,400.08l0 3799.41c0,65.12 -2.24,134.33 0.38,198.96z"/>
   <path class="fil1" d="M4133.66 2507.45c93.76,-4.61 200.57,10.4 280.18,41.91 82.9,32.81 115.29,55.89 178.89,104.86 24.97,19.23 79.42,78.87 99.51,103.58 48.13,59.19 90.58,133.93 123.54,202.44 163.17,339.1 208.63,846.04 213.95,1245.66 2.76,206.74 -1.19,418.29 -23.47,622.5 -34.99,320.62 -99.79,664.41 -304.97,914.93 -32.02,39.09 -45.79,50.29 -80.76,82.26 -43.08,39.4 -90,73.08 -143.85,97.42 -165.18,74.67 -378.06,79.15 -546.56,14.19 -105.61,-40.71 -189.33,-100.86 -262.12,-184.57 -34.25,-39.4 -41.02,-49.79 -70.86,-92.1 -43.14,-61.17 -94.23,-167.89 -121.34,-242.7 -124.8,-344.36 -158.23,-741.95 -163.47,-1133.69 -5.09,-381.03 17.78,-826.38 130.81,-1168.47 51.29,-155.25 121.67,-299.22 234.98,-414.84 102.66,-104.76 243.91,-182.97 455.54,-193.38zm-1767.82 1956.78c168.73,-9.47 276.02,-17.05 443.56,32.55 62.07,18.37 122.18,44.2 171.79,73.71 37.82,22.49 43.65,29.55 73.18,49.59 16.95,11.5 53.28,46.11 64.84,59.99l54.47 68.35c46.77,60.87 94.54,179.42 115.32,255.15 33.85,123.36 60.28,303.37 55.09,438.64l-774.48 0.17c1.47,26.76 96.96,190.74 128.96,238.36 8.91,13.26 16.79,24.36 24.78,36.64l110.14 135.32c31.52,37.23 56.36,58.4 92.01,92.1 8.2,7.75 56.16,49.2 66.44,53.52 6.99,-2.87 49.35,-37.36 57.31,-44.45l53.47 -48.11c8.25,-7.79 27.78,-30.54 36.62,-34.52 10.35,18.47 40.72,43.51 56.96,63.12 15.73,18.99 91.23,95.62 96.2,106.49l-64.28 62.44c-9.03,8.37 -12.31,13.26 -22.8,20.75l-1.09 1.85 -2.35 1.9 -2.09 1.99c0,8.68 -3.76,3.15 6.41,8.34l25.65 12.52c11.49,5.96 21.84,10.99 34.22,16.54 23.78,10.64 46.5,21.06 70.93,30.67 389.49,153.09 846.38,166.11 1254.51,92.04 275.6,-50.02 497.84,-148.71 700.12,-299.08l122.79 -105.74c20.56,-18.5 83.86,-83.71 100.76,-104.54l45.45 -56.28c76.22,-98.89 141.98,-203.4 194.04,-318.11 149.22,-328.86 205.12,-629.04 224.04,-1003.53 28.63,-566.43 -47.51,-1223.97 -380.74,-1657.41l-69.69 -84.89 -128.04 -125.81c-5.19,-4.67 -10.32,-7.33 -15.6,-11.96 -61.12,-53.61 -157.42,-117.93 -228.17,-154.95 -89.55,-46.86 -182.76,-88.06 -288.83,-119.67 -226.82,-67.59 -475.93,-97.21 -728.14,-90.99 -252.67,6.24 -476.2,46.5 -689.39,127.63 -70.77,26.94 -176.55,76.93 -242.02,117.79 -81.52,50.88 -110.47,69.66 -181.03,125.84 -16.89,13.45 -68.19,56.38 -81.36,71.02l-124.52 131.59c-6.86,9.05 -15.7,19.36 -22.86,27.97 -24.27,29.2 -63.09,84.74 -86.02,119.36 -36.96,55.81 -80.92,132.15 -110.58,194.16 -88.72,185.47 -158.43,398.37 -194.25,624.82 -39.19,247.81 -56.3,511.43 -41.73,767.12z"/>
   <path class="fil0" d="M4133.66 2507.45c-211.63,10.41 -352.88,88.62 -455.54,193.38 -113.31,115.62 -183.69,259.59 -234.98,414.84 -113.03,342.09 -135.9,787.44 -130.81,1168.47 5.24,391.74 38.67,789.33 163.47,1133.69 27.11,74.81 78.2,181.53 121.34,242.7 29.84,42.31 36.61,52.7 70.86,92.1 72.79,83.71 156.51,143.86 262.12,184.57 168.5,64.96 381.38,60.48 546.56,-14.19 53.85,-24.34 100.77,-58.02 143.85,-97.42 34.97,-31.97 48.74,-43.17 80.76,-82.26 205.18,-250.52 269.98,-594.31 304.97,-914.93 22.28,-204.21 26.23,-415.76 23.47,-622.5 -5.32,-399.62 -50.78,-906.56 -213.95,-1245.66 -32.96,-68.51 -75.41,-143.25 -123.54,-202.44 -20.09,-24.71 -74.54,-84.35 -99.51,-103.58 -63.6,-48.97 -95.99,-72.05 -178.89,-104.86 -79.61,-31.51 -186.42,-46.52 -280.18,-41.91z"/>
   <path class="fil2" d="M2380.6 4675.18c15.06,-13.56 77.47,-20.45 103.84,-19.93 76.49,1.51 142.19,34.69 186.62,94.09 83.03,111.03 104.45,342.15 105.94,485.84l-287.82 -0.55c-31.9,2.27 -340.45,2.09 -348.39,-1.49 -4.91,-4.61 1.03,-36.31 1.55,-45.19 2.45,-42.02 10.34,-93.93 17.35,-133.55 17.78,-100.5 50.67,-209.32 111.68,-289.01 23.56,-30.76 66.23,-75.98 109.23,-90.21zm-14.76 -210.95c-67.3,8.08 -132.15,20.98 -191.88,41 -28.46,9.53 -55.86,19.46 -84.01,32.19 -23.45,10.61 -57.19,25.41 -75.95,38.37 -5.62,6.59 -7.57,6.24 -15.17,10.21l-5.35 3.06c-0.39,0.23 -0.91,0.57 -1.29,0.82l-49.98 32.67c-47.64,34.37 -83.86,64.87 -123.08,107.54l-14.17 15.49c-10.42,12.29 -31.82,41.88 -39.66,46.55 -12.39,11.8 -36.44,51.59 -47.45,69.68 -13.87,22.78 -28.91,50.82 -41.16,75.27 -119.21,237.96 -127.1,538.2 -81.08,803.42 29.99,172.83 112.38,358.67 231.94,466.24 173.76,156.34 399.23,220.72 722.46,206.83 68.29,-2.94 142.54,-15.29 204.44,-30.53 32.29,-7.94 61.22,-15.94 90.71,-26.3 107.56,-37.83 204.67,-100.55 292.37,-172.74 11.25,-9.26 55.02,-45.31 62.36,-54.22l2.09 -1.99 2.35 -1.9 1.09 -1.85c10.49,-7.49 13.77,-12.38 22.8,-20.75l64.28 -62.44c-4.97,-10.87 -80.47,-87.5 -96.2,-106.49 -16.24,-19.61 -46.61,-44.65 -56.96,-63.12 -8.84,3.98 -28.37,26.73 -36.62,34.52l-53.47 48.11c-7.96,7.09 -50.32,41.58 -57.31,44.45 -5.24,6.4 -52.36,34.98 -62.75,40.98 -69.91,40.35 -152.97,65.68 -237.47,73.43 -184.8,16.95 -348.39,-30.33 -447.33,-168.27 -83.33,-116.15 -111.01,-309.03 -114.99,-451.65 -1.73,-61.85 -7.59,-50.36 54.41,-50.36 18.34,0 36.69,0 55.03,0 102.31,0 235.7,-3.49 330.77,-0.07l774.48 -0.17c5.19,-135.27 -21.24,-315.28 -55.09,-438.64 -20.78,-75.73 -68.55,-194.28 -115.32,-255.15l-54.47 -68.35c-11.56,-13.88 -47.89,-48.49 -64.84,-59.99 -29.53,-20.04 -35.36,-27.1 -73.18,-49.59 -49.61,-29.51 -109.72,-55.34 -171.79,-73.71 -167.54,-49.6 -274.83,-42.02 -443.56,-32.55z"/>
   <path class="fil0" d="M2991.94 5998.32c-10.28,-4.32 -58.24,-45.77 -66.44,-53.52 -35.65,-33.7 -60.49,-54.87 -92.01,-92.1l-110.14 -135.32c-7.99,-12.28 -15.87,-23.38 -24.78,-36.64 -32,-47.62 -127.49,-211.6 -128.96,-238.36 -95.07,-3.42 -228.46,0.07 -330.77,0.07 -18.34,0 -36.69,0 -55.03,0 -62,0 -56.14,-11.49 -54.41,50.36 3.98,142.62 31.66,335.5 114.99,451.65 98.94,137.94 262.53,185.22 447.33,168.27 84.5,-7.75 167.56,-33.08 237.47,-73.43 10.39,-6 57.51,-34.58 62.75,-40.98z"/>
   <path class="fil1" d="M2380.6 4675.18c1.36,45.57 11,105.05 17.55,149.9 17.91,122.6 38.85,226.89 72.28,345.18 5.96,21.08 13.75,43.31 18.75,64.37l287.82 0.55c-1.49,-143.69 -22.91,-374.81 -105.94,-485.84 -44.43,-59.4 -110.13,-92.58 -186.62,-94.09 -26.37,-0.52 -88.78,6.37 -103.84,19.93z"/>
   <path class="fil0" d="M2489.18 5234.63c-5,-21.06 -12.79,-43.29 -18.75,-64.37 -33.43,-118.29 -54.37,-222.58 -72.28,-345.18 -6.55,-44.85 -16.19,-104.33 -17.55,-149.9 -43,14.23 -85.67,59.45 -109.23,90.21 -61.01,79.69 -93.9,188.51 -111.68,289.01 -7.01,39.62 -14.9,91.53 -17.35,133.55 -0.52,8.88 -6.46,40.58 -1.55,45.19 7.94,3.58 316.49,3.76 348.39,1.49z"/>
   <path class="fil3" d="M1765.3 4792.13c7.84,-4.67 29.24,-34.26 39.66,-46.55l14.17 -15.49c39.22,-42.67 75.44,-73.17 123.08,-107.54l49.98 -32.67c0.38,-0.25 0.9,-0.59 1.29,-0.82l5.35 -3.06c7.6,-3.97 9.55,-3.62 15.17,-10.21 -49.66,17.83 -157.33,105.34 -197.34,151.9 -9.34,10.86 -17.13,19.26 -26.49,30.68 -9.48,11.56 -17.68,20.14 -24.87,33.76z"/>
  </g>
 </g>
</svg>
