<?xml version="1.0" encoding="UTF-8"?>
<!DOCTYPE svg PUBLIC "-//W3C//DTD SVG 1.0//EN" "http://www.w3.org/TR/2001/REC-SVG-20010904/DTD/svg10.dtd">
<!-- Creator: CorelDRAW 2020 (64-Bit) -->
<svg xmlns="http://www.w3.org/2000/svg" xml:space="preserve" width="210mm" height="297mm" version="1.0" style="shape-rendering:geometricPrecision; text-rendering:geometricPrecision; image-rendering:optimizeQuality; fill-rule:evenodd; clip-rule:evenodd"
viewBox="0 0 21000 29700"
 xmlns:xlink="http://www.w3.org/1999/xlink"
 xmlns:xodm="http://www.corel.com/coreldraw/odm/2003">
 <defs>
  <style type="text/css">
   <![CDATA[
    .fil0 {fill:none}
   ]]>
  </style>
 </defs>
 <g id="Layer_x0020_1">
  <metadata id="CorelCorpID_0Corel-Layer"/>
  <path class="fil0" d="M28.14 23840.68c15.65,387.01 87.09,760.64 215.43,1094.5 107.39,279.44 233.13,517.61 401.56,753.17l296.63 364.37c30.96,26.88 50.97,52.18 79.59,80.38 98.3,96.82 148.19,145.72 259.73,234.09 92.74,73.42 184.4,143.16 285.91,207.96 525.13,335.25 1111.46,525.1 1760.68,536.93 435.81,7.92 878.19,0.89 1314.72,0.89l11832.43 -0.3c434.76,0 881.44,10.03 1314.72,-1.38 826,-21.79 1524.55,-323.21 2128.59,-836.05l166.59 -160.28c76.11,-78.71 127.9,-131.03 195.31,-215.29 13.41,-16.79 26.42,-29.71 38.45,-44.86 119,-149.89 241.81,-320.59 329.23,-491.35 253.71,-495.55 405.24,-963.14 411.39,-1557.55 4.53,-437.55 0.82,-876.94 0.82,-1314.71l0 -11832.44c0,-434.78 5.78,-873.48 -1.31,-1307.78 -8.58,-524.84 -173.36,-1110.76 -426.31,-1548.84 -102.41,-177.3 -143.72,-235.04 -259.2,-394.73 -24.42,-33.78 -51.5,-60.76 -74.08,-92.9 -23.72,-33.79 -53.33,-58.86 -76.9,-90.05l-156.96 -169.91c-614.22,-597.1 -1416.62,-953.64 -2310.36,-972.57 -435.02,-9.23 -878.78,-1.12 -1314.75,-1.12l-11832.43 0c-434.95,0 -881.14,-9.69 -1314.72,1.98 -644.72,17.35 -1229.3,210.39 -1749.27,551.75 -173.89,114.13 -263.54,186.43 -418.79,325.64l-206.12 204.29c-81.31,94.02 -137.83,153.86 -221.37,265.63 -408.66,546.69 -658.23,1230.76 -669.57,1955.53 -6.83,436.54 -0.89,877.77 -0.89,1314.82l0 12486.32c0,214.01 -7.36,441.46 1.25,653.86z"/>
 </g>
</svg>
