<?xml version="1.0" encoding="UTF-8"?>
<!DOCTYPE svg PUBLIC "-//W3C//DTD SVG 1.0//EN" "http://www.w3.org/TR/2001/REC-SVG-20010904/DTD/svg10.dtd">
<!-- Creator: CorelDRAW 2020 (64-Bit) -->
<svg xmlns="http://www.w3.org/2000/svg" xml:space="preserve" width="84.6666mm" height="84.6666mm" version="1.0" style="shape-rendering:geometricPrecision; text-rendering:geometricPrecision; image-rendering:optimizeQuality; fill-rule:evenodd; clip-rule:evenodd"
viewBox="0 0 8466.66 8466.66"
 xmlns:xlink="http://www.w3.org/1999/xlink"
 xmlns:xodm="http://www.corel.com/coreldraw/odm/2003">
 <defs>
  <style type="text/css">
   <![CDATA[
    .str1 {stroke:white;stroke-width:423.33;stroke-miterlimit:22.9256}
    .str2 {stroke:black;stroke-width:127;stroke-miterlimit:22.9256}
    .str0 {stroke:black;stroke-width:12.69;stroke-miterlimit:10}
    .fil2 {fill:none;fill-rule:nonzero}
    .fil0 {fill:#C43534}
    .fil3 {fill:#4D4D4D;fill-rule:nonzero}
    .fil1 {fill:white;fill-rule:nonzero}
   ]]>
  </style>
    <clipPath id="id0" style="clip-rule:nonzero">
     <path d="M4209.92 8170.33c-1092.37,0 -1912.6,-319.72 -2460.69,-959.15 -548.08,-639.44 -822.13,-1596.69 -822.13,-2871.77 0,-835.44 131.31,-1551.01 397.74,-2142.86 266.44,-593.76 656.57,-1044.8 1174.21,-1353.1 515.74,-308.3 1130.43,-462.45 1844.09,-462.45 1111.4,0 1946.85,319.72 2504.46,957.26 557.61,635.62 835.46,1583.36 835.46,2839.4 0,702.24 -81.84,1305.51 -247.4,1809.83 -165.57,504.32 -401.56,917.28 -706.05,1240.81 -304.49,323.53 -669.88,561.41 -1094.27,713.66 -426.3,152.25 -900.17,228.37 -1425.42,228.37zm-1511.04 -3981.26c0,1122.82 135.11,1958.28 405.36,2506.36 268.33,548.1 681.3,822.14 1235.09,822.14 285.47,0 529.06,-76.13 728.89,-230.27 201.73,-156.06 363.48,-371.11 489.09,-647.05 123.7,-277.85 213.14,-605.18 266.43,-983.9 55.19,-380.62 81.83,-795.48 81.83,-1250.32 0,-738.4 -59,-1358.81 -176.98,-1859.32 -116.1,-498.61 -293.08,-877.32 -529.06,-1130.43 -235.99,-255.01 -538.58,-382.52 -905.87,-382.52 -538.58,0 -940.12,256.91 -1200.85,772.66 -262.62,513.82 -393.93,1309.31 -393.93,2382.65z"/>
    </clipPath>
    <clipPath id="id1" style="clip-rule:nonzero">
     <path d="M4209.92 8170.33c-1092.37,0 -1912.6,-319.72 -2460.69,-959.15 -548.08,-639.44 -822.13,-1596.69 -822.13,-2871.77 0,-835.44 131.31,-1551.01 397.74,-2142.86 266.44,-593.76 656.57,-1044.8 1174.21,-1353.1 515.74,-308.3 1130.43,-462.45 1844.09,-462.45 1111.4,0 1946.85,319.72 2504.46,957.26 557.61,635.62 835.46,1583.36 835.46,2839.4 0,702.24 -81.84,1305.51 -247.4,1809.83 -165.57,504.32 -401.56,917.28 -706.05,1240.81 -304.49,323.53 -669.88,561.41 -1094.27,713.66 -426.3,152.25 -900.17,228.37 -1425.42,228.37zm-1511.04 -3981.26c0,1122.82 135.11,1958.28 405.36,2506.36 268.33,548.1 681.3,822.14 1235.09,822.14 285.47,0 529.06,-76.13 728.89,-230.27 201.73,-156.06 363.48,-371.11 489.09,-647.05 123.7,-277.85 213.14,-605.18 266.43,-983.9 55.19,-380.62 81.83,-795.48 81.83,-1250.32 0,-738.4 -59,-1358.81 -176.98,-1859.32 -116.1,-498.61 -293.08,-877.32 -529.06,-1130.43 -235.99,-255.01 -538.58,-382.52 -905.87,-382.52 -538.58,0 -940.12,256.91 -1200.85,772.66 -262.62,513.82 -393.93,1309.31 -393.93,2382.65z"/>
    </clipPath>
    <clipPath id="id2" style="clip-rule:nonzero">
     <path d="M4209.92 8170.33c-1092.37,0 -1912.6,-319.72 -2460.69,-959.15 -548.08,-639.44 -822.13,-1596.69 -822.13,-2871.77 0,-835.44 131.31,-1551.01 397.74,-2142.86 266.44,-593.76 656.57,-1044.8 1174.21,-1353.1 515.74,-308.3 1130.43,-462.45 1844.09,-462.45 1111.4,0 1946.85,319.72 2504.46,957.26 557.61,635.62 835.46,1583.36 835.46,2839.4 0,702.24 -81.84,1305.51 -247.4,1809.83 -165.57,504.32 -401.56,917.28 -706.05,1240.81 -304.49,323.53 -669.88,561.41 -1094.27,713.66 -426.3,152.25 -900.17,228.37 -1425.42,228.37zm-1511.04 -3981.26c0,1122.82 135.11,1958.28 405.36,2506.36 268.33,548.1 681.3,822.14 1235.09,822.14 285.47,0 529.06,-76.13 728.89,-230.27 201.73,-156.06 363.48,-371.11 489.09,-647.05 123.7,-277.85 213.14,-605.18 266.43,-983.9 55.19,-380.62 81.83,-795.48 81.83,-1250.32 0,-738.4 -59,-1358.81 -176.98,-1859.32 -116.1,-498.61 -293.08,-877.32 -529.06,-1130.43 -235.99,-255.01 -538.58,-382.52 -905.87,-382.52 -538.58,0 -940.12,256.91 -1200.85,772.66 -262.62,513.82 -393.93,1309.31 -393.93,2382.65z"/>
    </clipPath>
 </defs>
 <g id="Layer_x0020_1">
  <metadata id="CorelCorpID_0Corel-Layer"/>
  <path class="fil0" d="M-11.02 7179.79c6.29,155.59 35.02,305.8 86.61,440.03 43.18,112.34 93.73,208.1 161.44,302.8l119.26 146.49c12.45,10.81 20.49,20.98 32,32.32 39.52,38.92 59.58,58.58 104.42,94.11 37.29,29.52 74.14,57.56 114.95,83.61 211.13,134.78 446.85,211.11 707.87,215.87 175.21,3.18 353.06,0.36 528.57,0.36l4757.11 -0.12c174.79,0 354.37,4.03 528.57,-0.56 332.08,-8.76 612.93,-129.94 855.78,-336.13l66.97 -64.43c30.6,-31.65 51.43,-52.68 78.53,-86.56 5.39,-6.75 10.62,-11.94 15.46,-18.03 47.84,-60.27 97.21,-128.89 132.36,-197.55 102,-199.23 162.92,-387.22 165.39,-626.19 1.83,-175.92 0.33,-352.57 0.33,-528.57l0 -4757.12c0,-174.8 2.33,-351.17 -0.52,-525.78 -3.45,-211 -69.7,-446.57 -171.4,-622.7 -41.17,-71.28 -57.78,-94.49 -104.21,-158.69 -9.81,-13.58 -20.7,-24.43 -29.78,-37.35 -9.54,-13.59 -21.44,-23.67 -30.91,-36.21l-63.11 -68.31c-246.94,-240.06 -569.54,-383.4 -928.86,-391.01 -174.89,-3.71 -353.3,-0.45 -528.58,-0.45l-4757.11 0c-174.87,0 -354.26,-3.9 -528.57,0.79 -259.21,6.98 -494.23,84.59 -703.28,221.83 -69.91,45.89 -105.95,74.96 -168.37,130.92l-82.87 82.13c-32.69,37.8 -55.41,61.87 -89,106.8 -164.3,219.79 -264.64,494.81 -269.19,786.2 -2.75,175.51 -0.36,352.9 -0.36,528.61l0 5020.01c0,86.04 -2.96,177.48 0.5,262.88z"/>
  <g>
   <g style="clip-path:url(#id0)">
   </g>
   <g style="clip-path:url(#id1)">
    <polygon class="fil1" points="881.94,352.77 7690.56,352.77 7690.56,8219.72 881.94,8219.72 "/>
    <path id="1" class="fil2 str0" d="M880.53 8221.13l116.2 0 -116.2 -201.27 201.27 -116.21 -201.27 -116.21 0 232.42m0 -232.42l116.2 -201.26 201.28 116.2 -116.21 201.27 232.41 0 -116.2 -201.27 201.26 -116.2 116.21 201.26 -201.27 116.21 201.27 116.21 -116.21 201.27 -201.26 -116.2 116.2 -201.28m-116.2 -317.47l0 116.2m0 518.75l0 -116.2m-201.28 116.2l201.28 -116.2 -116.21 -201.28m317.47 317.48l116.21 0m-116.21 -634.95l116.21 0m-634.95 0l116.2 0m518.75 433.68l0 -232.42"/>
    <path id="2" class="fil2 str0" d="M1515.53 8221.13l116.2 0 -116.2 -201.27 201.27 -116.21 -201.27 -116.21 0 232.42m0 -232.42l116.2 -201.26 201.28 116.2 -116.21 201.27 232.41 0 -116.2 -201.27 201.26 -116.2 116.21 201.26 -201.27 116.21 201.27 116.21 -116.21 201.27 -201.26 -116.2 116.2 -201.28m-116.2 -317.47l0 116.2m0 518.75l0 -116.2m-201.28 116.2l201.28 -116.2 -116.21 -201.28m317.47 317.48l116.21 0m-116.21 -634.95l116.21 0m-634.95 0l116.2 0m518.75 433.68l0 -232.42"/>
    <path id="3" class="fil2 str0" d="M2150.53 8221.13l116.2 0 -116.2 -201.27 201.27 -116.21 -201.27 -116.21 0 232.42m0 -232.42l116.2 -201.26 201.28 116.2 -116.21 201.27 232.41 0 -116.2 -201.27 201.26 -116.2 116.21 201.26 -201.27 116.21 201.27 116.21 -116.21 201.27 -201.26 -116.2 116.2 -201.28m-116.2 -317.47l0 116.2m0 518.75l0 -116.2m-201.28 116.2l201.28 -116.2 -116.21 -201.28m317.47 317.48l116.21 0m-116.21 -634.95l116.21 0m-634.95 0l116.2 0m518.75 433.68l0 -232.42"/>
    <path id="4" class="fil2 str0" d="M2785.53 8221.13l116.2 0 -116.2 -201.27 201.27 -116.21 -201.27 -116.21 0 232.42m0 -232.42l116.2 -201.26 201.28 116.2 -116.21 201.27 232.41 0 -116.2 -201.27 201.26 -116.2 116.21 201.26 -201.27 116.21 201.27 116.21 -116.21 201.27 -201.26 -116.2 116.2 -201.28m-116.2 -317.47l0 116.2m0 518.75l0 -116.2m-201.28 116.2l201.28 -116.2 -116.21 -201.28m317.47 317.48l116.21 0m-116.21 -634.95l116.21 0m-634.95 0l116.2 0m518.75 433.68l0 -232.42"/>
    <path id="5" class="fil2 str0" d="M3420.53 8221.13l116.2 0 -116.2 -201.27 201.27 -116.21 -201.27 -116.21 0 232.42m0 -232.42l116.2 -201.26 201.28 116.2 -116.21 201.27 232.42 0 -116.21 -201.27 201.27 -116.2 116.2 201.26 -201.26 116.21 201.26 116.21 -116.2 201.27 -201.27 -116.2 116.21 -201.28m-116.21 -317.47l0 116.2m0 518.75l0 -116.2m-201.28 116.2l201.28 -116.2 -116.21 -201.28m317.48 317.48l116.2 0m-116.2 -634.95l116.2 0m-634.95 0l116.2 0m518.75 433.68l0 -232.42"/>
    <path id="6" class="fil2 str0" d="M4055.53 8221.13l116.2 0 -116.2 -201.27 201.28 -116.21 -201.28 -116.21 0 232.42m0 -232.42l116.2 -201.26 201.28 116.2 -116.2 201.27 232.41 0 -116.21 -201.27 201.27 -116.2 116.2 201.26 -201.26 116.21 201.26 116.21 -116.2 201.27 -201.27 -116.2 116.21 -201.28m-116.21 -317.47l0 116.2m0 518.75l0 -116.2m-201.28 116.2l201.28 -116.2 -116.2 -201.28m317.47 317.48l116.2 0m-116.2 -634.95l116.2 0m-634.95 0l116.2 0m518.75 433.68l0 -232.42"/>
    <path id="7" class="fil2 str0" d="M4690.53 8221.13l116.21 0 -116.21 -201.27 201.28 -116.21 -201.28 -116.21 0 232.42m0 -232.42l116.21 -201.26 201.27 116.2 -116.2 201.27 232.41 0 -116.21 -201.27 201.27 -116.2 116.2 201.26 -201.26 116.21 201.26 116.21 -116.2 201.27 -201.27 -116.2 116.21 -201.28m-116.21 -317.47l0 116.2m0 518.75l0 -116.2m-201.27 116.2l201.27 -116.2 -116.2 -201.28m317.47 317.48l116.2 0m-116.2 -634.95l116.2 0m-634.95 0l116.21 0m518.74 433.68l0 -232.42"/>
    <path id="8" class="fil2 str0" d="M5325.53 8221.13l116.21 0 -116.21 -201.27 201.28 -116.21 -201.28 -116.21 0 232.42m0 -232.42l116.21 -201.26 201.27 116.2 -116.2 201.27 232.41 0 -116.21 -201.27 201.27 -116.2 116.2 201.26 -201.26 116.21 201.26 116.21 -116.2 201.27 -201.27 -116.2 116.21 -201.28m-116.21 -317.47l0 116.2m0 518.75l0 -116.2m-201.27 116.2l201.27 -116.2 -116.2 -201.28m317.47 317.48l116.2 0m-116.2 -634.95l116.2 0m-634.95 0l116.21 0m518.74 433.68l0 -232.42"/>
    <path id="9" class="fil2 str0" d="M5960.53 8221.13l116.21 0 -116.21 -201.27 201.28 -116.21 -201.28 -116.21 0 232.42m0 -232.42l116.21 -201.26 201.27 116.2 -116.2 201.27 232.41 0 -116.21 -201.27 201.27 -116.2 116.2 201.26 -201.26 116.21 201.26 116.21 -116.2 201.27 -201.27 -116.2 116.21 -201.28m-116.21 -317.47l0 116.2m0 518.75l0 -116.2m-201.27 116.2l201.27 -116.2 -116.2 -201.28m317.47 317.48l116.2 0m-116.2 -634.95l116.2 0m-634.95 0l116.21 0m518.74 433.68l0 -232.42"/>
    <path id="10" class="fil2 str0" d="M6595.53 8221.13l116.21 0 -116.21 -201.27 201.28 -116.21 -201.28 -116.21 0 232.42m0 -232.42l116.21 -201.26 201.27 116.2 -116.2 201.27 232.41 0 -116.21 -201.27 201.27 -116.2 116.2 201.26 -201.26 116.21 201.26 116.21 -116.2 201.27 -201.27 -116.2 116.21 -201.28m-116.21 -317.47l0 116.2m0 518.75l0 -116.2m-201.27 116.2l201.27 -116.2 -116.2 -201.28m317.47 317.48l116.2 0m-116.2 -634.95l116.2 0m-634.95 0l116.21 0m518.74 433.68l0 -232.42"/>
    <path id="11" class="fil2 str0" d="M7230.53 8221.13l116.21 0 -116.21 -201.27 201.28 -116.21 -201.28 -116.21 0 232.42m0 -232.42l116.21 -201.26 201.27 116.2 -116.2 201.27 232.41 0 -116.21 -201.27 201.27 -116.2 116.2 201.26 -201.26 116.21 201.26 116.21 -116.2 201.27 -201.27 -116.2 116.21 -201.28m-116.21 -317.47l0 116.2m0 518.75l0 -116.2m-201.27 116.2l201.27 -116.2 -116.2 -201.28m317.47 317.48l116.2 0m-116.2 -634.95l116.2 0m-634.95 0l116.21 0m518.74 433.68l0 -232.42"/>
    <path id="12" class="fil2 str0" d="M880.53 7586.13l116.2 0 -116.2 -201.28 201.27 -116.2 -201.27 -116.21 0 232.41m0 -232.41l116.2 -201.26 201.28 116.2 -116.21 201.27 232.41 0 -116.2 -201.27 201.26 -116.2 116.21 201.26 -201.27 116.21 201.27 116.2 -116.21 201.28 -201.26 -116.2 116.2 -201.28m-116.2 -317.47l0 116.2m0 518.75l0 -116.2m-201.28 116.2l201.28 -116.2 -116.21 -201.28m317.47 317.48l116.21 0m-116.21 -634.95l116.21 0m-634.95 0l116.2 0m518.75 433.67l0 -232.41"/>
    <path id="13" class="fil2 str0" d="M1515.53 7586.13l116.2 0 -116.2 -201.28 201.27 -116.2 -201.27 -116.21 0 232.41m0 -232.41l116.2 -201.26 201.28 116.2 -116.21 201.27 232.41 0 -116.2 -201.27 201.26 -116.2 116.21 201.26 -201.27 116.21 201.27 116.2 -116.21 201.28 -201.26 -116.2 116.2 -201.28m-116.2 -317.47l0 116.2m0 518.75l0 -116.2m-201.28 116.2l201.28 -116.2 -116.21 -201.28m317.47 317.48l116.21 0m-116.21 -634.95l116.21 0m-634.95 0l116.2 0m518.75 433.67l0 -232.41"/>
    <path id="14" class="fil2 str0" d="M2150.53 7586.13l116.2 0 -116.2 -201.28 201.27 -116.2 -201.27 -116.21 0 232.41m0 -232.41l116.2 -201.26 201.28 116.2 -116.21 201.27 232.41 0 -116.2 -201.27 201.26 -116.2 116.21 201.26 -201.27 116.21 201.27 116.2 -116.21 201.28 -201.26 -116.2 116.2 -201.28m-116.2 -317.47l0 116.2m0 518.75l0 -116.2m-201.28 116.2l201.28 -116.2 -116.21 -201.28m317.47 317.48l116.21 0m-116.21 -634.95l116.21 0m-634.95 0l116.2 0m518.75 433.67l0 -232.41"/>
    <path id="15" class="fil2 str0" d="M2785.53 7586.13l116.2 0 -116.2 -201.28 201.27 -116.2 -201.27 -116.21 0 232.41m0 -232.41l116.2 -201.26 201.28 116.2 -116.21 201.27 232.41 0 -116.2 -201.27 201.26 -116.2 116.21 201.26 -201.27 116.21 201.27 116.2 -116.21 201.28 -201.26 -116.2 116.2 -201.28m-116.2 -317.47l0 116.2m0 518.75l0 -116.2m-201.28 116.2l201.28 -116.2 -116.21 -201.28m317.47 317.48l116.21 0m-116.21 -634.95l116.21 0m-634.95 0l116.2 0m518.75 433.67l0 -232.41"/>
    <path id="16" class="fil2 str0" d="M3420.53 7586.13l116.2 0 -116.2 -201.28 201.27 -116.2 -201.27 -116.21 0 232.41m0 -232.41l116.2 -201.26 201.28 116.2 -116.21 201.27 232.42 0 -116.21 -201.27 201.27 -116.2 116.2 201.26 -201.26 116.21 201.26 116.2 -116.2 201.28 -201.27 -116.2 116.21 -201.28m-116.21 -317.47l0 116.2m0 518.75l0 -116.2m-201.28 116.2l201.28 -116.2 -116.21 -201.28m317.48 317.48l116.2 0m-116.2 -634.95l116.2 0m-634.95 0l116.2 0m518.75 433.67l0 -232.41"/>
    <path id="17" class="fil2 str0" d="M4055.53 7586.13l116.2 0 -116.2 -201.28 201.28 -116.2 -201.28 -116.21 0 232.41m0 -232.41l116.2 -201.26 201.28 116.2 -116.2 201.27 232.41 0 -116.21 -201.27 201.27 -116.2 116.2 201.26 -201.26 116.21 201.26 116.2 -116.2 201.28 -201.27 -116.2 116.21 -201.28m-116.21 -317.47l0 116.2m0 518.75l0 -116.2m-201.28 116.2l201.28 -116.2 -116.2 -201.28m317.47 317.48l116.2 0m-116.2 -634.95l116.2 0m-634.95 0l116.2 0m518.75 433.67l0 -232.41"/>
    <path id="18" class="fil2 str0" d="M4690.53 7586.13l116.21 0 -116.21 -201.28 201.28 -116.2 -201.28 -116.21 0 232.41m0 -232.41l116.21 -201.26 201.27 116.2 -116.2 201.27 232.41 0 -116.21 -201.27 201.27 -116.2 116.2 201.26 -201.26 116.21 201.26 116.2 -116.2 201.28 -201.27 -116.2 116.21 -201.28m-116.21 -317.47l0 116.2m0 518.75l0 -116.2m-201.27 116.2l201.27 -116.2 -116.2 -201.28m317.47 317.48l116.2 0m-116.2 -634.95l116.2 0m-634.95 0l116.21 0m518.74 433.67l0 -232.41"/>
    <path id="19" class="fil2 str0" d="M5325.53 7586.13l116.21 0 -116.21 -201.28 201.28 -116.2 -201.28 -116.21 0 232.41m0 -232.41l116.21 -201.26 201.27 116.2 -116.2 201.27 232.41 0 -116.21 -201.27 201.27 -116.2 116.2 201.26 -201.26 116.21 201.26 116.2 -116.2 201.28 -201.27 -116.2 116.21 -201.28m-116.21 -317.47l0 116.2m0 518.75l0 -116.2m-201.27 116.2l201.27 -116.2 -116.2 -201.28m317.47 317.48l116.2 0m-116.2 -634.95l116.2 0m-634.95 0l116.21 0m518.74 433.67l0 -232.41"/>
    <path id="20" class="fil2 str0" d="M5960.53 7586.13l116.21 0 -116.21 -201.28 201.28 -116.2 -201.28 -116.21 0 232.41m0 -232.41l116.21 -201.26 201.27 116.2 -116.2 201.27 232.41 0 -116.21 -201.27 201.27 -116.2 116.2 201.26 -201.26 116.21 201.26 116.2 -116.2 201.28 -201.27 -116.2 116.21 -201.28m-116.21 -317.47l0 116.2m0 518.75l0 -116.2m-201.27 116.2l201.27 -116.2 -116.2 -201.28m317.47 317.48l116.2 0m-116.2 -634.95l116.2 0m-634.95 0l116.21 0m518.74 433.67l0 -232.41"/>
    <path id="21" class="fil2 str0" d="M6595.53 7586.13l116.21 0 -116.21 -201.28 201.28 -116.2 -201.28 -116.21 0 232.41m0 -232.41l116.21 -201.26 201.27 116.2 -116.2 201.27 232.41 0 -116.21 -201.27 201.27 -116.2 116.2 201.26 -201.26 116.21 201.26 116.2 -116.2 201.28 -201.27 -116.2 116.21 -201.28m-116.21 -317.47l0 116.2m0 518.75l0 -116.2m-201.27 116.2l201.27 -116.2 -116.2 -201.28m317.47 317.48l116.2 0m-116.2 -634.95l116.2 0m-634.95 0l116.21 0m518.74 433.67l0 -232.41"/>
    <path id="22" class="fil2 str0" d="M7230.53 7586.13l116.21 0 -116.21 -201.28 201.28 -116.2 -201.28 -116.21 0 232.41m0 -232.41l116.21 -201.26 201.27 116.2 -116.2 201.27 232.41 0 -116.21 -201.27 201.27 -116.2 116.2 201.26 -201.26 116.21 201.26 116.2 -116.2 201.28 -201.27 -116.2 116.21 -201.28m-116.21 -317.47l0 116.2m0 518.75l0 -116.2m-201.27 116.2l201.27 -116.2 -116.2 -201.28m317.47 317.48l116.2 0m-116.2 -634.95l116.2 0m-634.95 0l116.21 0m518.74 433.67l0 -232.41"/>
    <path id="23" class="fil2 str0" d="M880.53 6951.13l116.2 0 -116.2 -201.28 201.27 -116.2 -201.27 -116.21 0 232.41m0 -232.41l116.2 -201.26 201.28 116.2 -116.21 201.27 232.41 0 -116.2 -201.27 201.26 -116.2 116.21 201.26 -201.27 116.21 201.27 116.2 -116.21 201.28 -201.26 -116.2 116.2 -201.28m-116.2 -317.47l0 116.2m0 518.75l0 -116.2m-201.28 116.2l201.28 -116.2 -116.21 -201.28m317.47 317.48l116.21 0m-116.21 -634.95l116.21 0m-634.95 0l116.2 0m518.75 433.67l0 -232.41"/>
    <path id="24" class="fil2 str0" d="M1515.53 6951.13l116.2 0 -116.2 -201.28 201.27 -116.2 -201.27 -116.21 0 232.41m0 -232.41l116.2 -201.26 201.28 116.2 -116.21 201.27 232.41 0 -116.2 -201.27 201.26 -116.2 116.21 201.26 -201.27 116.21 201.27 116.2 -116.21 201.28 -201.26 -116.2 116.2 -201.28m-116.2 -317.47l0 116.2m0 518.75l0 -116.2m-201.28 116.2l201.28 -116.2 -116.21 -201.28m317.47 317.48l116.21 0m-116.21 -634.95l116.21 0m-634.95 0l116.2 0m518.75 433.67l0 -232.41"/>
    <path id="25" class="fil2 str0" d="M2150.53 6951.13l116.2 0 -116.2 -201.28 201.27 -116.2 -201.27 -116.21 0 232.41m0 -232.41l116.2 -201.26 201.28 116.2 -116.21 201.27 232.41 0 -116.2 -201.27 201.26 -116.2 116.21 201.26 -201.27 116.21 201.27 116.2 -116.21 201.28 -201.26 -116.2 116.2 -201.28m-116.2 -317.47l0 116.2m0 518.75l0 -116.2m-201.28 116.2l201.28 -116.2 -116.21 -201.28m317.47 317.48l116.21 0m-116.21 -634.95l116.21 0m-634.95 0l116.2 0m518.75 433.67l0 -232.41"/>
    <path id="26" class="fil2 str0" d="M2785.53 6951.13l116.2 0 -116.2 -201.28 201.27 -116.2 -201.27 -116.21 0 232.41m0 -232.41l116.2 -201.26 201.28 116.2 -116.21 201.27 232.41 0 -116.2 -201.27 201.26 -116.2 116.21 201.26 -201.27 116.21 201.27 116.2 -116.21 201.28 -201.26 -116.2 116.2 -201.28m-116.2 -317.47l0 116.2m0 518.75l0 -116.2m-201.28 116.2l201.28 -116.2 -116.21 -201.28m317.47 317.48l116.21 0m-116.21 -634.95l116.21 0m-634.95 0l116.2 0m518.75 433.67l0 -232.41"/>
    <path id="27" class="fil2 str0" d="M3420.53 6951.13l116.2 0 -116.2 -201.28 201.27 -116.2 -201.27 -116.21 0 232.41m0 -232.41l116.2 -201.26 201.28 116.2 -116.21 201.27 232.42 0 -116.21 -201.27 201.27 -116.2 116.2 201.26 -201.26 116.21 201.26 116.2 -116.2 201.28 -201.27 -116.2 116.21 -201.28m-116.21 -317.47l0 116.2m0 518.75l0 -116.2m-201.28 116.2l201.28 -116.2 -116.21 -201.28m317.48 317.48l116.2 0m-116.2 -634.95l116.2 0m-634.95 0l116.2 0m518.75 433.67l0 -232.41"/>
    <path id="28" class="fil2 str0" d="M4055.53 6951.13l116.2 0 -116.2 -201.28 201.28 -116.2 -201.28 -116.21 0 232.41m0 -232.41l116.2 -201.26 201.28 116.2 -116.2 201.27 232.41 0 -116.21 -201.27 201.27 -116.2 116.2 201.26 -201.26 116.21 201.26 116.2 -116.2 201.28 -201.27 -116.2 116.21 -201.28m-116.21 -317.47l0 116.2m0 518.75l0 -116.2m-201.28 116.2l201.28 -116.2 -116.2 -201.28m317.47 317.48l116.2 0m-116.2 -634.95l116.2 0m-634.95 0l116.2 0m518.75 433.67l0 -232.41"/>
    <path id="29" class="fil2 str0" d="M4690.53 6951.13l116.21 0 -116.21 -201.28 201.28 -116.2 -201.28 -116.21 0 232.41m0 -232.41l116.21 -201.26 201.27 116.2 -116.2 201.27 232.41 0 -116.21 -201.27 201.27 -116.2 116.2 201.26 -201.26 116.21 201.26 116.2 -116.2 201.28 -201.27 -116.2 116.21 -201.28m-116.21 -317.47l0 116.2m0 518.75l0 -116.2m-201.27 116.2l201.27 -116.2 -116.2 -201.28m317.47 317.48l116.2 0m-116.2 -634.95l116.2 0m-634.95 0l116.21 0m518.74 433.67l0 -232.41"/>
    <path id="30" class="fil2 str0" d="M5325.53 6951.13l116.21 0 -116.21 -201.28 201.28 -116.2 -201.28 -116.21 0 232.41m0 -232.41l116.21 -201.26 201.27 116.2 -116.2 201.27 232.41 0 -116.21 -201.27 201.27 -116.2 116.2 201.26 -201.26 116.21 201.26 116.2 -116.2 201.28 -201.27 -116.2 116.21 -201.28m-116.21 -317.47l0 116.2m0 518.75l0 -116.2m-201.27 116.2l201.27 -116.2 -116.2 -201.28m317.47 317.48l116.2 0m-116.2 -634.95l116.2 0m-634.95 0l116.21 0m518.74 433.67l0 -232.41"/>
    <path id="31" class="fil2 str0" d="M5960.53 6951.13l116.21 0 -116.21 -201.28 201.28 -116.2 -201.28 -116.21 0 232.41m0 -232.41l116.21 -201.26 201.27 116.2 -116.2 201.27 232.41 0 -116.21 -201.27 201.27 -116.2 116.2 201.26 -201.26 116.21 201.26 116.2 -116.2 201.28 -201.27 -116.2 116.21 -201.28m-116.21 -317.47l0 116.2m0 518.75l0 -116.2m-201.27 116.2l201.27 -116.2 -116.2 -201.28m317.47 317.48l116.2 0m-116.2 -634.95l116.2 0m-634.95 0l116.21 0m518.74 433.67l0 -232.41"/>
    <path id="32" class="fil2 str0" d="M6595.53 6951.13l116.21 0 -116.21 -201.28 201.28 -116.2 -201.28 -116.21 0 232.41m0 -232.41l116.21 -201.26 201.27 116.2 -116.2 201.27 232.41 0 -116.21 -201.27 201.27 -116.2 116.2 201.26 -201.26 116.21 201.26 116.2 -116.2 201.28 -201.27 -116.2 116.21 -201.28m-116.21 -317.47l0 116.2m0 518.75l0 -116.2m-201.27 116.2l201.27 -116.2 -116.2 -201.28m317.47 317.48l116.2 0m-116.2 -634.95l116.2 0m-634.95 0l116.21 0m518.74 433.67l0 -232.41"/>
    <path id="33" class="fil2 str0" d="M7230.53 6951.13l116.21 0 -116.21 -201.28 201.28 -116.2 -201.28 -116.21 0 232.41m0 -232.41l116.21 -201.26 201.27 116.2 -116.2 201.27 232.41 0 -116.21 -201.27 201.27 -116.2 116.2 201.26 -201.26 116.21 201.26 116.2 -116.2 201.28 -201.27 -116.2 116.21 -201.28m-116.21 -317.47l0 116.2m0 518.75l0 -116.2m-201.27 116.2l201.27 -116.2 -116.2 -201.28m317.47 317.48l116.2 0m-116.2 -634.95l116.2 0m-634.95 0l116.21 0m518.74 433.67l0 -232.41"/>
    <path id="34" class="fil2 str0" d="M880.53 6316.13l116.2 0 -116.2 -201.28 201.27 -116.2 -201.27 -116.21 0 232.41m0 -232.41l116.2 -201.26 201.28 116.2 -116.21 201.27 232.41 0 -116.2 -201.27 201.26 -116.2 116.21 201.26 -201.27 116.21 201.27 116.2 -116.21 201.28 -201.26 -116.2 116.2 -201.28m-116.2 -317.47l0 116.2m0 518.75l0 -116.2m-201.28 116.2l201.28 -116.2 -116.21 -201.28m317.47 317.48l116.21 0m-116.21 -634.95l116.21 0m-634.95 0l116.2 0m518.75 433.67l0 -232.41"/>
    <path id="35" class="fil2 str0" d="M1515.53 6316.13l116.2 0 -116.2 -201.28 201.27 -116.2 -201.27 -116.21 0 232.41m0 -232.41l116.2 -201.26 201.28 116.2 -116.21 201.27 232.41 0 -116.2 -201.27 201.26 -116.2 116.21 201.26 -201.27 116.21 201.27 116.2 -116.21 201.28 -201.26 -116.2 116.2 -201.28m-116.2 -317.47l0 116.2m0 518.75l0 -116.2m-201.28 116.2l201.28 -116.2 -116.21 -201.28m317.47 317.48l116.21 0m-116.21 -634.95l116.21 0m-634.95 0l116.2 0m518.75 433.67l0 -232.41"/>
    <path id="36" class="fil2 str0" d="M2150.53 6316.13l116.2 0 -116.2 -201.28 201.27 -116.2 -201.27 -116.21 0 232.41m0 -232.41l116.2 -201.26 201.28 116.2 -116.21 201.27 232.41 0 -116.2 -201.27 201.26 -116.2 116.21 201.26 -201.27 116.21 201.27 116.2 -116.21 201.28 -201.26 -116.2 116.2 -201.28m-116.2 -317.47l0 116.2m0 518.75l0 -116.2m-201.28 116.2l201.28 -116.2 -116.21 -201.28m317.47 317.48l116.21 0m-116.21 -634.95l116.21 0m-634.95 0l116.2 0m518.75 433.67l0 -232.41"/>
    <path id="37" class="fil2 str0" d="M2785.53 6316.13l116.2 0 -116.2 -201.28 201.27 -116.2 -201.27 -116.21 0 232.41m0 -232.41l116.2 -201.26 201.28 116.2 -116.21 201.27 232.41 0 -116.2 -201.27 201.26 -116.2 116.21 201.26 -201.27 116.21 201.27 116.2 -116.21 201.28 -201.26 -116.2 116.2 -201.28m-116.2 -317.47l0 116.2m0 518.75l0 -116.2m-201.28 116.2l201.28 -116.2 -116.21 -201.28m317.47 317.48l116.21 0m-116.21 -634.95l116.21 0m-634.95 0l116.2 0m518.75 433.67l0 -232.41"/>
    <path id="38" class="fil2 str0" d="M3420.53 6316.13l116.2 0 -116.2 -201.28 201.27 -116.2 -201.27 -116.21 0 232.41m0 -232.41l116.2 -201.26 201.28 116.2 -116.21 201.27 232.42 0 -116.21 -201.27 201.27 -116.2 116.2 201.26 -201.26 116.21 201.26 116.2 -116.2 201.28 -201.27 -116.2 116.21 -201.28m-116.21 -317.47l0 116.2m0 518.75l0 -116.2m-201.28 116.2l201.28 -116.2 -116.21 -201.28m317.48 317.48l116.2 0m-116.2 -634.95l116.2 0m-634.95 0l116.2 0m518.75 433.67l0 -232.41"/>
    <path id="39" class="fil2 str0" d="M4055.53 6316.13l116.2 0 -116.2 -201.28 201.28 -116.2 -201.28 -116.21 0 232.41m0 -232.41l116.2 -201.26 201.28 116.2 -116.2 201.27 232.41 0 -116.21 -201.27 201.27 -116.2 116.2 201.26 -201.26 116.21 201.26 116.2 -116.2 201.28 -201.27 -116.2 116.21 -201.28m-116.21 -317.47l0 116.2m0 518.75l0 -116.2m-201.28 116.2l201.28 -116.2 -116.2 -201.28m317.47 317.48l116.2 0m-116.2 -634.95l116.2 0m-634.95 0l116.2 0m518.75 433.67l0 -232.41"/>
    <path id="40" class="fil2 str0" d="M4690.53 6316.13l116.21 0 -116.21 -201.28 201.28 -116.2 -201.28 -116.21 0 232.41m0 -232.41l116.21 -201.26 201.27 116.2 -116.2 201.27 232.41 0 -116.21 -201.27 201.27 -116.2 116.2 201.26 -201.26 116.21 201.26 116.2 -116.2 201.28 -201.27 -116.2 116.21 -201.28m-116.21 -317.47l0 116.2m0 518.75l0 -116.2m-201.27 116.2l201.27 -116.2 -116.2 -201.28m317.47 317.48l116.2 0m-116.2 -634.95l116.2 0m-634.95 0l116.21 0m518.74 433.67l0 -232.41"/>
    <path id="41" class="fil2 str0" d="M5325.53 6316.13l116.21 0 -116.21 -201.28 201.28 -116.2 -201.28 -116.21 0 232.41m0 -232.41l116.21 -201.26 201.27 116.2 -116.2 201.27 232.41 0 -116.21 -201.27 201.27 -116.2 116.2 201.26 -201.26 116.21 201.26 116.2 -116.2 201.28 -201.27 -116.2 116.21 -201.28m-116.21 -317.47l0 116.2m0 518.75l0 -116.2m-201.27 116.2l201.27 -116.2 -116.2 -201.28m317.47 317.48l116.2 0m-116.2 -634.95l116.2 0m-634.95 0l116.21 0m518.74 433.67l0 -232.41"/>
    <path id="42" class="fil2 str0" d="M5960.53 6316.13l116.21 0 -116.21 -201.28 201.28 -116.2 -201.28 -116.21 0 232.41m0 -232.41l116.21 -201.26 201.27 116.2 -116.2 201.27 232.41 0 -116.21 -201.27 201.27 -116.2 116.2 201.26 -201.26 116.21 201.26 116.2 -116.2 201.28 -201.27 -116.2 116.21 -201.28m-116.21 -317.47l0 116.2m0 518.75l0 -116.2m-201.27 116.2l201.27 -116.2 -116.2 -201.28m317.47 317.48l116.2 0m-116.2 -634.95l116.2 0m-634.95 0l116.21 0m518.74 433.67l0 -232.41"/>
    <path id="43" class="fil2 str0" d="M6595.53 6316.13l116.21 0 -116.21 -201.28 201.28 -116.2 -201.28 -116.21 0 232.41m0 -232.41l116.21 -201.26 201.27 116.2 -116.2 201.27 232.41 0 -116.21 -201.27 201.27 -116.2 116.2 201.26 -201.26 116.21 201.26 116.2 -116.2 201.28 -201.27 -116.2 116.21 -201.28m-116.21 -317.47l0 116.2m0 518.75l0 -116.2m-201.27 116.2l201.27 -116.2 -116.2 -201.28m317.47 317.48l116.2 0m-116.2 -634.95l116.2 0m-634.95 0l116.21 0m518.74 433.67l0 -232.41"/>
    <path id="44" class="fil2 str0" d="M7230.53 6316.13l116.21 0 -116.21 -201.28 201.28 -116.2 -201.28 -116.21 0 232.41m0 -232.41l116.21 -201.26 201.27 116.2 -116.2 201.27 232.41 0 -116.21 -201.27 201.27 -116.2 116.2 201.26 -201.26 116.21 201.26 116.2 -116.2 201.28 -201.27 -116.2 116.21 -201.28m-116.21 -317.47l0 116.2m0 518.75l0 -116.2m-201.27 116.2l201.27 -116.2 -116.2 -201.28m317.47 317.48l116.2 0m-116.2 -634.95l116.2 0m-634.95 0l116.21 0m518.74 433.67l0 -232.41"/>
    <path id="45" class="fil2 str0" d="M880.53 5681.13l116.2 0 -116.2 -201.28 201.27 -116.2 -201.27 -116.21 0 232.41m0 -232.41l116.2 -201.26 201.28 116.2 -116.21 201.27 232.41 0 -116.2 -201.27 201.26 -116.2 116.21 201.26 -201.27 116.21 201.27 116.2 -116.21 201.28 -201.26 -116.2 116.2 -201.28m-116.2 -317.47l0 116.2m0 518.75l0 -116.2m-201.28 116.2l201.28 -116.2 -116.21 -201.28m317.47 317.48l116.21 0m-116.21 -634.95l116.21 0m-634.95 0l116.2 0m518.75 433.67l0 -232.41"/>
    <path id="46" class="fil2 str0" d="M1515.53 5681.13l116.2 0 -116.2 -201.28 201.27 -116.2 -201.27 -116.21 0 232.41m0 -232.41l116.2 -201.26 201.28 116.2 -116.21 201.27 232.41 0 -116.2 -201.27 201.26 -116.2 116.21 201.26 -201.27 116.21 201.27 116.2 -116.21 201.28 -201.26 -116.2 116.2 -201.28m-116.2 -317.47l0 116.2m0 518.75l0 -116.2m-201.28 116.2l201.28 -116.2 -116.21 -201.28m317.47 317.48l116.21 0m-116.21 -634.95l116.21 0m-634.95 0l116.2 0m518.75 433.67l0 -232.41"/>
    <path id="47" class="fil2 str0" d="M2150.53 5681.13l116.2 0 -116.2 -201.28 201.27 -116.2 -201.27 -116.21 0 232.41m0 -232.41l116.2 -201.26 201.28 116.2 -116.21 201.27 232.41 0 -116.2 -201.27 201.26 -116.2 116.21 201.26 -201.27 116.21 201.27 116.2 -116.21 201.28 -201.26 -116.2 116.2 -201.28m-116.2 -317.47l0 116.2m0 518.75l0 -116.2m-201.28 116.2l201.28 -116.2 -116.21 -201.28m317.47 317.48l116.21 0m-116.21 -634.95l116.21 0m-634.95 0l116.2 0m518.75 433.67l0 -232.41"/>
    <path id="48" class="fil2 str0" d="M2785.53 5681.13l116.2 0 -116.2 -201.28 201.27 -116.2 -201.27 -116.21 0 232.41m0 -232.41l116.2 -201.26 201.28 116.2 -116.21 201.27 232.41 0 -116.2 -201.27 201.26 -116.2 116.21 201.26 -201.27 116.21 201.27 116.2 -116.21 201.28 -201.26 -116.2 116.2 -201.28m-116.2 -317.47l0 116.2m0 518.75l0 -116.2m-201.28 116.2l201.28 -116.2 -116.21 -201.28m317.47 317.48l116.21 0m-116.21 -634.95l116.21 0m-634.95 0l116.2 0m518.75 433.67l0 -232.41"/>
    <path id="49" class="fil2 str0" d="M3420.53 5681.13l116.2 0 -116.2 -201.28 201.27 -116.2 -201.27 -116.21 0 232.41m0 -232.41l116.2 -201.26 201.28 116.2 -116.21 201.27 232.42 0 -116.21 -201.27 201.27 -116.2 116.2 201.26 -201.26 116.21 201.26 116.2 -116.2 201.28 -201.27 -116.2 116.21 -201.28m-116.21 -317.47l0 116.2m0 518.75l0 -116.2m-201.28 116.2l201.28 -116.2 -116.21 -201.28m317.48 317.48l116.2 0m-116.2 -634.95l116.2 0m-634.95 0l116.2 0m518.75 433.67l0 -232.41"/>
    <path id="50" class="fil2 str0" d="M4055.53 5681.13l116.2 0 -116.2 -201.28 201.28 -116.2 -201.28 -116.21 0 232.41m0 -232.41l116.2 -201.26 201.28 116.2 -116.2 201.27 232.41 0 -116.21 -201.27 201.27 -116.2 116.2 201.26 -201.26 116.21 201.26 116.2 -116.2 201.28 -201.27 -116.2 116.21 -201.28m-116.21 -317.47l0 116.2m0 518.75l0 -116.2m-201.28 116.2l201.28 -116.2 -116.2 -201.28m317.47 317.48l116.2 0m-116.2 -634.95l116.2 0m-634.95 0l116.2 0m518.75 433.67l0 -232.41"/>
    <path id="51" class="fil2 str0" d="M4690.53 5681.13l116.21 0 -116.21 -201.28 201.28 -116.2 -201.28 -116.21 0 232.41m0 -232.41l116.21 -201.26 201.27 116.2 -116.2 201.27 232.41 0 -116.21 -201.27 201.27 -116.2 116.2 201.26 -201.26 116.21 201.26 116.2 -116.2 201.28 -201.27 -116.2 116.21 -201.28m-116.21 -317.47l0 116.2m0 518.75l0 -116.2m-201.27 116.2l201.27 -116.2 -116.2 -201.28m317.47 317.48l116.2 0m-116.2 -634.95l116.2 0m-634.95 0l116.21 0m518.74 433.67l0 -232.41"/>
    <path id="52" class="fil2 str0" d="M5325.53 5681.13l116.21 0 -116.21 -201.28 201.28 -116.2 -201.28 -116.21 0 232.41m0 -232.41l116.21 -201.26 201.27 116.2 -116.2 201.27 232.41 0 -116.21 -201.27 201.27 -116.2 116.2 201.26 -201.26 116.21 201.26 116.2 -116.2 201.28 -201.27 -116.2 116.21 -201.28m-116.21 -317.47l0 116.2m0 518.75l0 -116.2m-201.27 116.2l201.27 -116.2 -116.2 -201.28m317.47 317.48l116.2 0m-116.2 -634.95l116.2 0m-634.95 0l116.21 0m518.74 433.67l0 -232.41"/>
    <path id="53" class="fil2 str0" d="M5960.53 5681.13l116.21 0 -116.21 -201.28 201.28 -116.2 -201.28 -116.21 0 232.41m0 -232.41l116.21 -201.26 201.27 116.2 -116.2 201.27 232.41 0 -116.21 -201.27 201.27 -116.2 116.2 201.26 -201.26 116.21 201.26 116.2 -116.2 201.28 -201.27 -116.2 116.21 -201.28m-116.21 -317.47l0 116.2m0 518.75l0 -116.2m-201.27 116.2l201.27 -116.2 -116.2 -201.28m317.47 317.48l116.2 0m-116.2 -634.95l116.2 0m-634.95 0l116.21 0m518.74 433.67l0 -232.41"/>
    <path id="54" class="fil2 str0" d="M6595.53 5681.13l116.21 0 -116.21 -201.28 201.28 -116.2 -201.28 -116.21 0 232.41m0 -232.41l116.21 -201.26 201.27 116.2 -116.2 201.27 232.41 0 -116.21 -201.27 201.27 -116.2 116.2 201.26 -201.26 116.21 201.26 116.2 -116.2 201.28 -201.27 -116.2 116.21 -201.28m-116.21 -317.47l0 116.2m0 518.75l0 -116.2m-201.27 116.2l201.27 -116.2 -116.2 -201.28m317.47 317.48l116.2 0m-116.2 -634.95l116.2 0m-634.95 0l116.21 0m518.74 433.67l0 -232.41"/>
    <path id="55" class="fil2 str0" d="M7230.53 5681.13l116.21 0 -116.21 -201.28 201.28 -116.2 -201.28 -116.21 0 232.41m0 -232.41l116.21 -201.26 201.27 116.2 -116.2 201.27 232.41 0 -116.21 -201.27 201.27 -116.2 116.2 201.26 -201.26 116.21 201.26 116.2 -116.2 201.28 -201.27 -116.2 116.21 -201.28m-116.21 -317.47l0 116.2m0 518.75l0 -116.2m-201.27 116.2l201.27 -116.2 -116.2 -201.28m317.47 317.48l116.2 0m-116.2 -634.95l116.2 0m-634.95 0l116.21 0m518.74 433.67l0 -232.41"/>
    <path id="56" class="fil2 str0" d="M880.53 5046.13l116.2 0 -116.2 -201.28 201.27 -116.2 -201.27 -116.21 0 232.41m0 -232.41l116.2 -201.26 201.28 116.2 -116.21 201.27 232.41 0 -116.2 -201.27 201.26 -116.2 116.21 201.26 -201.27 116.21 201.27 116.2 -116.21 201.28 -201.26 -116.2 116.2 -201.28m-116.2 -317.47l0 116.2m0 518.75l0 -116.2m-201.28 116.2l201.28 -116.2 -116.21 -201.28m317.47 317.48l116.21 0m-116.21 -634.95l116.21 0m-634.95 0l116.2 0m518.75 433.67l0 -232.41"/>
    <path id="57" class="fil2 str0" d="M1515.53 5046.13l116.2 0 -116.2 -201.28 201.27 -116.2 -201.27 -116.21 0 232.41m0 -232.41l116.2 -201.26 201.28 116.2 -116.21 201.27 232.41 0 -116.2 -201.27 201.26 -116.2 116.21 201.26 -201.27 116.21 201.27 116.2 -116.21 201.28 -201.26 -116.2 116.2 -201.28m-116.2 -317.47l0 116.2m0 518.75l0 -116.2m-201.28 116.2l201.28 -116.2 -116.21 -201.28m317.47 317.48l116.21 0m-116.21 -634.95l116.21 0m-634.95 0l116.2 0m518.75 433.67l0 -232.41"/>
    <path id="58" class="fil2 str0" d="M2150.53 5046.13l116.2 0 -116.2 -201.28 201.27 -116.2 -201.27 -116.21 0 232.41m0 -232.41l116.2 -201.26 201.28 116.2 -116.21 201.27 232.41 0 -116.2 -201.27 201.26 -116.2 116.21 201.26 -201.27 116.21 201.27 116.2 -116.21 201.28 -201.26 -116.2 116.2 -201.28m-116.2 -317.47l0 116.2m0 518.75l0 -116.2m-201.28 116.2l201.28 -116.2 -116.21 -201.28m317.47 317.48l116.21 0m-116.21 -634.95l116.21 0m-634.95 0l116.2 0m518.75 433.67l0 -232.41"/>
    <path id="59" class="fil2 str0" d="M2785.53 5046.13l116.2 0 -116.2 -201.28 201.27 -116.2 -201.27 -116.21 0 232.41m0 -232.41l116.2 -201.26 201.28 116.2 -116.21 201.27 232.41 0 -116.2 -201.27 201.26 -116.2 116.21 201.26 -201.27 116.21 201.27 116.2 -116.21 201.28 -201.26 -116.2 116.2 -201.28m-116.2 -317.47l0 116.2m0 518.75l0 -116.2m-201.28 116.2l201.28 -116.2 -116.21 -201.28m317.47 317.48l116.21 0m-116.21 -634.95l116.21 0m-634.95 0l116.2 0m518.75 433.67l0 -232.41"/>
    <path id="60" class="fil2 str0" d="M3420.53 5046.13l116.2 0 -116.2 -201.28 201.27 -116.2 -201.27 -116.21 0 232.41m0 -232.41l116.2 -201.26 201.28 116.2 -116.21 201.27 232.42 0 -116.21 -201.27 201.27 -116.2 116.2 201.26 -201.26 116.21 201.26 116.2 -116.2 201.28 -201.27 -116.2 116.21 -201.28m-116.21 -317.47l0 116.2m0 518.75l0 -116.2m-201.28 116.2l201.28 -116.2 -116.21 -201.28m317.48 317.48l116.2 0m-116.2 -634.95l116.2 0m-634.95 0l116.2 0m518.75 433.67l0 -232.41"/>
    <path id="61" class="fil2 str0" d="M4055.53 5046.13l116.2 0 -116.2 -201.28 201.28 -116.2 -201.28 -116.21 0 232.41m0 -232.41l116.2 -201.26 201.28 116.2 -116.2 201.27 232.41 0 -116.21 -201.27 201.27 -116.2 116.2 201.26 -201.26 116.21 201.26 116.2 -116.2 201.28 -201.27 -116.2 116.21 -201.28m-116.21 -317.47l0 116.2m0 518.75l0 -116.2m-201.28 116.2l201.28 -116.2 -116.2 -201.28m317.47 317.48l116.2 0m-116.2 -634.95l116.2 0m-634.95 0l116.2 0m518.75 433.67l0 -232.41"/>
    <path id="62" class="fil2 str0" d="M4690.53 5046.13l116.21 0 -116.21 -201.28 201.28 -116.2 -201.28 -116.21 0 232.41m0 -232.41l116.21 -201.26 201.27 116.2 -116.2 201.27 232.41 0 -116.21 -201.27 201.27 -116.2 116.2 201.26 -201.26 116.21 201.26 116.2 -116.2 201.28 -201.27 -116.2 116.21 -201.28m-116.21 -317.47l0 116.2m0 518.75l0 -116.2m-201.27 116.2l201.27 -116.2 -116.2 -201.28m317.47 317.48l116.2 0m-116.2 -634.95l116.2 0m-634.95 0l116.21 0m518.74 433.67l0 -232.41"/>
    <path id="63" class="fil2 str0" d="M5325.53 5046.13l116.21 0 -116.21 -201.28 201.28 -116.2 -201.28 -116.21 0 232.41m0 -232.41l116.21 -201.26 201.27 116.2 -116.2 201.27 232.41 0 -116.21 -201.27 201.27 -116.2 116.2 201.26 -201.26 116.21 201.26 116.2 -116.2 201.28 -201.27 -116.2 116.21 -201.28m-116.21 -317.47l0 116.2m0 518.75l0 -116.2m-201.27 116.2l201.27 -116.2 -116.2 -201.28m317.47 317.48l116.2 0m-116.2 -634.95l116.2 0m-634.95 0l116.21 0m518.74 433.67l0 -232.41"/>
    <path id="64" class="fil2 str0" d="M5960.53 5046.13l116.21 0 -116.21 -201.28 201.28 -116.2 -201.28 -116.21 0 232.41m0 -232.41l116.21 -201.26 201.27 116.2 -116.2 201.27 232.41 0 -116.21 -201.27 201.27 -116.2 116.2 201.26 -201.26 116.21 201.26 116.2 -116.2 201.28 -201.27 -116.2 116.21 -201.28m-116.21 -317.47l0 116.2m0 518.75l0 -116.2m-201.27 116.2l201.27 -116.2 -116.2 -201.28m317.47 317.48l116.2 0m-116.2 -634.95l116.2 0m-634.95 0l116.21 0m518.74 433.67l0 -232.41"/>
    <path id="65" class="fil2 str0" d="M6595.53 5046.13l116.21 0 -116.21 -201.28 201.28 -116.2 -201.28 -116.21 0 232.41m0 -232.41l116.21 -201.26 201.27 116.2 -116.2 201.27 232.41 0 -116.21 -201.27 201.27 -116.2 116.2 201.26 -201.26 116.21 201.26 116.2 -116.2 201.28 -201.27 -116.2 116.21 -201.28m-116.21 -317.47l0 116.2m0 518.75l0 -116.2m-201.27 116.2l201.27 -116.2 -116.2 -201.28m317.47 317.48l116.2 0m-116.2 -634.95l116.2 0m-634.95 0l116.21 0m518.74 433.67l0 -232.41"/>
    <path id="66" class="fil2 str0" d="M7230.53 5046.13l116.21 0 -116.21 -201.28 201.28 -116.2 -201.28 -116.21 0 232.41m0 -232.41l116.21 -201.26 201.27 116.2 -116.2 201.27 232.41 0 -116.21 -201.27 201.27 -116.2 116.2 201.26 -201.26 116.21 201.26 116.2 -116.2 201.28 -201.27 -116.2 116.21 -201.28m-116.21 -317.47l0 116.2m0 518.75l0 -116.2m-201.27 116.2l201.27 -116.2 -116.2 -201.28m317.47 317.48l116.2 0m-116.2 -634.95l116.2 0m-634.95 0l116.21 0m518.74 433.67l0 -232.41"/>
    <path id="67" class="fil2 str0" d="M880.53 4411.13l116.2 0 -116.2 -201.28 201.27 -116.2 -201.27 -116.21 0 232.41m0 -232.41l116.2 -201.26 201.28 116.2 -116.21 201.27 232.41 0 -116.2 -201.27 201.26 -116.2 116.21 201.26 -201.27 116.21 201.27 116.2 -116.21 201.28 -201.26 -116.2 116.2 -201.28m-116.2 -317.47l0 116.2m0 518.75l0 -116.2m-201.28 116.2l201.28 -116.2 -116.21 -201.28m317.47 317.48l116.21 0m-116.21 -634.95l116.21 0m-634.95 0l116.2 0m518.75 433.67l0 -232.41"/>
    <path id="68" class="fil2 str0" d="M1515.53 4411.13l116.2 0 -116.2 -201.28 201.27 -116.2 -201.27 -116.21 0 232.41m0 -232.41l116.2 -201.26 201.28 116.2 -116.21 201.27 232.41 0 -116.2 -201.27 201.26 -116.2 116.21 201.26 -201.27 116.21 201.27 116.2 -116.21 201.28 -201.26 -116.2 116.2 -201.28m-116.2 -317.47l0 116.2m0 518.75l0 -116.2m-201.28 116.2l201.28 -116.2 -116.21 -201.28m317.47 317.48l116.21 0m-116.21 -634.95l116.21 0m-634.95 0l116.2 0m518.75 433.67l0 -232.41"/>
    <path id="69" class="fil2 str0" d="M2150.53 4411.13l116.2 0 -116.2 -201.28 201.27 -116.2 -201.27 -116.21 0 232.41m0 -232.41l116.2 -201.26 201.28 116.2 -116.21 201.27 232.41 0 -116.2 -201.27 201.26 -116.2 116.21 201.26 -201.27 116.21 201.27 116.2 -116.21 201.28 -201.26 -116.2 116.2 -201.28m-116.2 -317.47l0 116.2m0 518.75l0 -116.2m-201.28 116.2l201.28 -116.2 -116.21 -201.28m317.47 317.48l116.21 0m-116.21 -634.95l116.21 0m-634.95 0l116.2 0m518.75 433.67l0 -232.41"/>
    <path id="70" class="fil2 str0" d="M2785.53 4411.13l116.2 0 -116.2 -201.28 201.27 -116.2 -201.27 -116.21 0 232.41m0 -232.41l116.2 -201.26 201.28 116.2 -116.21 201.27 232.41 0 -116.2 -201.27 201.26 -116.2 116.21 201.26 -201.27 116.21 201.27 116.2 -116.21 201.28 -201.26 -116.2 116.2 -201.28m-116.2 -317.47l0 116.2m0 518.75l0 -116.2m-201.28 116.2l201.28 -116.2 -116.21 -201.28m317.47 317.48l116.21 0m-116.21 -634.95l116.21 0m-634.95 0l116.2 0m518.75 433.67l0 -232.41"/>
    <path id="71" class="fil2 str0" d="M3420.53 4411.13l116.2 0 -116.2 -201.28 201.27 -116.2 -201.27 -116.21 0 232.41m0 -232.41l116.2 -201.26 201.28 116.2 -116.21 201.27 232.42 0 -116.21 -201.27 201.27 -116.2 116.2 201.26 -201.26 116.21 201.26 116.2 -116.2 201.28 -201.27 -116.2 116.21 -201.28m-116.21 -317.47l0 116.2m0 518.75l0 -116.2m-201.28 116.2l201.28 -116.2 -116.21 -201.28m317.48 317.48l116.2 0m-116.2 -634.95l116.2 0m-634.95 0l116.2 0m518.75 433.67l0 -232.41"/>
    <path id="72" class="fil2 str0" d="M4055.53 4411.13l116.2 0 -116.2 -201.28 201.28 -116.2 -201.28 -116.21 0 232.41m0 -232.41l116.2 -201.26 201.28 116.2 -116.2 201.27 232.41 0 -116.21 -201.27 201.27 -116.2 116.2 201.26 -201.26 116.21 201.26 116.2 -116.2 201.28 -201.27 -116.2 116.21 -201.28m-116.21 -317.47l0 116.2m0 518.75l0 -116.2m-201.28 116.2l201.28 -116.2 -116.2 -201.28m317.47 317.48l116.2 0m-116.2 -634.95l116.2 0m-634.95 0l116.2 0m518.75 433.67l0 -232.41"/>
    <path id="73" class="fil2 str0" d="M4690.53 4411.13l116.21 0 -116.21 -201.28 201.28 -116.2 -201.28 -116.21 0 232.41m0 -232.41l116.21 -201.26 201.27 116.2 -116.2 201.27 232.41 0 -116.21 -201.27 201.27 -116.2 116.2 201.26 -201.26 116.21 201.26 116.2 -116.2 201.28 -201.27 -116.2 116.21 -201.28m-116.21 -317.47l0 116.2m0 518.75l0 -116.2m-201.27 116.2l201.27 -116.2 -116.2 -201.28m317.47 317.48l116.2 0m-116.2 -634.95l116.2 0m-634.95 0l116.21 0m518.74 433.67l0 -232.41"/>
    <path id="74" class="fil2 str0" d="M5325.53 4411.13l116.21 0 -116.21 -201.28 201.28 -116.2 -201.28 -116.21 0 232.41m0 -232.41l116.21 -201.26 201.27 116.2 -116.2 201.27 232.41 0 -116.21 -201.27 201.27 -116.2 116.2 201.26 -201.26 116.21 201.26 116.2 -116.2 201.28 -201.27 -116.2 116.21 -201.28m-116.21 -317.47l0 116.2m0 518.75l0 -116.2m-201.27 116.2l201.27 -116.2 -116.2 -201.28m317.47 317.48l116.2 0m-116.2 -634.95l116.2 0m-634.95 0l116.21 0m518.74 433.67l0 -232.41"/>
    <path id="75" class="fil2 str0" d="M5960.53 4411.13l116.21 0 -116.21 -201.28 201.28 -116.2 -201.28 -116.21 0 232.41m0 -232.41l116.21 -201.26 201.27 116.2 -116.2 201.27 232.41 0 -116.21 -201.27 201.27 -116.2 116.2 201.26 -201.26 116.21 201.26 116.2 -116.2 201.28 -201.27 -116.2 116.21 -201.28m-116.21 -317.47l0 116.2m0 518.75l0 -116.2m-201.27 116.2l201.27 -116.2 -116.2 -201.28m317.47 317.48l116.2 0m-116.2 -634.95l116.2 0m-634.95 0l116.21 0m518.74 433.67l0 -232.41"/>
    <path id="76" class="fil2 str0" d="M6595.53 4411.13l116.21 0 -116.21 -201.28 201.28 -116.2 -201.28 -116.21 0 232.41m0 -232.41l116.21 -201.26 201.27 116.2 -116.2 201.27 232.41 0 -116.21 -201.27 201.27 -116.2 116.2 201.26 -201.26 116.21 201.26 116.2 -116.2 201.28 -201.27 -116.2 116.21 -201.28m-116.21 -317.47l0 116.2m0 518.75l0 -116.2m-201.27 116.2l201.27 -116.2 -116.2 -201.28m317.47 317.48l116.2 0m-116.2 -634.95l116.2 0m-634.95 0l116.21 0m518.74 433.67l0 -232.41"/>
    <path id="77" class="fil2 str0" d="M7230.53 4411.13l116.21 0 -116.21 -201.28 201.28 -116.2 -201.28 -116.21 0 232.41m0 -232.41l116.21 -201.26 201.27 116.2 -116.2 201.27 232.41 0 -116.21 -201.27 201.27 -116.2 116.2 201.26 -201.26 116.21 201.26 116.2 -116.2 201.28 -201.27 -116.2 116.21 -201.28m-116.21 -317.47l0 116.2m0 518.75l0 -116.2m-201.27 116.2l201.27 -116.2 -116.2 -201.28m317.47 317.48l116.2 0m-116.2 -634.95l116.2 0m-634.95 0l116.21 0m518.74 433.67l0 -232.41"/>
    <path id="78" class="fil2 str0" d="M880.53 3776.13l116.2 0 -116.2 -201.28 201.27 -116.2 -201.27 -116.21 0 232.41m0 -232.41l116.2 -201.26 201.28 116.2 -116.21 201.27 232.41 0 -116.2 -201.27 201.26 -116.2 116.21 201.26 -201.27 116.21 201.27 116.2 -116.21 201.28 -201.26 -116.21 116.2 -201.27m-116.2 -317.47l0 116.2m0 518.75l0 -116.21m-201.28 116.21l201.28 -116.21 -116.21 -201.27m317.47 317.48l116.21 0m-116.21 -634.95l116.21 0m-634.95 0l116.2 0m518.75 433.67l0 -232.41"/>
    <path id="79" class="fil2 str0" d="M1515.53 3776.13l116.2 0 -116.2 -201.28 201.27 -116.2 -201.27 -116.21 0 232.41m0 -232.41l116.2 -201.26 201.28 116.2 -116.21 201.27 232.41 0 -116.2 -201.27 201.26 -116.2 116.21 201.26 -201.27 116.21 201.27 116.2 -116.21 201.28 -201.26 -116.21 116.2 -201.27m-116.2 -317.47l0 116.2m0 518.75l0 -116.21m-201.28 116.21l201.28 -116.21 -116.21 -201.27m317.47 317.48l116.21 0m-116.21 -634.95l116.21 0m-634.95 0l116.2 0m518.75 433.67l0 -232.41"/>
    <path id="80" class="fil2 str0" d="M2150.53 3776.13l116.2 0 -116.2 -201.28 201.27 -116.2 -201.27 -116.21 0 232.41m0 -232.41l116.2 -201.26 201.28 116.2 -116.21 201.27 232.41 0 -116.2 -201.27 201.26 -116.2 116.21 201.26 -201.27 116.21 201.27 116.2 -116.21 201.28 -201.26 -116.21 116.2 -201.27m-116.2 -317.47l0 116.2m0 518.75l0 -116.21m-201.28 116.21l201.28 -116.21 -116.21 -201.27m317.47 317.48l116.21 0m-116.21 -634.95l116.21 0m-634.95 0l116.2 0m518.75 433.67l0 -232.41"/>
    <path id="81" class="fil2 str0" d="M2785.53 3776.13l116.2 0 -116.2 -201.28 201.27 -116.2 -201.27 -116.21 0 232.41m0 -232.41l116.2 -201.26 201.28 116.2 -116.21 201.27 232.41 0 -116.2 -201.27 201.26 -116.2 116.21 201.26 -201.27 116.21 201.27 116.2 -116.21 201.28 -201.26 -116.21 116.2 -201.27m-116.2 -317.47l0 116.2m0 518.75l0 -116.21m-201.28 116.21l201.28 -116.21 -116.21 -201.27m317.47 317.48l116.21 0m-116.21 -634.95l116.21 0m-634.95 0l116.2 0m518.75 433.67l0 -232.41"/>
    <path id="82" class="fil2 str0" d="M3420.53 3776.13l116.2 0 -116.2 -201.28 201.27 -116.2 -201.27 -116.21 0 232.41m0 -232.41l116.2 -201.26 201.28 116.2 -116.21 201.27 232.42 0 -116.21 -201.27 201.27 -116.2 116.2 201.26 -201.26 116.21 201.26 116.2 -116.2 201.28 -201.27 -116.21 116.21 -201.27m-116.21 -317.47l0 116.2m0 518.75l0 -116.21m-201.28 116.21l201.28 -116.21 -116.21 -201.27m317.48 317.48l116.2 0m-116.2 -634.95l116.2 0m-634.95 0l116.2 0m518.75 433.67l0 -232.41"/>
    <path id="83" class="fil2 str0" d="M4055.53 3776.13l116.2 0 -116.2 -201.28 201.28 -116.2 -201.28 -116.21 0 232.41m0 -232.41l116.2 -201.26 201.28 116.2 -116.2 201.27 232.41 0 -116.21 -201.27 201.27 -116.2 116.2 201.26 -201.26 116.21 201.26 116.2 -116.2 201.28 -201.27 -116.21 116.21 -201.27m-116.21 -317.47l0 116.2m0 518.75l0 -116.21m-201.28 116.21l201.28 -116.21 -116.2 -201.27m317.47 317.48l116.2 0m-116.2 -634.95l116.2 0m-634.95 0l116.2 0m518.75 433.67l0 -232.41"/>
    <path id="84" class="fil2 str0" d="M4690.53 3776.13l116.21 0 -116.21 -201.28 201.28 -116.2 -201.28 -116.21 0 232.41m0 -232.41l116.21 -201.26 201.27 116.2 -116.2 201.27 232.41 0 -116.21 -201.27 201.27 -116.2 116.2 201.26 -201.26 116.21 201.26 116.2 -116.2 201.28 -201.27 -116.21 116.21 -201.27m-116.21 -317.47l0 116.2m0 518.75l0 -116.21m-201.27 116.21l201.27 -116.21 -116.2 -201.27m317.47 317.48l116.2 0m-116.2 -634.95l116.2 0m-634.95 0l116.21 0m518.74 433.67l0 -232.41"/>
    <path id="85" class="fil2 str0" d="M5325.53 3776.13l116.21 0 -116.21 -201.28 201.28 -116.2 -201.28 -116.21 0 232.41m0 -232.41l116.21 -201.26 201.27 116.2 -116.2 201.27 232.41 0 -116.21 -201.27 201.27 -116.2 116.2 201.26 -201.26 116.21 201.26 116.2 -116.2 201.28 -201.27 -116.21 116.21 -201.27m-116.21 -317.47l0 116.2m0 518.75l0 -116.21m-201.27 116.21l201.27 -116.21 -116.2 -201.27m317.47 317.48l116.2 0m-116.2 -634.95l116.2 0m-634.95 0l116.21 0m518.74 433.67l0 -232.41"/>
    <path id="86" class="fil2 str0" d="M5960.53 3776.13l116.21 0 -116.21 -201.28 201.28 -116.2 -201.28 -116.21 0 232.41m0 -232.41l116.21 -201.26 201.27 116.2 -116.2 201.27 232.41 0 -116.21 -201.27 201.27 -116.2 116.2 201.26 -201.26 116.21 201.26 116.2 -116.2 201.28 -201.27 -116.21 116.21 -201.27m-116.21 -317.47l0 116.2m0 518.75l0 -116.21m-201.27 116.21l201.27 -116.21 -116.2 -201.27m317.47 317.48l116.2 0m-116.2 -634.95l116.2 0m-634.95 0l116.21 0m518.74 433.67l0 -232.41"/>
    <path id="87" class="fil2 str0" d="M6595.53 3776.13l116.21 0 -116.21 -201.28 201.28 -116.2 -201.28 -116.21 0 232.41m0 -232.41l116.21 -201.26 201.27 116.2 -116.2 201.27 232.41 0 -116.21 -201.27 201.27 -116.2 116.2 201.26 -201.26 116.21 201.26 116.2 -116.2 201.28 -201.27 -116.21 116.21 -201.27m-116.21 -317.47l0 116.2m0 518.75l0 -116.21m-201.27 116.21l201.27 -116.21 -116.2 -201.27m317.47 317.48l116.2 0m-116.2 -634.95l116.2 0m-634.95 0l116.21 0m518.74 433.67l0 -232.41"/>
    <path id="88" class="fil2 str0" d="M7230.53 3776.13l116.21 0 -116.21 -201.28 201.28 -116.2 -201.28 -116.21 0 232.41m0 -232.41l116.21 -201.26 201.27 116.2 -116.2 201.27 232.41 0 -116.21 -201.27 201.27 -116.2 116.2 201.26 -201.26 116.21 201.26 116.2 -116.2 201.28 -201.27 -116.21 116.21 -201.27m-116.21 -317.47l0 116.2m0 518.75l0 -116.21m-201.27 116.21l201.27 -116.21 -116.2 -201.27m317.47 317.48l116.2 0m-116.2 -634.95l116.2 0m-634.95 0l116.21 0m518.74 433.67l0 -232.41"/>
    <path id="89" class="fil2 str0" d="M880.53 3141.13l116.2 0 -116.2 -201.28 201.27 -116.2 -201.27 -116.21 0 232.41m0 -232.41l116.2 -201.26 201.28 116.2 -116.21 201.27 232.41 0 -116.2 -201.27 201.26 -116.2 116.21 201.26 -201.27 116.21 201.27 116.2 -116.21 201.28 -201.26 -116.21 116.2 -201.27m-116.2 -317.47l0 116.2m0 518.75l0 -116.21m-201.28 116.21l201.28 -116.21 -116.21 -201.27m317.47 317.48l116.21 0m-116.21 -634.95l116.21 0m-634.95 0l116.2 0m518.75 433.67l0 -232.41"/>
    <path id="90" class="fil2 str0" d="M1515.53 3141.13l116.2 0 -116.2 -201.28 201.27 -116.2 -201.27 -116.21 0 232.41m0 -232.41l116.2 -201.26 201.28 116.2 -116.21 201.27 232.41 0 -116.2 -201.27 201.26 -116.2 116.21 201.26 -201.27 116.21 201.27 116.2 -116.21 201.28 -201.26 -116.21 116.2 -201.27m-116.2 -317.47l0 116.2m0 518.75l0 -116.21m-201.28 116.21l201.28 -116.21 -116.21 -201.27m317.47 317.48l116.21 0m-116.21 -634.95l116.21 0m-634.95 0l116.2 0m518.75 433.67l0 -232.41"/>
    <path id="91" class="fil2 str0" d="M2150.53 3141.13l116.2 0 -116.2 -201.28 201.27 -116.2 -201.27 -116.21 0 232.41m0 -232.41l116.2 -201.26 201.28 116.2 -116.21 201.27 232.41 0 -116.2 -201.27 201.26 -116.2 116.21 201.26 -201.27 116.21 201.27 116.2 -116.21 201.28 -201.26 -116.21 116.2 -201.27m-116.2 -317.47l0 116.2m0 518.75l0 -116.21m-201.28 116.21l201.28 -116.21 -116.21 -201.27m317.47 317.48l116.21 0m-116.21 -634.95l116.21 0m-634.95 0l116.2 0m518.75 433.67l0 -232.41"/>
    <path id="92" class="fil2 str0" d="M2785.53 3141.13l116.2 0 -116.2 -201.28 201.27 -116.2 -201.27 -116.21 0 232.41m0 -232.41l116.2 -201.26 201.28 116.2 -116.21 201.27 232.41 0 -116.2 -201.27 201.26 -116.2 116.21 201.26 -201.27 116.21 201.27 116.2 -116.21 201.28 -201.26 -116.21 116.2 -201.27m-116.2 -317.47l0 116.2m0 518.75l0 -116.21m-201.28 116.21l201.28 -116.21 -116.21 -201.27m317.47 317.48l116.21 0m-116.21 -634.95l116.21 0m-634.95 0l116.2 0m518.75 433.67l0 -232.41"/>
    <path id="93" class="fil2 str0" d="M3420.53 3141.13l116.2 0 -116.2 -201.28 201.27 -116.2 -201.27 -116.21 0 232.41m0 -232.41l116.2 -201.26 201.28 116.2 -116.21 201.27 232.42 0 -116.21 -201.27 201.27 -116.2 116.2 201.26 -201.26 116.21 201.26 116.2 -116.2 201.28 -201.27 -116.21 116.21 -201.27m-116.21 -317.47l0 116.2m0 518.75l0 -116.21m-201.28 116.21l201.28 -116.21 -116.21 -201.27m317.48 317.48l116.2 0m-116.2 -634.95l116.2 0m-634.95 0l116.2 0m518.75 433.67l0 -232.41"/>
    <path id="94" class="fil2 str0" d="M4055.53 3141.13l116.2 0 -116.2 -201.28 201.28 -116.2 -201.28 -116.21 0 232.41m0 -232.41l116.2 -201.26 201.28 116.2 -116.2 201.27 232.41 0 -116.21 -201.27 201.27 -116.2 116.2 201.26 -201.26 116.21 201.26 116.2 -116.2 201.28 -201.27 -116.21 116.21 -201.27m-116.21 -317.47l0 116.2m0 518.75l0 -116.21m-201.28 116.21l201.28 -116.21 -116.2 -201.27m317.47 317.48l116.2 0m-116.2 -634.95l116.2 0m-634.95 0l116.2 0m518.75 433.67l0 -232.41"/>
    <path id="95" class="fil2 str0" d="M4690.53 3141.13l116.21 0 -116.21 -201.28 201.28 -116.2 -201.28 -116.21 0 232.41m0 -232.41l116.21 -201.26 201.27 116.2 -116.2 201.27 232.41 0 -116.21 -201.27 201.27 -116.2 116.2 201.26 -201.26 116.21 201.26 116.2 -116.2 201.28 -201.27 -116.21 116.21 -201.27m-116.21 -317.47l0 116.2m0 518.75l0 -116.21m-201.27 116.21l201.27 -116.21 -116.2 -201.27m317.47 317.48l116.2 0m-116.2 -634.95l116.2 0m-634.95 0l116.21 0m518.74 433.67l0 -232.41"/>
    <path id="96" class="fil2 str0" d="M5325.53 3141.13l116.21 0 -116.21 -201.28 201.28 -116.2 -201.28 -116.21 0 232.41m0 -232.41l116.21 -201.26 201.27 116.2 -116.2 201.27 232.41 0 -116.21 -201.27 201.27 -116.2 116.2 201.26 -201.26 116.21 201.26 116.2 -116.2 201.28 -201.27 -116.21 116.21 -201.27m-116.21 -317.47l0 116.2m0 518.75l0 -116.21m-201.27 116.21l201.27 -116.21 -116.2 -201.27m317.47 317.48l116.2 0m-116.2 -634.95l116.2 0m-634.95 0l116.21 0m518.74 433.67l0 -232.41"/>
    <path id="97" class="fil2 str0" d="M5960.53 3141.13l116.21 0 -116.21 -201.28 201.28 -116.2 -201.28 -116.21 0 232.41m0 -232.41l116.21 -201.26 201.27 116.2 -116.2 201.27 232.41 0 -116.21 -201.27 201.27 -116.2 116.2 201.26 -201.26 116.21 201.26 116.2 -116.2 201.28 -201.27 -116.21 116.21 -201.27m-116.21 -317.47l0 116.2m0 518.75l0 -116.21m-201.27 116.21l201.27 -116.21 -116.2 -201.27m317.47 317.48l116.2 0m-116.2 -634.95l116.2 0m-634.95 0l116.21 0m518.74 433.67l0 -232.41"/>
    <path id="98" class="fil2 str0" d="M6595.53 3141.13l116.21 0 -116.21 -201.28 201.28 -116.2 -201.28 -116.21 0 232.41m0 -232.41l116.21 -201.26 201.27 116.2 -116.2 201.27 232.41 0 -116.21 -201.27 201.27 -116.2 116.2 201.26 -201.26 116.21 201.26 116.2 -116.2 201.28 -201.27 -116.21 116.21 -201.27m-116.21 -317.47l0 116.2m0 518.75l0 -116.21m-201.27 116.21l201.27 -116.21 -116.2 -201.27m317.47 317.48l116.2 0m-116.2 -634.95l116.2 0m-634.95 0l116.21 0m518.74 433.67l0 -232.41"/>
    <path id="99" class="fil2 str0" d="M7230.53 3141.13l116.21 0 -116.21 -201.28 201.28 -116.2 -201.28 -116.21 0 232.41m0 -232.41l116.21 -201.26 201.27 116.2 -116.2 201.27 232.41 0 -116.21 -201.27 201.27 -116.2 116.2 201.26 -201.26 116.21 201.26 116.2 -116.2 201.28 -201.27 -116.21 116.21 -201.27m-116.21 -317.47l0 116.2m0 518.75l0 -116.21m-201.27 116.21l201.27 -116.21 -116.2 -201.27m317.47 317.48l116.2 0m-116.2 -634.95l116.2 0m-634.95 0l116.21 0m518.74 433.67l0 -232.41"/>
    <path id="100" class="fil2 str0" d="M880.53 2506.13l116.2 0 -116.2 -201.28 201.27 -116.2 -201.27 -116.21 0 232.41m0 -232.41l116.2 -201.26 201.28 116.2 -116.21 201.27 232.41 0 -116.2 -201.27 201.26 -116.2 116.21 201.26 -201.27 116.21 201.27 116.2 -116.21 201.28 -201.26 -116.21 116.2 -201.27m-116.2 -317.47l0 116.2m0 518.75l0 -116.21m-201.28 116.21l201.28 -116.21 -116.21 -201.27m317.47 317.48l116.21 0m-116.21 -634.95l116.21 0m-634.95 0l116.2 0m518.75 433.67l0 -232.41"/>
    <path id="101" class="fil2 str0" d="M1515.53 2506.13l116.2 0 -116.2 -201.28 201.27 -116.2 -201.27 -116.21 0 232.41m0 -232.41l116.2 -201.26 201.28 116.2 -116.21 201.27 232.41 0 -116.2 -201.27 201.26 -116.2 116.21 201.26 -201.27 116.21 201.27 116.2 -116.21 201.28 -201.26 -116.21 116.2 -201.27m-116.2 -317.47l0 116.2m0 518.75l0 -116.21m-201.28 116.21l201.28 -116.21 -116.21 -201.27m317.47 317.48l116.21 0m-116.21 -634.95l116.21 0m-634.95 0l116.2 0m518.75 433.67l0 -232.41"/>
    <path id="102" class="fil2 str0" d="M2150.53 2506.13l116.2 0 -116.2 -201.28 201.27 -116.2 -201.27 -116.21 0 232.41m0 -232.41l116.2 -201.26 201.28 116.2 -116.21 201.27 232.41 0 -116.2 -201.27 201.26 -116.2 116.21 201.26 -201.27 116.21 201.27 116.2 -116.21 201.28 -201.26 -116.21 116.2 -201.27m-116.2 -317.47l0 116.2m0 518.75l0 -116.21m-201.28 116.21l201.28 -116.21 -116.21 -201.27m317.47 317.48l116.21 0m-116.21 -634.95l116.21 0m-634.95 0l116.2 0m518.75 433.67l0 -232.41"/>
    <path id="103" class="fil2 str0" d="M2785.53 2506.13l116.2 0 -116.2 -201.28 201.27 -116.2 -201.27 -116.21 0 232.41m0 -232.41l116.2 -201.26 201.28 116.2 -116.21 201.27 232.41 0 -116.2 -201.27 201.26 -116.2 116.21 201.26 -201.27 116.21 201.27 116.2 -116.21 201.28 -201.26 -116.21 116.2 -201.27m-116.2 -317.47l0 116.2m0 518.75l0 -116.21m-201.28 116.21l201.28 -116.21 -116.21 -201.27m317.47 317.48l116.21 0m-116.21 -634.95l116.21 0m-634.95 0l116.2 0m518.75 433.67l0 -232.41"/>
    <path id="104" class="fil2 str0" d="M3420.53 2506.13l116.2 0 -116.2 -201.28 201.27 -116.2 -201.27 -116.21 0 232.41m0 -232.41l116.2 -201.26 201.28 116.2 -116.21 201.27 232.42 0 -116.21 -201.27 201.27 -116.2 116.2 201.26 -201.26 116.21 201.26 116.2 -116.2 201.28 -201.27 -116.21 116.21 -201.27m-116.21 -317.47l0 116.2m0 518.75l0 -116.21m-201.28 116.21l201.28 -116.21 -116.21 -201.27m317.48 317.48l116.2 0m-116.2 -634.95l116.2 0m-634.95 0l116.2 0m518.75 433.67l0 -232.41"/>
    <path id="105" class="fil2 str0" d="M4055.53 2506.13l116.2 0 -116.2 -201.28 201.28 -116.2 -201.28 -116.21 0 232.41m0 -232.41l116.2 -201.26 201.28 116.2 -116.2 201.27 232.41 0 -116.21 -201.27 201.27 -116.2 116.2 201.26 -201.26 116.21 201.26 116.2 -116.2 201.28 -201.27 -116.21 116.21 -201.27m-116.21 -317.47l0 116.2m0 518.75l0 -116.21m-201.28 116.21l201.28 -116.21 -116.2 -201.27m317.47 317.48l116.2 0m-116.2 -634.95l116.2 0m-634.95 0l116.2 0m518.75 433.67l0 -232.41"/>
    <path id="106" class="fil2 str0" d="M4690.53 2506.13l116.21 0 -116.21 -201.28 201.28 -116.2 -201.28 -116.21 0 232.41m0 -232.41l116.21 -201.26 201.27 116.2 -116.2 201.27 232.41 0 -116.21 -201.27 201.27 -116.2 116.2 201.26 -201.26 116.21 201.26 116.2 -116.2 201.28 -201.27 -116.21 116.21 -201.27m-116.21 -317.47l0 116.2m0 518.75l0 -116.21m-201.27 116.21l201.27 -116.21 -116.2 -201.27m317.47 317.48l116.2 0m-116.2 -634.95l116.2 0m-634.95 0l116.21 0m518.74 433.67l0 -232.41"/>
    <path id="107" class="fil2 str0" d="M5325.53 2506.13l116.21 0 -116.21 -201.28 201.28 -116.2 -201.28 -116.21 0 232.41m0 -232.41l116.21 -201.26 201.27 116.2 -116.2 201.27 232.41 0 -116.21 -201.27 201.27 -116.2 116.2 201.26 -201.26 116.21 201.26 116.2 -116.2 201.28 -201.27 -116.21 116.21 -201.27m-116.21 -317.47l0 116.2m0 518.75l0 -116.21m-201.27 116.21l201.27 -116.21 -116.2 -201.27m317.47 317.48l116.2 0m-116.2 -634.95l116.2 0m-634.95 0l116.21 0m518.74 433.67l0 -232.41"/>
    <path id="108" class="fil2 str0" d="M5960.53 2506.13l116.21 0 -116.21 -201.28 201.28 -116.2 -201.28 -116.21 0 232.41m0 -232.41l116.21 -201.26 201.27 116.2 -116.2 201.27 232.41 0 -116.21 -201.27 201.27 -116.2 116.2 201.26 -201.26 116.21 201.26 116.2 -116.2 201.28 -201.27 -116.21 116.21 -201.27m-116.21 -317.47l0 116.2m0 518.75l0 -116.21m-201.27 116.21l201.27 -116.21 -116.2 -201.27m317.47 317.48l116.2 0m-116.2 -634.95l116.2 0m-634.95 0l116.21 0m518.74 433.67l0 -232.41"/>
    <path id="109" class="fil2 str0" d="M6595.53 2506.13l116.21 0 -116.21 -201.28 201.28 -116.2 -201.28 -116.21 0 232.41m0 -232.41l116.21 -201.26 201.27 116.2 -116.2 201.27 232.41 0 -116.21 -201.27 201.27 -116.2 116.2 201.26 -201.26 116.21 201.26 116.2 -116.2 201.28 -201.27 -116.21 116.21 -201.27m-116.21 -317.47l0 116.2m0 518.75l0 -116.21m-201.27 116.21l201.27 -116.21 -116.2 -201.27m317.47 317.48l116.2 0m-116.2 -634.95l116.2 0m-634.95 0l116.21 0m518.74 433.67l0 -232.41"/>
    <path id="110" class="fil2 str0" d="M7230.53 2506.13l116.21 0 -116.21 -201.28 201.28 -116.2 -201.28 -116.21 0 232.41m0 -232.41l116.21 -201.26 201.27 116.2 -116.2 201.27 232.41 0 -116.21 -201.27 201.27 -116.2 116.2 201.26 -201.26 116.21 201.26 116.2 -116.2 201.28 -201.27 -116.21 116.21 -201.27m-116.21 -317.47l0 116.2m0 518.75l0 -116.21m-201.27 116.21l201.27 -116.21 -116.2 -201.27m317.47 317.48l116.2 0m-116.2 -634.95l116.2 0m-634.95 0l116.21 0m518.74 433.67l0 -232.41"/>
    <path id="111" class="fil2 str0" d="M880.53 1871.13l116.2 0 -116.2 -201.28 201.27 -116.2 -201.27 -116.21 0 232.41m0 -232.41l116.2 -201.26 201.28 116.2 -116.21 201.27 232.41 0 -116.2 -201.27 201.26 -116.2 116.21 201.26 -201.27 116.21 201.27 116.2 -116.21 201.28 -201.26 -116.21 116.2 -201.27m-116.2 -317.47l0 116.2m0 518.75l0 -116.21m-201.28 116.21l201.28 -116.21 -116.21 -201.27m317.47 317.48l116.21 0m-116.21 -634.95l116.21 0m-634.95 0l116.2 0m518.75 433.67l0 -232.41"/>
    <path id="112" class="fil2 str0" d="M1515.53 1871.13l116.2 0 -116.2 -201.28 201.27 -116.2 -201.27 -116.21 0 232.41m0 -232.41l116.2 -201.26 201.28 116.2 -116.21 201.27 232.41 0 -116.2 -201.27 201.26 -116.2 116.21 201.26 -201.27 116.21 201.27 116.2 -116.21 201.28 -201.26 -116.21 116.2 -201.27m-116.2 -317.47l0 116.2m0 518.75l0 -116.21m-201.28 116.21l201.28 -116.21 -116.21 -201.27m317.47 317.48l116.21 0m-116.21 -634.95l116.21 0m-634.95 0l116.2 0m518.75 433.67l0 -232.41"/>
    <path id="113" class="fil2 str0" d="M2150.53 1871.13l116.2 0 -116.2 -201.28 201.27 -116.2 -201.27 -116.21 0 232.41m0 -232.41l116.2 -201.26 201.28 116.2 -116.21 201.27 232.41 0 -116.2 -201.27 201.26 -116.2 116.21 201.26 -201.27 116.21 201.27 116.2 -116.21 201.28 -201.26 -116.21 116.2 -201.27m-116.2 -317.47l0 116.2m0 518.75l0 -116.21m-201.28 116.21l201.28 -116.21 -116.21 -201.27m317.47 317.48l116.21 0m-116.21 -634.95l116.21 0m-634.95 0l116.2 0m518.75 433.67l0 -232.41"/>
    <path id="114" class="fil2 str0" d="M2785.53 1871.13l116.2 0 -116.2 -201.28 201.27 -116.2 -201.27 -116.21 0 232.41m0 -232.41l116.2 -201.26 201.28 116.2 -116.21 201.27 232.41 0 -116.2 -201.27 201.26 -116.2 116.21 201.26 -201.27 116.21 201.27 116.2 -116.21 201.28 -201.26 -116.21 116.2 -201.27m-116.2 -317.47l0 116.2m0 518.75l0 -116.21m-201.28 116.21l201.28 -116.21 -116.21 -201.27m317.47 317.48l116.21 0m-116.21 -634.95l116.21 0m-634.95 0l116.2 0m518.75 433.67l0 -232.41"/>
    <path id="115" class="fil2 str0" d="M3420.53 1871.13l116.2 0 -116.2 -201.28 201.27 -116.2 -201.27 -116.21 0 232.41m0 -232.41l116.2 -201.26 201.28 116.2 -116.21 201.27 232.42 0 -116.21 -201.27 201.27 -116.2 116.2 201.26 -201.26 116.21 201.26 116.2 -116.2 201.28 -201.27 -116.21 116.21 -201.27m-116.21 -317.47l0 116.2m0 518.75l0 -116.21m-201.28 116.21l201.28 -116.21 -116.21 -201.27m317.48 317.48l116.2 0m-116.2 -634.95l116.2 0m-634.95 0l116.2 0m518.75 433.67l0 -232.41"/>
    <path id="116" class="fil2 str0" d="M4055.53 1871.13l116.2 0 -116.2 -201.28 201.28 -116.2 -201.28 -116.21 0 232.41m0 -232.41l116.2 -201.26 201.28 116.2 -116.2 201.27 232.41 0 -116.21 -201.27 201.27 -116.2 116.2 201.26 -201.26 116.21 201.26 116.2 -116.2 201.28 -201.27 -116.21 116.21 -201.27m-116.21 -317.47l0 116.2m0 518.75l0 -116.21m-201.28 116.21l201.28 -116.21 -116.2 -201.27m317.47 317.48l116.2 0m-116.2 -634.95l116.2 0m-634.95 0l116.2 0m518.75 433.67l0 -232.41"/>
    <path id="117" class="fil2 str0" d="M4690.53 1871.13l116.21 0 -116.21 -201.28 201.28 -116.2 -201.28 -116.21 0 232.41m0 -232.41l116.21 -201.26 201.27 116.2 -116.2 201.27 232.41 0 -116.21 -201.27 201.27 -116.2 116.2 201.26 -201.26 116.21 201.26 116.2 -116.2 201.28 -201.27 -116.21 116.21 -201.27m-116.21 -317.47l0 116.2m0 518.75l0 -116.21m-201.27 116.21l201.27 -116.21 -116.2 -201.27m317.47 317.48l116.2 0m-116.2 -634.95l116.2 0m-634.95 0l116.21 0m518.74 433.67l0 -232.41"/>
    <path id="118" class="fil2 str0" d="M5325.53 1871.13l116.21 0 -116.21 -201.28 201.28 -116.2 -201.28 -116.21 0 232.41m0 -232.41l116.21 -201.26 201.27 116.2 -116.2 201.27 232.41 0 -116.21 -201.27 201.27 -116.2 116.2 201.26 -201.26 116.21 201.26 116.2 -116.2 201.28 -201.27 -116.21 116.21 -201.27m-116.21 -317.47l0 116.2m0 518.75l0 -116.21m-201.27 116.21l201.27 -116.21 -116.2 -201.27m317.47 317.48l116.2 0m-116.2 -634.95l116.2 0m-634.95 0l116.21 0m518.74 433.67l0 -232.41"/>
    <path id="119" class="fil2 str0" d="M5960.53 1871.13l116.21 0 -116.21 -201.28 201.28 -116.2 -201.28 -116.21 0 232.41m0 -232.41l116.21 -201.26 201.27 116.2 -116.2 201.27 232.41 0 -116.21 -201.27 201.27 -116.2 116.2 201.26 -201.26 116.21 201.26 116.2 -116.2 201.28 -201.27 -116.21 116.21 -201.27m-116.21 -317.47l0 116.2m0 518.75l0 -116.21m-201.27 116.21l201.27 -116.21 -116.2 -201.27m317.47 317.48l116.2 0m-116.2 -634.95l116.2 0m-634.95 0l116.21 0m518.74 433.67l0 -232.41"/>
    <path id="120" class="fil2 str0" d="M6595.53 1871.13l116.21 0 -116.21 -201.28 201.28 -116.2 -201.28 -116.21 0 232.41m0 -232.41l116.21 -201.26 201.27 116.2 -116.2 201.27 232.41 0 -116.21 -201.27 201.27 -116.2 116.2 201.26 -201.26 116.21 201.26 116.2 -116.2 201.28 -201.27 -116.21 116.21 -201.27m-116.21 -317.47l0 116.2m0 518.75l0 -116.21m-201.27 116.21l201.27 -116.21 -116.2 -201.27m317.47 317.48l116.2 0m-116.2 -634.95l116.2 0m-634.95 0l116.21 0m518.74 433.67l0 -232.41"/>
    <path id="121" class="fil2 str0" d="M7230.53 1871.13l116.21 0 -116.21 -201.28 201.28 -116.2 -201.28 -116.21 0 232.41m0 -232.41l116.21 -201.26 201.27 116.2 -116.2 201.27 232.41 0 -116.21 -201.27 201.27 -116.2 116.2 201.26 -201.26 116.21 201.26 116.2 -116.2 201.28 -201.27 -116.21 116.21 -201.27m-116.21 -317.47l0 116.2m0 518.75l0 -116.21m-201.27 116.21l201.27 -116.21 -116.2 -201.27m317.47 317.48l116.2 0m-116.2 -634.95l116.2 0m-634.95 0l116.21 0m518.74 433.67l0 -232.41"/>
    <path id="122" class="fil2 str0" d="M880.53 1236.13l116.2 0 -116.2 -201.28 201.27 -116.2 -201.27 -116.21 0 232.41m0 -232.41l116.2 -201.26 201.28 116.2 -116.21 201.27 232.41 0 -116.2 -201.27 201.26 -116.2 116.21 201.26 -201.27 116.21 201.27 116.2 -116.21 201.28 -201.26 -116.21 116.2 -201.27m-116.2 -317.47l0 116.2m0 518.75l0 -116.21m-201.28 116.21l201.28 -116.21 -116.21 -201.27m317.47 317.48l116.21 0m-116.21 -634.95l116.21 0m-634.95 0l116.2 0m518.75 433.67l0 -232.41"/>
    <path id="123" class="fil2 str0" d="M1515.53 1236.13l116.2 0 -116.2 -201.28 201.27 -116.2 -201.27 -116.21 0 232.41m0 -232.41l116.2 -201.26 201.28 116.2 -116.21 201.27 232.41 0 -116.2 -201.27 201.26 -116.2 116.21 201.26 -201.27 116.21 201.27 116.2 -116.21 201.28 -201.26 -116.21 116.2 -201.27m-116.2 -317.47l0 116.2m0 518.75l0 -116.21m-201.28 116.21l201.28 -116.21 -116.21 -201.27m317.47 317.48l116.21 0m-116.21 -634.95l116.21 0m-634.95 0l116.2 0m518.75 433.67l0 -232.41"/>
    <path id="124" class="fil2 str0" d="M2150.53 1236.13l116.2 0 -116.2 -201.28 201.27 -116.2 -201.27 -116.21 0 232.41m0 -232.41l116.2 -201.26 201.28 116.2 -116.21 201.27 232.41 0 -116.2 -201.27 201.26 -116.2 116.21 201.26 -201.27 116.21 201.27 116.2 -116.21 201.28 -201.26 -116.21 116.2 -201.27m-116.2 -317.47l0 116.2m0 518.75l0 -116.21m-201.28 116.21l201.28 -116.21 -116.21 -201.27m317.47 317.48l116.21 0m-116.21 -634.95l116.21 0m-634.95 0l116.2 0m518.75 433.67l0 -232.41"/>
    <path id="125" class="fil2 str0" d="M2785.53 1236.13l116.2 0 -116.2 -201.28 201.27 -116.2 -201.27 -116.21 0 232.41m0 -232.41l116.2 -201.26 201.28 116.2 -116.21 201.27 232.41 0 -116.2 -201.27 201.26 -116.2 116.21 201.26 -201.27 116.21 201.27 116.2 -116.21 201.28 -201.26 -116.21 116.2 -201.27m-116.2 -317.47l0 116.2m0 518.75l0 -116.21m-201.28 116.21l201.28 -116.21 -116.21 -201.27m317.47 317.48l116.21 0m-116.21 -634.95l116.21 0m-634.95 0l116.2 0m518.75 433.67l0 -232.41"/>
    <path id="126" class="fil2 str0" d="M3420.53 1236.13l116.2 0 -116.2 -201.28 201.27 -116.2 -201.27 -116.21 0 232.41m0 -232.41l116.2 -201.26 201.28 116.2 -116.21 201.27 232.42 0 -116.21 -201.27 201.27 -116.2 116.2 201.26 -201.26 116.21 201.26 116.2 -116.2 201.28 -201.27 -116.21 116.21 -201.27m-116.21 -317.47l0 116.2m0 518.75l0 -116.21m-201.28 116.21l201.28 -116.21 -116.21 -201.27m317.48 317.48l116.2 0m-116.2 -634.95l116.2 0m-634.95 0l116.2 0m518.75 433.67l0 -232.41"/>
    <path id="127" class="fil2 str0" d="M4055.53 1236.13l116.2 0 -116.2 -201.28 201.28 -116.2 -201.28 -116.21 0 232.41m0 -232.41l116.2 -201.26 201.28 116.2 -116.2 201.27 232.41 0 -116.21 -201.27 201.27 -116.2 116.2 201.26 -201.26 116.21 201.26 116.2 -116.2 201.28 -201.27 -116.21 116.21 -201.27m-116.21 -317.47l0 116.2m0 518.75l0 -116.21m-201.28 116.21l201.28 -116.21 -116.2 -201.27m317.47 317.48l116.2 0m-116.2 -634.95l116.2 0m-634.95 0l116.2 0m518.75 433.67l0 -232.41"/>
    <path id="128" class="fil2 str0" d="M4690.53 1236.13l116.21 0 -116.21 -201.28 201.28 -116.2 -201.28 -116.21 0 232.41m0 -232.41l116.21 -201.26 201.27 116.2 -116.2 201.27 232.41 0 -116.21 -201.27 201.27 -116.2 116.2 201.26 -201.26 116.21 201.26 116.2 -116.2 201.28 -201.27 -116.21 116.21 -201.27m-116.21 -317.47l0 116.2m0 518.75l0 -116.21m-201.27 116.21l201.27 -116.21 -116.2 -201.27m317.47 317.48l116.2 0m-116.2 -634.95l116.2 0m-634.95 0l116.21 0m518.74 433.67l0 -232.41"/>
    <path id="129" class="fil2 str0" d="M5325.53 1236.13l116.21 0 -116.21 -201.28 201.28 -116.2 -201.28 -116.21 0 232.41m0 -232.41l116.21 -201.26 201.27 116.2 -116.2 201.27 232.41 0 -116.21 -201.27 201.27 -116.2 116.2 201.26 -201.26 116.21 201.26 116.2 -116.2 201.28 -201.27 -116.21 116.21 -201.27m-116.21 -317.47l0 116.2m0 518.75l0 -116.21m-201.27 116.21l201.27 -116.21 -116.2 -201.27m317.47 317.48l116.2 0m-116.2 -634.95l116.2 0m-634.95 0l116.21 0m518.74 433.67l0 -232.41"/>
    <path id="130" class="fil2 str0" d="M5960.53 1236.13l116.21 0 -116.21 -201.28 201.28 -116.2 -201.28 -116.21 0 232.41m0 -232.41l116.21 -201.26 201.27 116.2 -116.2 201.27 232.41 0 -116.21 -201.27 201.27 -116.2 116.2 201.26 -201.26 116.21 201.26 116.2 -116.2 201.28 -201.27 -116.21 116.21 -201.27m-116.21 -317.47l0 116.2m0 518.75l0 -116.21m-201.27 116.21l201.27 -116.21 -116.2 -201.27m317.47 317.48l116.2 0m-116.2 -634.95l116.2 0m-634.95 0l116.21 0m518.74 433.67l0 -232.41"/>
    <path id="131" class="fil2 str0" d="M6595.53 1236.13l116.21 0 -116.21 -201.28 201.28 -116.2 -201.28 -116.21 0 232.41m0 -232.41l116.21 -201.26 201.27 116.2 -116.2 201.27 232.41 0 -116.21 -201.27 201.27 -116.2 116.2 201.26 -201.26 116.21 201.26 116.2 -116.2 201.28 -201.27 -116.21 116.21 -201.27m-116.21 -317.47l0 116.2m0 518.75l0 -116.21m-201.27 116.21l201.27 -116.21 -116.2 -201.27m317.47 317.48l116.2 0m-116.2 -634.95l116.2 0m-634.95 0l116.21 0m518.74 433.67l0 -232.41"/>
    <path id="132" class="fil2 str0" d="M7230.53 1236.13l116.21 0 -116.21 -201.28 201.28 -116.2 -201.28 -116.21 0 232.41m0 -232.41l116.21 -201.26 201.27 116.2 -116.2 201.27 232.41 0 -116.21 -201.27 201.27 -116.2 116.2 201.26 -201.26 116.21 201.26 116.2 -116.2 201.28 -201.27 -116.21 116.21 -201.27m-116.21 -317.47l0 116.2m0 518.75l0 -116.21m-201.27 116.21l201.27 -116.21 -116.2 -201.27m317.47 317.48l116.2 0m-116.2 -634.95l116.2 0m-634.95 0l116.21 0m518.74 433.67l0 -232.41"/>
    <path id="133" class="fil2 str0" d="M880.53 601.13l116.2 0 -116.2 -201.28 201.27 -116.2 -201.27 -116.21 0 232.41m0 -232.41l116.2 -201.26 201.28 116.2 -116.21 201.27 232.41 0 -116.2 -201.27 201.26 -116.2 116.21 201.26 -201.27 116.21 201.27 116.2 -116.21 201.28 -201.26 -116.21 116.2 -201.27m-116.2 -317.47l0 116.2m0 518.75l0 -116.21m-201.28 116.21l201.28 -116.21 -116.21 -201.27m317.47 317.48l116.21 0m-116.21 -634.95l116.21 0m-634.95 0l116.2 0m518.75 433.67l0 -232.41"/>
    <path id="134" class="fil2 str0" d="M1515.53 601.13l116.2 0 -116.2 -201.28 201.27 -116.2 -201.27 -116.21 0 232.41m0 -232.41l116.2 -201.26 201.28 116.2 -116.21 201.27 232.41 0 -116.2 -201.27 201.26 -116.2 116.21 201.26 -201.27 116.21 201.27 116.2 -116.21 201.28 -201.26 -116.21 116.2 -201.27m-116.2 -317.47l0 116.2m0 518.75l0 -116.21m-201.28 116.21l201.28 -116.21 -116.21 -201.27m317.47 317.48l116.21 0m-116.21 -634.95l116.21 0m-634.95 0l116.2 0m518.75 433.67l0 -232.41"/>
    <path id="135" class="fil2 str0" d="M2150.53 601.13l116.2 0 -116.2 -201.28 201.27 -116.2 -201.27 -116.21 0 232.41m0 -232.41l116.2 -201.26 201.28 116.2 -116.21 201.27 232.41 0 -116.2 -201.27 201.26 -116.2 116.21 201.26 -201.27 116.21 201.27 116.2 -116.21 201.28 -201.26 -116.21 116.2 -201.27m-116.2 -317.47l0 116.2m0 518.75l0 -116.21m-201.28 116.21l201.28 -116.21 -116.21 -201.27m317.47 317.48l116.21 0m-116.21 -634.95l116.21 0m-634.95 0l116.2 0m518.75 433.67l0 -232.41"/>
    <path id="136" class="fil2 str0" d="M2785.53 601.13l116.2 0 -116.2 -201.28 201.27 -116.2 -201.27 -116.21 0 232.41m0 -232.41l116.2 -201.26 201.28 116.2 -116.21 201.27 232.41 0 -116.2 -201.27 201.26 -116.2 116.21 201.26 -201.27 116.21 201.27 116.2 -116.21 201.28 -201.26 -116.21 116.2 -201.27m-116.2 -317.47l0 116.2m0 518.75l0 -116.21m-201.28 116.21l201.28 -116.21 -116.21 -201.27m317.47 317.48l116.21 0m-116.21 -634.95l116.21 0m-634.95 0l116.2 0m518.75 433.67l0 -232.41"/>
    <path id="137" class="fil2 str0" d="M3420.53 601.13l116.2 0 -116.2 -201.28 201.27 -116.2 -201.27 -116.21 0 232.41m0 -232.41l116.2 -201.26 201.28 116.2 -116.21 201.27 232.42 0 -116.21 -201.27 201.27 -116.2 116.2 201.26 -201.26 116.21 201.26 116.2 -116.2 201.28 -201.27 -116.21 116.21 -201.27m-116.21 -317.47l0 116.2m0 518.75l0 -116.21m-201.28 116.21l201.28 -116.21 -116.21 -201.27m317.48 317.48l116.2 0m-116.2 -634.95l116.2 0m-634.95 0l116.2 0m518.75 433.67l0 -232.41"/>
    <path id="138" class="fil2 str0" d="M4055.53 601.13l116.2 0 -116.2 -201.28 201.28 -116.2 -201.28 -116.21 0 232.41m0 -232.41l116.2 -201.26 201.28 116.2 -116.2 201.27 232.41 0 -116.21 -201.27 201.27 -116.2 116.2 201.26 -201.26 116.21 201.26 116.2 -116.2 201.28 -201.27 -116.21 116.21 -201.27m-116.21 -317.47l0 116.2m0 518.75l0 -116.21m-201.28 116.21l201.28 -116.21 -116.2 -201.27m317.47 317.48l116.2 0m-116.2 -634.95l116.2 0m-634.95 0l116.2 0m518.75 433.67l0 -232.41"/>
    <path id="139" class="fil2 str0" d="M4690.53 601.13l116.21 0 -116.21 -201.28 201.28 -116.2 -201.28 -116.21 0 232.41m0 -232.41l116.21 -201.26 201.27 116.2 -116.2 201.27 232.41 0 -116.21 -201.27 201.27 -116.2 116.2 201.26 -201.26 116.21 201.26 116.2 -116.2 201.28 -201.27 -116.21 116.21 -201.27m-116.21 -317.47l0 116.2m0 518.75l0 -116.21m-201.27 116.21l201.27 -116.21 -116.2 -201.27m317.47 317.48l116.2 0m-116.2 -634.95l116.2 0m-634.95 0l116.21 0m518.74 433.67l0 -232.41"/>
    <path id="140" class="fil2 str0" d="M5325.53 601.13l116.21 0 -116.21 -201.28 201.28 -116.2 -201.28 -116.21 0 232.41m0 -232.41l116.21 -201.26 201.27 116.2 -116.2 201.27 232.41 0 -116.21 -201.27 201.27 -116.2 116.2 201.26 -201.26 116.21 201.26 116.2 -116.2 201.28 -201.27 -116.21 116.21 -201.27m-116.21 -317.47l0 116.2m0 518.75l0 -116.21m-201.27 116.21l201.27 -116.21 -116.2 -201.27m317.47 317.48l116.2 0m-116.2 -634.95l116.2 0m-634.95 0l116.21 0m518.74 433.67l0 -232.41"/>
    <path id="141" class="fil2 str0" d="M5960.53 601.13l116.21 0 -116.21 -201.28 201.28 -116.2 -201.28 -116.21 0 232.41m0 -232.41l116.21 -201.26 201.27 116.2 -116.2 201.27 232.41 0 -116.21 -201.27 201.27 -116.2 116.2 201.26 -201.26 116.21 201.26 116.2 -116.2 201.28 -201.27 -116.21 116.21 -201.27m-116.21 -317.47l0 116.2m0 518.75l0 -116.21m-201.27 116.21l201.27 -116.21 -116.2 -201.27m317.47 317.48l116.2 0m-116.2 -634.95l116.2 0m-634.95 0l116.21 0m518.74 433.67l0 -232.41"/>
    <path id="142" class="fil2 str0" d="M6595.53 601.13l116.21 0 -116.21 -201.28 201.28 -116.2 -201.28 -116.21 0 232.41m0 -232.41l116.21 -201.26 201.27 116.2 -116.2 201.27 232.41 0 -116.21 -201.27 201.27 -116.2 116.2 201.26 -201.26 116.21 201.26 116.2 -116.2 201.28 -201.27 -116.21 116.21 -201.27m-116.21 -317.47l0 116.2m0 518.75l0 -116.21m-201.27 116.21l201.27 -116.21 -116.2 -201.27m317.47 317.48l116.2 0m-116.2 -634.95l116.2 0m-634.95 0l116.21 0m518.74 433.67l0 -232.41"/>
    <path id="143" class="fil2 str0" d="M7230.53 601.13l116.21 0 -116.21 -201.28 201.28 -116.2 -201.28 -116.21 0 232.41m0 -232.41l116.21 -201.26 201.27 116.2 -116.2 201.27 232.41 0 -116.21 -201.27 201.27 -116.2 116.2 201.26 -201.26 116.21 201.26 116.2 -116.2 201.28 -201.27 -116.21 116.21 -201.27m-116.21 -317.47l0 116.2m0 518.75l0 -116.21m-201.27 116.21l201.27 -116.21 -116.2 -201.27m317.47 317.48l116.2 0m-116.2 -634.95l116.2 0m-634.95 0l116.21 0m518.74 433.67l0 -232.41"/>
   </g>
   <g style="clip-path:url(#id2)">
   </g>
   <path id="144" class="fil2 str1" d="M4209.92 8170.33c-1092.37,0 -1912.6,-319.72 -2460.69,-959.15 -548.08,-639.44 -822.13,-1596.69 -822.13,-2871.77 0,-835.44 131.31,-1551.01 397.74,-2142.86 266.44,-593.76 656.57,-1044.8 1174.21,-1353.1 515.74,-308.3 1130.43,-462.45 1844.09,-462.45 1111.4,0 1946.85,319.72 2504.46,957.26 557.61,635.62 835.46,1583.36 835.46,2839.4 0,702.24 -81.84,1305.51 -247.4,1809.83 -165.57,504.32 -401.56,917.28 -706.05,1240.81 -304.49,323.53 -669.88,561.41 -1094.27,713.66 -426.3,152.25 -900.17,228.37 -1425.42,228.37zm-1511.04 -3981.26c0,1122.82 135.11,1958.28 405.36,2506.36 268.33,548.1 681.3,822.14 1235.09,822.14 285.47,0 529.06,-76.13 728.89,-230.27 201.73,-156.06 363.48,-371.11 489.09,-647.05 123.7,-277.85 213.14,-605.18 266.43,-983.9 55.19,-380.62 81.83,-795.48 81.83,-1250.32 0,-738.4 -59,-1358.81 -176.98,-1859.32 -116.1,-498.61 -293.08,-877.32 -529.06,-1130.43 -235.99,-255.01 -538.58,-382.52 -905.87,-382.52 -538.58,0 -940.12,256.91 -1200.85,772.66 -262.62,513.82 -393.93,1309.31 -393.93,2382.65z"/>
  </g>
  <path class="fil3 str2" d="M3341.47 7437.26c-234.09,248.21 -465.83,423.48 -695.22,527 -230.56,103.52 -494.06,155.28 -792.85,155.28 -535.23,0 -938.71,-147.04 -1208.09,-439.95 -270.56,-292.91 -404.66,-726.98 -404.66,-1304.55 0,-371.73 69.4,-692.87 208.21,-962.25 138.81,-270.55 336.43,-475.23 590.52,-614.04 255.27,-138.81 551.7,-208.21 889.31,-208.21 209.39,0 392.89,23.52 549.35,71.75 157.63,48.23 292.9,115.28 405.83,202.33 111.75,85.88 205.86,189.39 278.79,311.73 87.05,144.69 152.93,310.55 196.45,496.41 45.88,190.57 70.58,421.13 71.76,692.86l-2184.45 0c2.35,415.25 76.46,721.1 222.32,917.54 145.87,196.45 368.2,295.26 666.98,295.26 174.1,0 331.73,-32.93 471.71,-98.81 139.99,-64.7 291.73,-179.98 455.24,-345.84l278.8 303.49zm-930.48 -1444.53c-9.41,-351.73 -55.29,-612.87 -137.63,-785.79 -82.35,-171.75 -215.27,-257.62 -399.96,-257.62 -176.45,0 -317.61,89.4 -422.3,268.2 -103.52,178.81 -167.04,437.6 -187.04,775.21l1146.93 0z"/>
 </g>
</svg>
