<?xml version="1.0" encoding="UTF-8"?>
<!DOCTYPE svg PUBLIC "-//W3C//DTD SVG 1.1//EN" "http://www.w3.org/Graphics/SVG/1.1/DTD/svg11.dtd">
<!-- Creator: CorelDRAW (Evaluation Version) -->
<svg xmlns="http://www.w3.org/2000/svg" xml:space="preserve" width="210mm" height="297mm" version="1.1" style="shape-rendering:geometricPrecision; text-rendering:geometricPrecision; image-rendering:optimizeQuality; fill-rule:evenodd; clip-rule:evenodd"
viewBox="0 0 21000 29700"
 xmlns:xlink="http://www.w3.org/1999/xlink"
 xmlns:xodm="http://www.corel.com/coreldraw/odm/2003"
 enable-background="new 0 0 1000 750">
 <defs>
  <style type="text/css">
   <![CDATA[
    .fil0 {fill:#0080FF;fill-rule:nonzero}
    .fil7 {fill:#0382FF;fill-rule:nonzero}
    .fil8 {fill:#0482FF;fill-rule:nonzero}
    .fil9 {fill:#0F87FF;fill-rule:nonzero}
    .fil4 {fill:#F8FCFF;fill-rule:nonzero}
    .fil10 {fill:#F9FCFF;fill-rule:nonzero}
    .fil1 {fill:#FAFDFF;fill-rule:nonzero}
    .fil5 {fill:#FBFDFF;fill-rule:nonzero}
    .fil2 {fill:#FCFDFF;fill-rule:nonzero}
    .fil3 {fill:#FDFEFF;fill-rule:nonzero}
    .fil11 {fill:#FEFEFF;fill-rule:nonzero}
    .fil6 {fill:white;fill-rule:nonzero}
   ]]>
  </style>
 </defs>
 <g id="Layer_x0020_1">
  <metadata id="CorelCorpID_0Corel-Layer"/>
  <g>
   <path class="fil0" d="M12553.54 25995.64c-5418.76,0 -10822.8,0 -16226.84,0 0,-7362.45 0,-14724.9 0,-22087.35 9816.6,0 19633.2,0 29449.8,0 0,7362.45 0,14724.9 0,22087.35 -4402.74,0 -8805.49,0 -13222.96,0l0 0zm-5163.02 -7452.17c-12.54,-10.79 -24.95,-30.81 -37.61,-30.97 -186.41,-2.41 -373.09,-7.26 -559.07,1.71 -37.73,1.83 -91.8,51.33 -106.08,90.58 -100.25,275.83 -197.99,552.9 -285.19,833.11 -130.85,420.47 -117.75,842.68 25.58,1257.29 148.66,430 389.69,810.46 849.52,926.3 654.09,164.79 1320.02,291.03 1987.05,393.84 771.55,118.94 1551.92,143.14 2348.08,100.83 0,211.34 -0.86,421.43 0.19,631.5 2.24,444.65 278.28,733.57 721.76,736.02 912.55,5.05 1825.18,5.35 2737.73,-0.22 435.2,-2.66 715.9,-292.17 716.59,-726.71 1.95,-1251.12 2.54,-2502.26 -2.56,-3753.38 -0.43,-108.82 -36.85,-220.94 -74.14,-325.25 -42.67,-119.37 -125.86,-173.13 -269.02,-172.27 -1143.14,6.96 -2286.34,3.89 -3429.52,3.89 -247.24,0 -315.52,49.46 -374,289.7 -19.45,79.88 -25.73,164.68 -25.93,247.27 -1.89,760.48 -1.12,1520.97 -1.12,2281.46 0,51.37 0,102.72 0,155.28 -1384.69,59.02 -2724.74,-80.53 -4045.2,-417.78 -205.64,-52.52 -351.88,-167.79 -453.78,-344.08 -151.95,-262.89 -238.61,-555.06 -160.7,-847.39 118.03,-442.84 282.72,-873.22 437.42,-1330.73l0 0zm4625.17 -5030.38c-21.97,42.25 -43.93,84.51 -75.64,145.5 207.73,0 397.39,-5.67 586.47,2.38 94.35,4.02 137.88,-33.25 176.07,-114.13 306.93,-649.87 534.67,-1325.39 669.41,-2031.71 128.85,-675.32 46.99,-1307.49 -380.65,-1870.22 -629.17,-827.96 -1790.79,-1171.34 -2820.9,-832.08 -1043.97,343.84 -1698.42,1253.43 -1613.66,2277.2 72.43,874.74 350.42,1694.56 726.69,2482.76 16.35,34.24 56.25,80.34 86.37,81.25 227.02,6.85 454.33,3.73 701.54,3.73 -25.62,-50.26 -37.46,-75.89 -51.34,-100.38 -363.12,-640.7 -605.13,-1326.01 -752.56,-2045.96 -88.91,-434.16 -124.51,-863.13 91.07,-1277.65 412.23,-792.62 1425.75,-1150.63 2326.89,-817.2 784.18,290.14 1214.94,987.44 1094.63,1801.66 -118.4,801.24 -367.73,1561.94 -764.39,2294.85l0 0zm-6921.18 3538.28c418.96,-94.57 683.42,-336.61 727.85,-742.89 35.46,-324.3 35.69,-658.46 1.09,-982.87 -41.97,-393.64 -288.49,-661.26 -675.51,-741.07 -233.97,-48.25 -489.48,-50.85 -726.17,-14.47 -429.83,66.08 -697.33,342.5 -744.79,775.23 -33.98,309.73 -32.86,629.05 0.25,939.02 44.99,421.13 303,689.74 722.6,759.18 218.54,36.17 447.01,12.22 694.68,7.87l0 0zm2345.16 -2199.86c0,159.51 0,319.01 0,505.21 -48.23,-30.95 -71.23,-45.38 -93.9,-60.29 -466.46,-306.8 -1051.25,-75.67 -1146.05,473.86 -40.79,236.44 -35.04,490.31 0.98,728.48 58.22,385 358.73,617.18 741.32,583.33 176.8,-15.64 347.82,-96.58 519.88,-147.45 -3.51,114.06 96.24,126.92 216.13,116.79 63.3,-5.34 128.09,-6.86 191.05,0.27 141.61,16.01 186.72,-41.19 185.43,-183.32 -6.13,-676.69 -1.64,-1353.47 -3.21,-2030.21 -0.77,-333.08 47.62,-311.71 -318.9,-311.74 -292.66,-0.01 -292.66,0.03 -292.73,325.07l0 0zm12232.09 1862.39c72.13,86.63 141.16,176.14 217.93,258.46 31.24,33.5 78.28,70.75 119.86,72.9 166.22,8.61 333.3,8.86 499.69,2.49 87.31,-3.33 111.16,-57.63 58.38,-130.28 -46.01,-63.31 -98.5,-121.93 -148.27,-182.52 -191.78,-233.43 -383.62,-466.82 -577.78,-703.07 177.51,-191.86 346.36,-369.31 508.71,-552.5 58.68,-66.22 101.8,-146.22 152.03,-219.93 -90.38,-18.69 -180.48,-38.93 -271.2,-55.77 -248.74,-46.18 -431.06,47.73 -575.07,252.89 -81,115.37 -189.94,211.15 -313.46,345.25 0,-99.98 0.01,-153.45 0,-206.92 -0.04,-303.95 -2.76,-607.95 1.23,-911.84 1.47,-112.04 -39.14,-163.66 -154.53,-157.91 -102.69,5.11 -205.89,3.24 -308.77,0.8 -94.35,-2.26 -131.7,43.39 -131.6,134.35 0.82,750.06 0.87,1500.13 -0.17,2250.19 -0.12,96.51 35.5,146.62 139.2,141.2 92.9,-4.85 186.87,-7.81 279.24,0.69 138.1,12.71 183.06,-47.36 177.17,-179.22 -7.45,-167.21 -1.8,-334.97 -1.8,-502.5 12.12,-2.55 24.23,-5.1 36.36,-7.66 93.04,111.69 186.06,223.39 292.85,350.9l0 0zm-4228.7 -1405.02c-0.2,519.99 3.72,1040.03 -3.23,1559.93 -1.92,143.8 48.57,196.4 188.37,183.04 82.64,-7.9 166.66,-1.08 250.04,-1.52 181.72,-0.96 186.35,-5.47 186.73,-193.29 0.56,-284.51 -3.72,-569.12 1.91,-853.52 4.65,-234.98 118.72,-355.59 320.62,-356.4 202.42,-0.81 312.62,112.65 315.98,340.05 4.5,304.07 4.06,608.3 0.2,912.39 -1.32,104.37 32.28,156.17 142.99,151.8 117.54,-4.64 235.44,-2.61 353.14,-0.68 82.33,1.35 129.93,-26.87 129.16,-118.03 -3.14,-367.87 10.73,-736.57 -9.57,-1103.43 -25.11,-454.41 -383.61,-730.36 -832.37,-644.19 -156.17,29.98 -301.13,118.38 -449.31,179.33 20.15,-129.97 -55.2,-172.76 -189.35,-161.9 -92.6,7.5 -187.34,-6.48 -279.04,5.34 -43.84,5.65 -82.84,48.94 -126.27,101.08l0 0zm-3681.06 1448.58c288.18,349.54 668.78,373.23 1071.82,293.74 223.92,-44.16 411.64,-158.42 529.52,-362.3 74.79,-129.34 45.5,-178.51 -100.17,-181.19 -112.75,-2.07 -226.21,-7.63 -338.07,2.6 -57.68,5.27 -125.05,28.12 -166.21,66.46 -107.01,99.66 -219.41,148.54 -359.3,85.11 -122.31,-55.47 -179.19,-191.83 -154.09,-371.52 344.91,0 692.04,-3.37 1039.04,1.85 118.84,1.8 164.26,-35.89 164.28,-160.08 0.11,-890.21 -741.86,-1100.36 -1326.34,-893.65 -209.97,74.26 -366.11,218.82 -441.45,425.6 -132.96,364.91 -136.02,728.78 80.97,1093.38l0 0zm-8568.71 -250c-122.58,-0.01 -245.64,-6.3 -367.53,2.88 -52.78,3.96 -114.41,27.78 -152.44,63.45 -105.66,99.08 -218.63,154.87 -358.2,89.08 -149.15,-70.3 -171.94,-208.61 -181.25,-372.41 63.67,0 116.32,0 168.97,0 304.01,-0.04 608.01,-0.76 912.02,0.33 82.89,0.3 144.82,-15.93 146.97,-118.03 11.79,-560.22 -278.84,-924.56 -724.03,-988.13 -608.06,-86.83 -1028.26,178.01 -1113.44,721.45 -26.73,170.5 -14.98,353.72 14.66,524.98 60.75,351.03 308.48,586.33 661.87,634.63 158.18,21.62 324.8,22.7 482.33,-1.35 249.87,-38.16 465.92,-151.99 594.98,-385.12 39.62,-71.57 74.01,-152.57 -84.91,-171.76l0 0zm10439.25 -1247.98c-4.25,53.36 -11.81,106.7 -12.17,160.11 -1.68,244.27 -0.95,243.9 238.78,246.98 42.37,0.53 84.68,5.68 137.35,9.44 0,256.69 -5.2,501.56 1.26,746.1 8.96,339.12 191.02,559.42 522.29,609.91 173.01,26.38 352.3,18.06 528.34,12.31 33.97,-1.11 89.43,-59.52 95.19,-97.52 51.84,-341.38 26.69,-368.39 -317.75,-378.93 -9.8,-0.31 -19.61,-0.3 -29.42,-0.41 -123.83,-1.49 -200.09,-70.04 -204.8,-186.81 -9.41,-233.33 -2.79,-467.3 -2.79,-714.45 85.39,0 157.88,0.31 230.37,-0.05 336.59,-1.64 294.92,33.09 301.66,-314.52 2.1,-108.51 -39.29,-151.88 -145.93,-148.47 -125.81,4.01 -251.82,0.94 -390.52,0.94 0,-99.81 1.39,-182.28 -0.22,-264.7 -9.31,-475.4 83.93,-403.95 -425.3,-414.5 -130.45,-2.69 -172.7,48.4 -166.28,174.42 8.36,164.31 2.03,329.36 2.03,482.85 -131.05,20.98 -239.96,38.42 -362.09,77.3l0 0zm-4532.57 508.2c-24.42,-63.99 -49.42,-127.75 -73.14,-191.98 -143.36,-388.25 -143.26,-388.29 -555.32,-371.81 -4.9,0.19 -9.81,0.25 -14.7,0.15 -107.97,-2.4 -144.82,46.29 -103.66,147.52 215.64,530.22 430.48,1060.78 650.3,1589.25 17.91,43.06 68.83,98.37 108.38,101.75 140.99,12.09 284.04,9.29 425.52,0.14 33.56,-2.16 79.45,-44.53 93.75,-79.13 224.35,-542.52 444.24,-1086.87 665.71,-1630.57 34.37,-84.39 -3.87,-123.04 -83.24,-127.02 -97.81,-4.93 -196.54,4.34 -293.95,-3.73 -121.37,-10.07 -185.21,34.8 -226.2,153.78 -112.67,327.05 -238.63,649.52 -372.44,1009.01 -79.09,-212.62 -146.59,-394.07 -221.01,-597.36l0 0zm1668.54 1924.91c311.53,-85.16 469.46,-302.06 476.07,-612.12 12.44,-583.36 5.46,-1167.14 7.23,-1750.73 0.25,-85.04 -38.2,-126.88 -124.49,-125.92 -107.89,1.17 -216.33,6.76 -323.57,-1.73 -138.63,-10.96 -175.75,48.47 -174.19,180.77 6.16,519.81 3.41,1039.73 2.06,1559.62 -0.69,265.24 -36.46,298.37 -299.4,322 -45.83,4.1 -123.1,37.79 -126.71,65.53 -14.39,110.55 -11.32,224.73 -0.28,336.15 2.31,23.43 65.98,58.52 100.86,57.91 146.32,-2.51 292.45,-16.54 462.42,-31.48l0 0zm6966.12 -2048.2c0,328.19 0,656.38 0,984.57 0,427.84 0,423.69 427.54,423.77 128.22,0.04 170.55,-41.76 169.07,-170.12 -5.77,-499.58 -7.39,-999.33 0.75,-1498.84 2.4,-146.96 -51.9,-183.12 -188.07,-182.03 -409.24,3.28 -409.29,-1.12 -409.29,442.65l0 0zm-6479.89 -838.87c-4.11,-379.54 53.37,-370.41 -296.17,-367.1 -367.52,3.47 -330.76,-62.62 -331.28,374.58 -0.11,88.33 43.51,123.26 127.22,122.52 122.62,-1.08 246.4,9.28 367.37,-4.97 47.31,-5.58 88.35,-64.54 132.86,-125.03l0 0zm6988.77 -364.02c-53.77,-0.99 -107.55,-3.38 -161.3,-2.76 -400.43,4.56 -344.69,-54.93 -351.07,366.68 -1.47,97.08 43.67,131.1 133.04,129.87 112.47,-1.57 225.08,2.34 337.4,-2 36.48,-1.42 81.42,-11.56 106.47,-34.9 56.72,-52.88 24.74,-380.49 -64.54,-456.89z"/>
  </g>
  <g>
   <path class="fil1" d="M7385.59 18554.38c-149.77,446.6 -314.46,876.98 -432.49,1319.82 -77.91,292.33 8.75,584.5 160.7,847.39 101.9,176.29 248.14,291.56 453.78,344.08 1320.46,337.25 2660.51,476.8 4045.2,417.78 0,-52.56 0,-103.91 0,-155.28 0,-760.49 -0.77,-1520.98 1.12,-2281.46 0.2,-82.59 6.48,-167.39 25.93,-247.27 58.48,-240.24 126.76,-289.7 374,-289.7 1143.18,0 2286.38,3.07 3429.52,-3.89 143.16,-0.86 226.35,52.9 269.02,172.27 37.29,104.31 73.71,216.43 74.14,325.25 5.1,1251.12 4.51,2502.26 2.56,3753.38 -0.69,434.54 -281.39,724.05 -716.59,726.71 -912.55,5.57 -1825.18,5.27 -2737.73,0.22 -443.48,-2.45 -719.52,-291.37 -721.76,-736.02 -1.05,-210.07 -0.19,-420.16 -0.19,-631.5 -796.16,42.31 -1576.53,18.11 -2348.08,-100.83 -667.03,-102.81 -1332.96,-229.05 -1987.05,-393.84 -459.83,-115.84 -700.86,-496.3 -849.52,-926.3 -143.33,-414.61 -156.43,-836.82 -25.58,-1257.29 87.2,-280.21 184.94,-557.28 285.19,-833.11 14.28,-39.25 68.35,-88.75 106.08,-90.58 185.98,-8.97 372.66,-4.12 559.07,-1.71 12.66,0.16 25.07,20.18 32.68,41.88l0 0zm7976.9 3244.68c-0.02,-922.05 0.65,-1844.11 -0.57,-2766.14 -0.31,-232.55 -91.03,-329.4 -315.83,-329.92 -897.52,-2.09 -1795.05,-2.12 -2692.55,0.04 -217.43,0.52 -314.48,98.69 -314.78,317.18 -1.65,1245.74 -1.61,2491.48 -0.11,3737.22 0.28,226.35 98.64,321.06 324.2,321.24 892.62,0.71 1785.23,0.74 2677.86,-0.03 225.61,-0.18 319.6,-94.31 321.19,-323.2 2.16,-308.97 0.58,-617.97 0.59,-956.39z"/>
  </g>
  <path class="fil2" d="M12020.35 13503.36c392,-723.18 641.33,-1483.88 759.73,-2285.12 120.31,-814.22 -310.45,-1511.52 -1094.63,-1801.66 -901.14,-333.43 -1914.66,24.58 -2326.89,817.2 -215.58,414.52 -179.98,843.49 -91.07,1277.65 147.43,719.95 389.44,1405.26 752.56,2045.96 13.88,24.49 25.72,50.12 51.34,100.38 -247.21,0 -474.52,3.12 -701.54,-3.73 -30.12,-0.91 -70.02,-47.01 -86.37,-81.25 -376.27,-788.2 -654.26,-1608.02 -726.69,-2482.76 -84.76,-1023.77 569.69,-1933.36 1613.66,-2277.2 1030.11,-339.26 2191.73,4.12 2820.9,832.08 427.64,562.73 509.5,1194.9 380.65,1870.22 -134.74,706.32 -362.48,1381.84 -669.41,2031.71 -38.19,80.88 -81.72,118.15 -176.07,114.13 -189.08,-8.05 -378.74,-2.38 -586.47,-2.38 31.71,-60.99 53.67,-103.25 80.3,-155.23z"/>
  <g>
   <path class="fil3" d="M5082.68 17055.14c-235.84,0.58 -464.31,24.53 -682.85,-11.64 -419.6,-69.44 -677.61,-338.05 -722.6,-759.18 -33.11,-309.97 -34.23,-629.29 -0.25,-939.02 47.46,-432.73 314.96,-709.15 744.79,-775.23 236.69,-36.38 492.2,-33.78 726.17,14.47 387.02,79.81 633.54,347.43 675.51,741.07 34.6,324.41 34.37,658.57 -1.09,982.87 -44.43,406.28 -308.89,648.32 -739.68,746.66l0 0zm107.89 -1147.37c-8.77,-180.41 -3.04,-363.01 -30.03,-540.63 -32.64,-214.86 -185.19,-325.48 -404.15,-326.87 -217.68,-1.37 -395.14,110.87 -411.67,317.34 -24.04,300.15 -22.97,605.18 1.52,905.35 16.61,203.64 195.29,313.5 416.05,310.58 211.17,-2.79 361.64,-116.31 399.76,-316.21 20,-104.88 19.38,-213.7 28.52,-349.56z"/>
  </g>
  <g>
   <path class="fil2" d="M7439.67 14837.31c0.07,-310.84 0.07,-310.88 292.73,-310.87 366.52,0.03 318.13,-21.34 318.9,311.74 1.57,676.74 -2.92,1353.52 3.21,2030.21 1.29,142.13 -43.82,199.33 -185.43,183.32 -62.96,-7.13 -127.75,-5.61 -191.05,-0.27 -119.89,10.13 -219.64,-2.73 -216.13,-116.79 -172.06,50.87 -343.08,131.81 -519.88,147.45 -382.59,33.85 -683.1,-198.33 -741.32,-583.33 -36.02,-238.17 -41.77,-492.04 -0.98,-728.48 94.8,-549.53 679.59,-780.66 1146.05,-473.86 22.67,14.91 45.67,29.34 93.9,60.29 0,-186.2 0,-345.7 0,-519.41l0 0zm-30.54 1567.29c6.34,-169.52 28.98,-340.47 14.33,-508.17 -14.14,-161.69 -144.5,-250.08 -310.4,-249.98 -166.28,0.1 -274.4,75.21 -297.92,241.58 -20.21,142.96 -18.16,291.01 -8.61,435.66 9.34,141.64 75.59,253.05 232.43,279.16 176.53,29.38 267.82,-15.59 370.17,-198.25z"/>
  </g>
  <path class="fil4" d="M19664.89 16706c-99.92,-119.61 -192.94,-231.31 -285.98,-343 -12.13,2.56 -24.24,5.11 -36.36,7.66 0,167.53 -5.65,335.29 1.8,502.5 5.89,131.86 -39.07,191.93 -177.17,179.22 -92.37,-8.5 -186.34,-5.54 -279.24,-0.69 -103.7,5.42 -139.32,-44.69 -139.2,-141.2 1.04,-750.06 0.99,-1500.13 0.17,-2250.19 -0.1,-90.96 37.25,-136.61 131.6,-134.35 102.88,2.44 206.08,4.31 308.77,-0.8 115.39,-5.75 156,45.87 154.53,157.91 -3.99,303.89 -1.27,607.89 -1.23,911.84 0.01,53.47 0,106.94 0,206.92 123.52,-134.1 232.46,-229.88 313.46,-345.25 144.01,-205.16 326.33,-299.07 575.07,-252.89 90.72,16.84 180.82,37.08 271.2,55.77 -50.23,73.71 -93.35,153.71 -152.03,219.93 -162.35,183.19 -331.2,360.64 -508.71,552.5 194.16,236.25 386,469.64 577.78,703.07 49.77,60.59 102.26,119.21 148.27,182.52 52.78,72.65 28.93,126.95 -58.38,130.28 -166.39,6.37 -333.47,6.12 -499.69,-2.49 -41.58,-2.15 -88.62,-39.4 -119.86,-72.9 -76.77,-82.32 -145.8,-171.83 -224.8,-266.36z"/>
  <path class="fil3" d="M15444.18 15295.92c42.31,-39.18 81.31,-82.47 125.15,-88.12 91.7,-11.82 186.44,2.16 279.04,-5.34 134.15,-10.86 209.5,31.93 189.35,161.9 148.18,-60.95 293.14,-149.35 449.31,-179.33 448.76,-86.17 807.26,189.78 832.37,644.19 20.3,366.86 6.43,735.56 9.57,1103.43 0.77,91.16 -46.83,119.38 -129.16,118.03 -117.7,-1.93 -235.6,-3.96 -353.14,0.68 -110.71,4.37 -144.31,-47.43 -142.99,-151.8 3.86,-304.09 4.3,-608.32 -0.2,-912.39 -3.36,-227.4 -113.56,-340.86 -315.98,-340.05 -201.9,0.81 -315.97,121.42 -320.62,356.4 -5.63,284.4 -1.35,569.01 -1.91,853.52 -0.38,187.82 -5.01,192.33 -186.73,193.29 -83.38,0.44 -167.4,-6.38 -250.04,1.52 -139.8,13.36 -190.29,-39.24 -188.37,-183.04 6.95,-519.9 3.03,-1039.94 4.35,-1572.89z"/>
  <g>
   <path class="fil2" d="M11756.11 16748.53c-211.1,-355.67 -208.04,-719.54 -75.08,-1084.45 75.34,-206.78 231.48,-351.34 441.45,-425.6 584.48,-206.71 1326.45,3.44 1326.34,893.65 -0.02,124.19 -45.44,161.88 -164.28,160.08 -347,-5.22 -694.13,-1.85 -1039.04,-1.85 -25.1,179.69 31.78,316.05 154.09,371.52 139.89,63.43 252.29,14.55 359.3,-85.11 41.16,-38.34 108.53,-61.19 166.21,-66.46 111.86,-10.23 225.32,-4.67 338.07,-2.6 145.67,2.68 174.96,51.85 100.17,181.19 -117.88,203.88 -305.6,318.14 -529.52,362.3 -403.04,79.49 -783.64,55.8 -1077.71,-302.67l0 0zm782.01 -806.8c91.1,0 182.19,0 277.04,0 8.02,-161.75 -20.84,-300.89 -161.39,-349.01 -89.27,-30.57 -217.74,-20.12 -301.23,23.91 -111.57,58.85 -145.65,184.2 -112.09,325.1 93.96,0 181.69,0 297.67,0z"/>
  </g>
  <g>
   <path class="fil2" d="M3206.75 16507.71c145.46,18.94 111.07,99.94 71.45,171.51 -129.06,233.13 -345.11,346.96 -594.98,385.12 -157.53,24.05 -324.15,22.97 -482.33,1.35 -353.39,-48.3 -601.12,-283.6 -661.87,-634.63 -29.64,-171.26 -41.39,-354.48 -14.66,-524.98 85.18,-543.44 505.38,-808.28 1113.44,-721.45 445.19,63.57 735.82,427.91 724.03,988.13 -2.15,102.1 -64.08,118.33 -146.97,118.03 -304.01,-1.09 -608.01,-0.37 -912.02,-0.33 -52.65,0 -105.3,0 -168.97,0 9.31,163.8 32.1,302.11 181.25,372.41 139.57,65.79 252.54,10 358.2,-89.08 38.03,-35.67 99.66,-59.49 152.44,-63.45 121.89,-9.18 244.95,-2.89 380.99,-2.63l0 0zm-586.6 -887.3c-109.69,-81.06 -228.11,-91.52 -342.4,-20.68 -119.89,74.33 -145.72,196.11 -144.37,330.32 203.93,0 396.27,0 627.84,0 -48.28,-114.08 -86.51,-204.44 -141.07,-309.64z"/>
  </g>
  <path class="fil3" d="M13639.16 15248.76c115.51,-28.16 224.42,-45.6 355.47,-66.58 0,-153.49 6.33,-318.54 -2.03,-482.85 -6.42,-126.02 35.83,-177.11 166.28,-174.42 509.23,10.55 415.99,-60.9 425.3,414.5 1.61,82.42 0.22,164.89 0.22,264.7 138.7,0 264.71,3.07 390.52,-0.94 106.64,-3.41 148.03,39.96 145.93,148.47 -6.74,347.61 34.93,312.88 -301.66,314.52 -72.49,0.36 -144.98,0.05 -230.37,0.05 0,247.15 -6.62,481.12 2.79,714.45 4.71,116.77 80.97,185.32 204.8,186.81 9.81,0.11 19.62,0.1 29.42,0.41 344.44,10.54 369.59,37.55 317.75,378.93 -5.76,38 -61.22,96.41 -95.19,97.52 -176.04,5.75 -355.33,14.07 -528.34,-12.31 -331.27,-50.49 -513.33,-270.79 -522.29,-609.91 -6.46,-244.54 -1.26,-489.41 -1.26,-746.1 -52.67,-3.76 -94.98,-8.91 -137.35,-9.44 -239.73,-3.08 -240.46,-2.71 -238.78,-246.98 0.36,-53.41 7.92,-106.75 18.79,-170.83z"/>
  <path class="fil2" d="M9103.43 15778.61c70.96,192.36 138.46,373.81 217.55,586.43 133.81,-359.49 259.77,-681.96 372.44,-1009.01 40.99,-118.98 104.83,-163.85 226.2,-153.78 97.41,8.07 196.14,-1.2 293.95,3.73 79.37,3.98 117.61,42.63 83.24,127.02 -221.47,543.7 -441.36,1088.05 -665.71,1630.57 -14.3,34.6 -60.19,76.97 -93.75,79.13 -141.48,9.15 -284.53,11.95 -425.52,-0.14 -39.55,-3.38 -90.47,-58.69 -108.38,-101.75 -219.82,-528.47 -434.66,-1059.03 -650.3,-1589.25 -41.16,-101.23 -4.31,-149.92 103.66,-147.52 4.89,0.1 9.8,0.04 14.7,-0.15 412.06,-16.48 411.96,-16.44 555.32,371.81 23.72,64.23 48.72,127.99 76.6,202.91z"/>
  <path class="fil5" d="M10756.62 17695.16c-158.08,12.37 -304.21,26.4 -450.53,28.91 -34.88,0.61 -98.55,-34.48 -100.86,-57.91 -11.04,-111.42 -14.11,-225.6 0.28,-336.15 3.61,-27.74 80.88,-61.43 126.71,-65.53 262.94,-23.63 298.71,-56.76 299.4,-322 1.35,-519.89 4.1,-1039.81 -2.06,-1559.62 -1.56,-132.3 35.56,-191.73 174.19,-180.77 107.24,8.49 215.68,2.9 323.57,1.73 86.29,-0.96 124.74,40.88 124.49,125.92 -1.77,583.59 5.21,1167.37 -7.23,1750.73 -6.61,310.06 -164.54,526.96 -487.96,614.69z"/>
  <path class="fil6" d="M17734.63 15629.73c0,-429.11 0.05,-424.71 409.29,-427.99 136.17,-1.09 190.47,35.07 188.07,182.03 -8.14,499.51 -6.52,999.26 -0.75,1498.84 1.48,128.36 -40.85,170.16 -169.07,170.12 -427.54,-0.08 -427.54,4.07 -427.54,-423.77 0,-328.19 0,-656.38 0,-999.23z"/>
  <path class="fil2" d="M11254.43 14818.45c-44.2,47.56 -85.24,106.52 -132.55,112.1 -120.97,14.25 -244.75,3.89 -367.37,4.97 -83.71,0.74 -127.33,-34.19 -127.22,-122.52 0.52,-437.2 -36.24,-371.11 331.28,-374.58 349.54,-3.31 292.06,-12.44 295.86,380.03z"/>
  <path class="fil6" d="M18257.14 14444.67c75.65,73.23 107.63,400.84 50.91,453.72 -25.05,23.34 -69.99,33.48 -106.47,34.9 -112.32,4.34 -224.93,0.43 -337.4,2 -89.37,1.23 -134.51,-32.79 -133.04,-129.87 6.38,-421.61 -49.36,-362.12 351.07,-366.68 53.75,-0.62 107.53,1.77 174.93,5.93z"/>
  <g>
   <path class="fil7" d="M15362.49 21813.78c-0.01,323.7 1.57,632.7 -0.59,941.67 -1.59,228.89 -95.58,323.02 -321.19,323.2 -892.63,0.77 -1785.24,0.74 -2677.86,0.03 -225.56,-0.18 -323.92,-94.89 -324.2,-321.24 -1.5,-1245.74 -1.54,-2491.48 0.11,-3737.22 0.3,-218.49 97.35,-316.66 314.78,-317.18 897.5,-2.16 1795.03,-2.13 2692.55,-0.04 224.8,0.52 315.52,97.37 315.83,329.92 1.22,922.03 0.55,1844.09 0.57,2780.86l0 0zm-556.53 -1163.92c115.99,-36.4 192.63,-104.92 164.47,-236.44 -26.24,-122.57 -126.15,-156.83 -234.91,-157.14 -724.66,-2.06 -1449.34,-2.29 -2174,-0.25 -155.2,0.43 -261.15,88.81 -259.8,202.53 1.33,112.88 108.28,201.81 262.12,201.97 739.27,0.71 1478.55,-2.13 2242.12,-10.67l0 0zm-1295.3 -1280.62c-328.28,0 -656.55,-1.01 -984.81,0.49 -142.93,0.66 -223.08,72.04 -225.57,193.79 -2.56,124.8 85.04,208.13 229.27,210.37 181.23,2.82 362.55,0.77 543.84,0.75 318.46,-0.07 636.97,2.56 955.39,-1.6 137.6,-1.81 211.91,-84.36 203.37,-214.37 -8.3,-126.55 -69.39,-195.81 -207.04,-190.82 -161.47,5.88 -323.32,1.39 -514.45,1.39l0 0zm-294.5 2155.21c264.76,-0.05 529.54,1.4 794.28,-0.68 149.24,-1.18 219.92,-65.66 222.35,-194.03 2.44,-129.96 -67.39,-203.55 -213.07,-204.41 -500.08,-2.96 -1000.2,-2.69 -1500.28,-0.21 -144.38,0.72 -221.37,76.88 -218.76,200.3 2.53,119.71 86.46,196.85 224.13,198.28 220.62,2.32 441.27,0.7 691.35,0.75z"/>
  </g>
  <path class="fil8" d="M5190.35 15922.17c-8.92,121.46 -8.3,230.28 -28.3,335.16 -38.12,199.9 -188.59,313.42 -399.76,316.21 -220.76,2.92 -399.44,-106.94 -416.05,-310.58 -24.49,-300.17 -25.56,-605.2 -1.52,-905.35 16.53,-206.47 193.99,-318.71 411.67,-317.34 218.96,1.39 371.51,112.01 404.15,326.87 26.99,177.62 21.26,360.22 29.81,555.03z"/>
  <path class="fil7" d="M7405.12 16415.96c-98.34,171.3 -189.63,216.27 -366.16,186.89 -156.84,-26.11 -223.09,-137.52 -232.43,-279.16 -9.55,-144.65 -11.6,-292.7 8.61,-435.66 23.52,-166.37 131.64,-241.48 297.92,-241.58 165.9,-0.1 296.26,88.29 310.4,249.98 14.65,167.7 -7.99,338.65 -18.34,519.53z"/>
  <path class="fil9" d="M12524 15941.73c-101.86,0 -189.59,0 -283.55,0 -33.56,-140.9 0.52,-266.25 112.09,-325.1 83.49,-44.03 211.96,-54.48 301.23,-23.91 140.55,48.12 169.41,187.26 161.39,349.01 -94.85,0 -185.94,0 -291.16,0z"/>
  <path class="fil9" d="M2628.32 15627.84c46.39,97.77 84.62,188.13 132.9,302.21 -231.57,0 -423.91,0 -627.84,0 -1.35,-134.21 24.48,-255.99 144.37,-330.32 114.29,-70.84 232.71,-60.38 350.57,28.11z"/>
  <path class="fil10" d="M14793.8 20653.33c-751.41,5.07 -1490.69,7.91 -2229.96,7.2 -153.84,-0.16 -260.79,-89.09 -262.12,-201.97 -1.35,-113.72 104.6,-202.1 259.8,-202.53 724.66,-2.04 1449.34,-1.81 2174,0.25 108.76,0.31 208.67,34.57 234.91,157.14 28.16,131.52 -48.48,200.04 -176.63,239.91z"/>
  <path class="fil4" d="M13525.37 19369.24c176.42,0 338.27,4.49 499.74,-1.39 137.65,-4.99 198.74,64.27 207.04,190.82 8.54,130.01 -65.77,212.56 -203.37,214.37 -318.42,4.16 -636.93,1.53 -955.39,1.6 -181.29,0.02 -362.61,2.07 -543.84,-0.75 -144.23,-2.24 -231.83,-85.57 -229.27,-210.37 2.49,-121.75 82.64,-193.13 225.57,-193.79 328.26,-1.5 656.53,-0.49 999.52,-0.49z"/>
  <path class="fil11" d="M13201.44 21524.45c-235.36,-0.05 -456.01,1.57 -676.63,-0.75 -137.67,-1.43 -221.6,-78.57 -224.13,-198.28 -2.61,-123.42 74.38,-199.58 218.76,-200.3 500.08,-2.48 1000.2,-2.75 1500.28,0.21 145.68,0.86 215.51,74.45 213.07,204.41 -2.43,128.37 -73.11,192.85 -222.35,194.03 -264.74,2.08 -529.52,0.63 -809,0.68z"/>
 </g>
</svg>
