<?xml version="1.0" standalone="no"?>
<!DOCTYPE svg PUBLIC "-//W3C//DTD SVG 20010904//EN"
 "http://www.w3.org/TR/2001/REC-SVG-20010904/DTD/svg10.dtd">
<svg version="1.0" xmlns="http://www.w3.org/2000/svg"
 width="648.000000pt" height="158.000000pt" viewBox="0 0 648.000000 158.000000"
 preserveAspectRatio="xMidYMid meet">

<g transform="translate(0.000000,158.000000) scale(0.100000,-0.100000)"
fill="#000000" stroke="none">
<path d="M820 1219 c0 -28 -3 -31 -22 -24 -107 32 -136 29 -253 -23 -44 -19
-96 -36 -115 -37 -39 -3 -52 -21 -22 -33 19 -7 15 -21 -70 -256 l-90 -248 21
-22 c20 -19 34 -21 164 -24 120 -3 147 -1 175 14 17 9 32 21 32 25 0 4 -39
115 -86 246 -48 131 -87 244 -88 251 -2 20 151 85 212 90 73 6 142 -20 142
-54 0 -13 -4 -24 -10 -24 -6 0 -10 -68 -10 -182 0 -101 -3 -254 -7 -341 l-6
-157 -36 -10 c-20 -6 -45 -17 -55 -25 -11 -8 -30 -15 -43 -15 -16 0 -23 -6
-23 -20 0 -11 -4 -20 -10 -20 -5 0 -10 -9 -10 -20 0 -19 7 -20 216 -20 l217 0
-7 31 c-3 17 -6 35 -6 40 0 5 -10 9 -23 9 -12 0 -31 6 -42 14 -11 7 -37 19
-57 25 l-38 13 0 103 c0 57 -4 105 -9 107 -5 2 -11 116 -12 263 l-3 259 30 13
c56 24 117 16 222 -29 l99 -41 -33 -91 c-17 -50 -59 -164 -91 -253 -57 -155
-59 -163 -42 -179 10 -9 35 -20 56 -25 51 -12 210 -11 252 1 43 12 86 40 74
49 -5 3 -49 116 -97 250 -79 215 -87 245 -72 253 26 15 19 28 -16 28 -18 0
-62 14 -98 31 -119 56 -196 66 -272 34 -15 -6 -18 -2 -18 24 0 17 -4 31 -10
31 -5 0 -10 -14 -10 -31z m-315 -274 c26 -71 64 -178 86 -237 l38 -108 -89 0
-90 0 0 242 c0 133 2 239 4 237 2 -2 25 -62 51 -134z m-69 -342 c-2 -2 -42 -3
-89 -1 l-85 3 79 220 c44 121 83 227 87 235 4 8 8 -90 10 -219 1 -129 1 -236
-2 -238z m774 232 l0 -235 -91 0 c-69 0 -90 3 -86 13 2 6 37 102 77 212 94
258 89 245 95 245 3 0 5 -106 5 -235z m106 -14 c41 -112 74 -207 74 -212 0 -5
-38 -9 -85 -9 l-85 0 1 238 c0 171 3 230 10 212 6 -14 44 -117 85 -229z"/>
<path d="M3070 1045 l0 -116 -32 17 c-22 11 -48 15 -89 12 -77 -6 -128 -40
-163 -109 -68 -138 3 -288 152 -319 46 -10 57 -9 92 8 31 15 40 16 40 6 0 -11
17 -14 65 -14 l65 0 0 315 0 315 -65 0 -65 0 0 -115z m-47 -187 c98 -52 70
-238 -36 -238 -74 0 -119 99 -83 184 24 57 72 79 119 54z"/>
<path d="M5420 845 l0 -315 65 0 65 0 0 84 c0 47 4 87 8 90 5 3 39 -35 77 -85
l69 -89 78 0 c43 0 78 2 78 5 0 3 -45 60 -100 127 -81 97 -98 124 -88 133 7 7
53 45 102 86 l89 74 -92 3 -92 3 -65 -57 -64 -56 0 156 0 156 -65 0 -65 0 0
-315z"/>
<path d="M3736 1124 c-39 -38 -10 -104 46 -104 56 0 89 68 50 103 -23 21 -76
22 -96 1z"/>
<path d="M5230 1120 c-25 -25 -25 -41 1 -74 36 -46 119 -23 119 34 0 29 -36
60 -70 60 -17 0 -39 -9 -50 -20z"/>
<path d="M4430 1020 c0 -53 -2 -60 -20 -60 -18 0 -20 -7 -20 -55 0 -47 3 -55
19 -55 16 0 19 -11 23 -107 3 -64 12 -123 21 -145 25 -58 104 -89 176 -67 40
12 41 13 41 59 l0 48 -45 -6 c-41 -4 -45 -3 -55 22 -5 15 -10 65 -10 112 l0
84 55 0 55 0 0 55 0 55 -55 0 -55 0 0 60 0 60 -65 0 -65 0 0 -60z"/>
<path d="M1925 942 c-85 -40 -133 -129 -122 -225 16 -135 132 -211 282 -187
51 8 125 48 125 68 0 3 -16 23 -37 44 l-36 37 -29 -24 c-32 -27 -93 -34 -129
-15 -21 12 -51 64 -42 74 4 3 74 6 156 6 l150 0 -6 56 c-7 67 -40 122 -93 154
-51 32 -163 38 -219 12z m160 -107 c40 -39 32 -45 -60 -45 -94 0 -107 11 -59
49 37 29 89 27 119 -4z"/>
<path d="M2405 942 c-84 -40 -128 -109 -128 -202 -1 -203 264 -292 401 -136
85 97 60 253 -52 321 -63 38 -160 46 -221 17z m155 -111 c16 -16 32 -40 36
-55 18 -72 -31 -146 -96 -146 -81 0 -124 108 -73 188 30 48 92 54 133 13z"/>
<path d="M3220 953 c0 -4 39 -101 88 -216 l87 -208 45 3 45 3 87 205 c48 113
87 208 88 213 0 4 -29 7 -64 7 l-65 0 -20 -55 c-12 -30 -31 -81 -42 -112 -12
-32 -24 -61 -28 -65 -3 -4 -26 47 -50 112 l-44 120 -63 0 c-35 0 -64 -3 -64
-7z"/>
<path d="M3718 742 c-3 -249 -6 -258 -70 -249 l-38 5 0 -52 c0 -53 0 -53 39
-66 49 -16 116 -8 143 17 48 43 51 64 56 321 l4 242 -65 0 -66 0 -3 -218z"/>
<path d="M4035 941 c-75 -35 -116 -104 -116 -196 0 -136 89 -219 232 -218 71
0 151 30 168 61 12 23 -73 100 -86 79 -13 -22 -48 -37 -87 -37 -40 0 -96 41
-96 71 0 18 9 19 155 19 174 0 163 -6 144 80 -13 62 -57 115 -114 141 -53 24
-147 24 -200 0z m159 -102 c48 -38 35 -49 -59 -49 -92 0 -100 6 -60 45 30 31
82 33 119 4z"/>
<path d="M4740 745 l0 -215 65 0 65 0 0 145 c0 142 1 147 25 170 27 28 71 33
101 11 17 -13 19 -30 22 -170 l3 -156 66 0 65 0 -4 168 c-4 188 -13 218 -72
246 -46 22 -123 20 -169 -3 -36 -18 -37 -18 -37 0 0 17 -8 19 -65 19 l-65 0 0
-215z"/>
<path d="M5220 745 l0 -215 65 0 65 0 0 215 0 215 -65 0 -65 0 0 -215z"/>
</g>
</svg>
